<svg id="svg" version="1.1" width="150" height="150" viewBox="0 0 400 400" xmlns="http://www.w3.org/2000/svg" xmlns:xlink="http://www.w3.org/1999/xlink" ><g id="svgg"><path id="path0" d="" stroke="none" fill="#000000" fill-rule="evenodd"></path><path id="path1" d="" stroke="none" fill="#242424" fill-rule="evenodd"></path><path id="path2" d="M109.200 203.600 L 109.200 320.024 165.700 319.887 C 221.069 319.753,235.838 319.436,236.980 318.359 C 237.189 318.161,238.179 317.992,239.180 317.983 C 240.181 317.973,241.810 317.789,242.800 317.574 C 243.790 317.359,245.320 317.073,246.200 316.938 C 247.080 316.803,247.980 316.559,248.200 316.396 C 248.420 316.234,249.500 315.971,250.600 315.813 C 251.700 315.655,252.780 315.392,253.000 315.228 C 253.220 315.065,254.480 314.618,255.800 314.235 C 258.263 313.521,258.744 313.345,261.260 312.241 C 262.064 311.888,263.009 311.600,263.360 311.600 C 263.712 311.600,264.000 311.420,264.000 311.200 C 264.000 310.980,264.326 310.800,264.724 310.800 C 265.121 310.800,265.796 310.536,266.224 310.213 C 266.651 309.890,267.300 309.620,267.667 309.613 C 268.033 309.606,268.393 309.465,268.467 309.300 C 268.540 309.135,269.320 308.645,270.200 308.212 C 271.959 307.346,276.722 304.465,277.476 303.812 C 277.738 303.586,278.612 302.950,279.419 302.400 C 282.150 300.538,291.200 291.073,291.200 290.078 C 291.200 289.852,291.335 289.607,291.500 289.533 C 292.549 289.067,296.399 281.296,297.807 276.800 C 298.186 275.590,298.653 274.291,298.843 273.914 C 299.034 273.536,299.307 272.226,299.451 271.002 C 299.595 269.779,299.867 268.682,300.056 268.565 C 300.245 268.448,300.400 267.474,300.400 266.400 C 300.400 265.326,300.580 264.336,300.800 264.200 C 301.309 263.885,301.344 245.511,300.837 244.980 C 300.637 244.771,300.381 243.700,300.268 242.600 C 299.968 239.678,299.217 235.521,298.822 234.600 C 298.634 234.160,298.175 232.720,297.803 231.400 C 297.129 229.012,296.307 226.830,295.581 225.505 C 295.371 225.123,295.200 224.538,295.200 224.205 C 295.200 223.872,295.034 223.600,294.832 223.600 C 294.629 223.600,294.345 223.060,294.200 222.400 C 294.055 221.740,293.771 221.200,293.568 221.200 C 293.366 221.200,293.200 221.023,293.200 220.806 C 293.200 220.337,290.850 216.428,290.112 215.669 C 289.827 215.377,289.398 214.771,289.158 214.322 C 288.668 213.407,285.612 210.036,283.829 208.445 C 283.185 207.870,282.364 207.119,282.005 206.776 C 280.984 205.800,274.560 201.600,274.089 201.600 C 273.857 201.600,273.607 201.465,273.533 201.300 C 273.384 200.964,271.503 200.051,268.800 199.002 C 267.810 198.618,266.640 198.162,266.200 197.988 C 264.449 197.295,261.205 196.400,260.448 196.400 C 260.008 196.400,259.536 196.220,259.400 196.000 C 259.264 195.780,258.803 195.600,258.376 195.600 C 256.339 195.600,257.655 194.098,261.300 192.262 C 265.219 190.290,268.062 188.738,268.398 188.390 C 268.582 188.198,271.021 186.291,272.989 184.800 C 274.850 183.390,281.600 176.152,281.600 175.566 C 281.600 175.396,281.827 175.019,282.105 174.729 C 283.457 173.314,287.195 166.265,287.198 165.124 C 287.199 164.752,287.380 164.336,287.600 164.200 C 287.820 164.064,288.000 163.513,288.000 162.976 C 288.000 162.439,288.163 162.000,288.362 162.000 C 288.562 162.000,288.852 161.055,289.007 159.900 C 289.163 158.745,289.422 157.620,289.584 157.400 C 290.976 155.511,290.992 132.767,289.603 131.000 C 289.431 130.780,289.161 129.475,289.005 128.100 C 288.849 126.725,288.559 125.600,288.361 125.600 C 288.162 125.600,288.000 125.161,288.000 124.624 C 288.000 124.087,287.820 123.536,287.600 123.400 C 287.380 123.264,287.196 122.848,287.191 122.476 C 287.186 122.104,286.650 120.720,286.000 119.400 C 285.350 118.080,284.814 116.775,284.809 116.500 C 284.804 116.225,284.640 116.000,284.443 116.000 C 284.247 116.000,283.974 115.550,283.836 115.000 C 283.698 114.450,283.408 114.000,283.192 114.000 C 282.977 114.000,282.800 113.730,282.800 113.400 C 282.800 113.070,282.649 112.800,282.464 112.800 C 282.280 112.800,281.939 112.395,281.709 111.900 C 280.535 109.384,273.016 101.865,270.500 100.691 C 270.005 100.461,269.600 100.120,269.600 99.936 C 269.600 99.751,269.330 99.600,269.000 99.600 C 268.670 99.600,268.400 99.423,268.400 99.208 C 268.400 98.992,267.950 98.702,267.400 98.564 C 266.850 98.426,266.400 98.153,266.400 97.957 C 266.400 97.760,266.216 97.600,265.992 97.600 C 265.768 97.600,264.913 97.188,264.092 96.684 C 263.271 96.180,261.790 95.420,260.800 94.995 C 259.810 94.570,258.910 94.105,258.800 93.961 C 258.690 93.818,257.970 93.567,257.200 93.404 C 256.430 93.241,255.620 92.981,255.400 92.827 C 255.180 92.673,253.920 92.218,252.600 91.817 C 251.280 91.416,249.840 90.949,249.400 90.779 C 248.464 90.418,244.414 89.577,242.400 89.325 C 241.630 89.229,240.640 88.987,240.200 88.788 C 237.862 87.728,223.833 87.444,167.300 87.312 L 109.200 87.177 109.200 203.600 M225.515 120.239 C 225.672 120.480,226.952 120.795,228.359 120.939 C 229.767 121.083,231.117 121.356,231.359 121.546 C 231.602 121.737,232.250 121.989,232.800 122.106 C 233.952 122.351,236.505 123.305,236.800 123.600 C 236.910 123.710,237.675 124.143,238.500 124.563 C 239.325 124.983,240.000 125.478,240.000 125.663 C 240.000 125.848,240.256 126.000,240.568 126.000 C 242.493 126.000,248.248 134.038,249.017 137.800 C 249.152 138.460,249.404 139.360,249.578 139.800 C 250.852 143.033,251.518 151.989,250.841 156.800 C 250.128 161.862,249.917 162.985,249.599 163.400 C 249.430 163.620,249.159 164.430,248.996 165.200 C 248.833 165.970,248.585 166.690,248.446 166.800 C 248.306 166.910,247.658 168.074,247.005 169.386 C 245.940 171.525,241.780 176.236,239.395 178.003 C 237.598 179.335,235.311 180.712,233.800 181.372 C 232.920 181.757,231.722 182.326,231.138 182.636 C 230.554 182.946,229.735 183.200,229.318 183.200 C 228.901 183.200,228.389 183.353,228.180 183.539 C 226.528 185.014,220.169 185.242,184.200 185.120 L 149.000 185.000 148.898 152.844 C 148.820 128.339,148.909 120.550,149.274 120.111 C 149.893 119.366,225.029 119.492,225.515 120.239 M230.200 214.036 C 235.458 214.777,236.000 214.884,236.000 215.188 C 236.000 215.355,236.806 215.602,237.791 215.737 C 238.776 215.872,239.901 216.141,240.291 216.334 C 240.681 216.527,241.568 216.981,242.262 217.343 C 242.956 217.704,243.811 218.000,244.162 218.000 C 244.513 218.000,244.800 218.159,244.800 218.353 C 244.800 218.548,245.115 218.812,245.500 218.942 C 246.194 219.175,246.969 219.645,248.566 220.800 C 251.065 222.609,256.400 228.524,256.400 229.487 C 256.400 229.769,256.535 230.002,256.700 230.005 C 256.865 230.007,257.338 230.772,257.751 231.705 C 258.164 232.637,258.661 233.760,258.857 234.200 C 262.408 242.197,262.261 258.061,258.555 266.800 C 257.981 268.154,257.772 268.571,256.700 270.500 C 255.958 271.835,252.372 276.465,251.361 277.393 C 249.570 279.037,248.432 279.960,247.331 280.661 C 246.709 281.057,246.110 281.476,246.000 281.591 C 245.512 282.102,243.217 283.200,242.638 283.200 C 242.287 283.200,242.000 283.343,242.000 283.517 C 242.000 283.692,240.965 284.163,239.700 284.564 C 238.435 284.965,237.040 285.434,236.600 285.607 C 232.632 287.163,230.347 287.235,189.000 287.116 L 149.000 287.000 148.897 250.800 C 148.840 230.890,148.879 214.375,148.984 214.100 C 149.225 213.468,225.740 213.407,230.200 214.036 " stroke="none" fill="#ffffff" fill-rule="evenodd"></path><path id="path3" d="" stroke="none" fill="#330033" fill-rule="evenodd"></path><path id="path4" d="" stroke="none" fill="#1c1c55" fill-rule="evenodd"></path><path id="path5" d="" stroke="none" fill="#331155" fill-rule="evenodd"></path><path id="path6" d="" stroke="none" fill="#550055" fill-rule="evenodd"></path><path id="path7" d="" stroke="none" fill="#461774" fill-rule="evenodd"></path><path id="path8" d="" stroke="none" fill="#4b2d69" fill-rule="evenodd"></path><path id="path9" d="" stroke="none" fill="#333377" fill-rule="evenodd"></path><path id="path10" d="M56.000 0.429 C 51.684 1.200,49.889 1.585,48.491 2.038 C 43.250 3.739,43.039 3.816,39.600 5.280 C 36.392 6.645,28.000 11.523,28.000 12.022 C 28.000 12.200,27.685 12.447,27.300 12.571 C 26.915 12.694,26.122 13.201,25.538 13.698 C 24.954 14.194,23.514 15.405,22.338 16.389 C 20.573 17.866,18.120 20.426,14.493 24.576 C 11.868 27.581,8.030 33.783,5.817 38.600 C 3.858 42.863,3.767 43.085,3.038 45.400 C 2.691 46.500,2.136 48.261,1.804 49.314 C 1.472 50.367,1.200 51.726,1.200 52.334 C 1.200 52.942,0.975 53.665,0.700 53.940 C 0.009 54.631,-0.040 345.178,0.651 346.039 C 0.898 346.347,1.226 347.632,1.379 348.894 C 1.531 350.155,1.823 351.291,2.028 351.417 C 2.233 351.544,2.400 352.076,2.400 352.600 C 2.400 353.124,2.560 353.651,2.755 353.772 C 2.950 353.893,3.232 354.645,3.382 355.445 C 3.532 356.244,3.806 357.191,3.992 357.549 C 4.177 357.907,4.816 359.280,5.411 360.600 C 6.007 361.920,6.726 363.450,7.009 364.000 C 8.333 366.568,9.016 367.816,9.200 368.000 C 9.310 368.110,10.300 369.544,11.400 371.186 C 12.500 372.828,13.984 374.808,14.698 375.586 C 15.412 376.364,15.997 377.112,15.998 377.250 C 16.001 377.602,23.217 384.624,23.439 384.491 C 23.540 384.430,24.022 384.828,24.511 385.374 C 25.641 386.635,32.263 391.028,35.402 392.600 C 36.721 393.260,37.890 393.895,38.000 394.011 C 38.110 394.127,39.010 394.551,40.000 394.952 C 40.990 395.354,42.070 395.807,42.400 395.960 C 42.730 396.113,44.080 396.569,45.400 396.975 C 46.720 397.380,48.160 397.844,48.600 398.005 C 53.820 399.915,44.068 399.800,200.400 399.800 C 286.837 399.800,345.322 399.653,345.800 399.435 C 346.837 398.961,346.671 399.001,349.100 398.638 C 350.254 398.466,351.300 398.162,351.423 397.963 C 351.546 397.763,352.042 397.599,352.524 397.598 C 353.006 397.596,353.916 397.326,354.546 396.998 C 355.176 396.669,355.943 396.400,356.251 396.400 C 356.559 396.400,357.123 396.229,357.505 396.020 C 357.887 395.812,359.460 395.082,361.000 394.400 C 362.540 393.718,364.160 392.956,364.600 392.709 C 365.040 392.461,365.940 391.975,366.600 391.629 C 367.260 391.283,367.890 390.889,368.000 390.752 C 368.110 390.616,369.190 389.899,370.400 389.159 C 371.610 388.419,372.870 387.597,373.200 387.333 C 378.085 383.416,380.988 380.662,385.044 376.099 C 386.803 374.120,387.065 373.795,387.239 373.382 C 387.436 372.915,390.513 368.279,390.812 368.000 C 391.054 367.774,395.551 358.631,396.026 357.400 C 397.255 354.211,398.433 350.254,398.651 348.583 C 398.794 347.492,399.111 346.347,399.355 346.039 C 399.918 345.327,399.997 55.432,399.435 54.200 C 398.978 53.200,399.020 53.371,398.647 51.041 C 398.475 49.964,398.190 48.794,398.015 48.441 C 397.840 48.089,397.390 46.810,397.014 45.600 C 396.639 44.390,396.183 43.040,396.002 42.600 C 395.820 42.160,395.340 40.946,394.936 39.901 C 394.531 38.857,394.065 38.002,393.900 38.001 C 393.735 38.001,393.600 37.774,393.600 37.497 C 393.600 37.023,389.359 29.628,388.842 29.200 C 388.534 28.945,387.675 27.581,387.330 26.800 C 387.185 26.470,386.466 25.606,385.733 24.881 C 385.000 24.155,384.400 23.431,384.400 23.271 C 384.400 23.019,379.359 17.921,376.372 15.153 C 375.807 14.629,373.737 13.120,371.772 11.800 C 369.807 10.480,368.140 9.265,368.067 9.100 C 367.993 8.935,367.720 8.800,367.460 8.800 C 367.199 8.800,366.337 8.359,365.544 7.821 C 364.752 7.282,363.630 6.722,363.051 6.577 C 362.473 6.432,362.000 6.153,362.000 5.957 C 362.000 5.760,361.802 5.600,361.560 5.600 C 361.151 5.600,358.990 4.739,357.587 4.017 C 357.250 3.844,356.350 3.568,355.587 3.405 C 354.824 3.241,354.020 2.973,353.800 2.807 C 353.580 2.642,352.860 2.383,352.200 2.231 C 351.540 2.079,349.830 1.682,348.400 1.350 C 346.970 1.017,344.900 0.590,343.800 0.401 C 341.268 -0.033,58.432 -0.006,56.000 0.429 M236.000 87.249 C 237.650 87.477,239.720 87.750,240.600 87.855 C 241.480 87.960,242.560 88.201,243.000 88.391 C 243.440 88.581,244.692 88.842,245.781 88.972 C 247.752 89.206,250.008 89.804,251.251 90.422 C 251.609 90.600,252.599 90.871,253.451 91.025 C 254.303 91.179,255.180 91.439,255.400 91.603 C 255.620 91.768,256.250 92.034,256.800 92.195 C 260.452 93.266,270.565 98.982,273.800 101.803 C 278.838 106.197,284.400 112.726,284.400 114.245 C 284.400 114.513,284.540 114.793,284.711 114.867 C 285.144 115.052,287.881 120.774,288.227 122.217 C 288.383 122.868,288.634 123.580,288.786 123.800 C 288.937 124.020,289.380 125.640,289.769 127.400 C 290.158 129.160,290.685 131.320,290.938 132.200 C 291.575 134.406,291.567 154.034,290.929 156.200 C 290.669 157.080,290.149 159.060,289.772 160.600 C 289.395 162.140,288.970 163.580,288.827 163.800 C 288.684 164.020,288.231 165.235,287.819 166.500 C 287.407 167.765,286.919 168.800,286.735 168.800 C 286.551 168.800,286.400 169.029,286.400 169.308 C 286.400 169.999,283.100 175.521,281.827 176.962 C 281.262 177.601,280.799 178.231,280.797 178.362 C 280.792 178.732,275.523 184.080,274.061 185.200 C 273.343 185.750,272.361 186.538,271.878 186.952 C 270.311 188.294,265.479 191.300,262.119 193.022 C 258.975 194.634,258.448 195.200,260.092 195.200 C 260.960 195.200,264.659 196.275,265.695 196.829 C 266.077 197.033,266.664 197.200,267.000 197.200 C 267.336 197.200,267.923 197.372,268.305 197.582 C 268.687 197.793,270.197 198.498,271.660 199.151 C 273.953 200.173,279.401 203.330,280.000 203.982 C 280.110 204.102,281.010 204.824,282.000 205.586 C 284.867 207.795,287.083 209.972,288.905 212.370 C 289.836 213.597,290.697 214.690,290.817 214.800 C 292.098 215.970,297.600 226.515,297.600 227.800 C 297.600 228.104,297.764 228.454,297.965 228.578 C 298.166 228.703,298.452 229.522,298.600 230.400 C 298.748 231.278,299.034 232.097,299.235 232.222 C 299.436 232.346,299.600 232.898,299.600 233.450 C 299.600 234.001,299.782 234.792,300.004 235.208 C 300.227 235.623,300.521 237.096,300.659 238.482 C 300.797 239.867,301.041 241.180,301.200 241.400 C 302.162 242.725,302.523 259.105,301.706 264.400 C 300.726 270.760,299.960 274.156,299.161 275.695 C 298.962 276.077,298.800 276.679,298.800 277.034 C 298.800 277.389,298.554 278.246,298.254 278.940 C 297.954 279.633,297.374 281.010,296.965 282.000 C 296.557 282.990,296.124 283.890,296.005 284.000 C 295.886 284.110,295.431 284.963,294.994 285.895 C 294.557 286.828,294.065 287.593,293.900 287.595 C 293.735 287.598,293.600 287.835,293.600 288.122 C 293.600 288.410,293.147 289.259,292.593 290.009 C 288.415 295.672,286.790 297.472,282.761 300.898 C 279.088 304.022,278.581 304.411,277.900 304.629 C 277.515 304.753,277.200 304.990,277.200 305.156 C 277.200 305.322,276.435 305.857,275.500 306.344 C 273.611 307.329,272.303 308.097,272.000 308.400 C 271.481 308.919,262.239 313.200,261.637 313.200 C 261.391 313.200,260.787 313.408,260.295 313.662 C 258.623 314.526,258.175 314.698,256.800 315.000 C 256.044 315.166,255.150 315.438,254.813 315.604 C 254.064 315.973,251.033 316.786,249.400 317.056 C 248.740 317.165,247.840 317.413,247.400 317.607 C 246.960 317.801,245.250 318.157,243.600 318.398 C 241.950 318.639,239.520 319.007,238.200 319.217 C 231.751 320.240,225.433 320.345,168.700 320.372 L 108.400 320.400 108.400 203.600 L 108.400 86.800 170.700 86.818 C 211.376 86.829,234.041 86.979,236.000 87.249 M150.000 152.209 L 150.000 184.031 187.580 183.915 C 216.986 183.825,225.269 183.691,225.660 183.300 C 225.935 183.025,226.653 182.800,227.256 182.800 C 227.859 182.800,228.454 182.636,228.578 182.435 C 228.703 182.234,229.523 181.948,230.402 181.800 C 231.281 181.651,232.000 181.402,232.000 181.245 C 232.000 181.089,232.595 180.746,233.322 180.483 C 239.405 178.283,246.242 170.785,248.170 164.200 C 248.556 162.880,249.049 161.357,249.266 160.816 C 249.863 159.324,250.121 148.996,249.647 145.600 C 248.922 140.414,247.704 135.600,247.117 135.600 C 246.943 135.600,246.800 135.326,246.800 134.992 C 246.800 132.549,241.174 126.992,236.425 124.743 C 231.857 122.580,231.763 122.545,229.000 121.979 C 223.332 120.819,219.537 120.694,185.500 120.544 L 150.000 120.387 150.000 152.209 M150.000 250.610 L 150.000 286.820 187.700 286.657 C 209.622 286.562,226.739 286.325,228.600 286.090 C 232.706 285.572,236.495 284.782,236.980 284.344 C 237.189 284.155,237.703 284.000,238.123 284.000 C 241.673 284.000,254.800 274.260,254.800 271.626 C 254.800 271.423,255.032 271.019,255.315 270.729 C 255.599 270.438,256.147 269.480,256.535 268.600 C 256.922 267.720,257.373 266.730,257.538 266.400 C 257.816 265.843,258.375 264.065,259.676 259.600 C 260.029 258.388,260.200 255.251,260.200 250.000 C 260.200 244.749,260.029 241.612,259.676 240.400 C 258.213 235.380,257.747 234.039,256.827 232.200 C 255.069 228.689,249.566 222.000,248.435 222.000 C 248.279 222.000,247.791 221.685,247.352 221.300 C 246.912 220.915,246.024 220.317,245.376 219.971 C 244.729 219.625,243.840 219.139,243.400 218.890 C 241.321 217.717,236.337 216.000,235.009 216.000 C 234.542 216.000,233.989 215.831,233.780 215.624 C 232.897 214.750,219.050 214.400,185.307 214.400 L 150.000 214.400 150.000 250.610 " stroke="none" fill="#563d7c" fill-rule="evenodd"></path><path id="path11" d="M235.500 87.482 C 235.995 87.578,236.805 87.578,237.300 87.482 C 237.795 87.387,237.390 87.309,236.400 87.309 C 235.410 87.309,235.005 87.387,235.500 87.482 M221.000 120.790 C 221.764 121.128,224.314 121.357,223.967 121.056 C 223.875 120.976,222.990 120.804,222.000 120.673 C 220.798 120.514,220.466 120.553,221.000 120.790 M250.128 152.000 C 250.128 153.430,250.201 154.015,250.289 153.300 C 250.378 152.585,250.378 151.415,250.289 150.700 C 250.201 149.985,250.128 150.570,250.128 152.000 M290.846 154.867 C 290.821 155.234,290.696 155.864,290.570 156.267 C 290.352 156.962,290.363 156.963,290.797 156.287 C 291.048 155.896,291.173 155.266,291.073 154.887 C 290.911 154.268,290.888 154.266,290.846 154.867 M167.330 184.300 C 176.972 184.360,192.632 184.360,202.130 184.300 C 211.629 184.240,203.740 184.191,184.600 184.191 C 165.460 184.191,157.689 184.240,167.330 184.300 M285.983 209.300 C 286.964 210.345,287.819 211.200,287.883 211.200 C 288.184 211.200,287.866 210.841,286.100 209.183 L 284.200 207.400 285.983 209.300 M224.711 214.693 C 225.651 214.778,227.091 214.777,227.911 214.691 C 228.730 214.605,227.960 214.536,226.200 214.537 C 224.440 214.539,223.770 214.609,224.711 214.693 M260.553 249.800 C 260.553 252.440,260.618 253.468,260.697 252.084 C 260.775 250.701,260.774 248.541,260.695 247.284 C 260.616 246.028,260.552 247.160,260.553 249.800 M302.161 254.800 C 302.161 258.210,302.222 259.605,302.297 257.900 C 302.372 256.195,302.372 253.405,302.297 251.700 C 302.222 249.995,302.161 251.390,302.161 254.800 M225.000 286.400 C 223.337 286.823,224.974 286.842,227.000 286.423 C 228.345 286.145,228.409 286.092,227.400 286.093 C 226.740 286.094,225.660 286.232,225.000 286.400 M233.105 319.883 C 233.602 319.979,234.322 319.975,234.705 319.875 C 235.087 319.775,234.680 319.696,233.800 319.701 C 232.920 319.705,232.607 319.787,233.105 319.883 " stroke="none" fill="#725d91" fill-rule="evenodd"></path><path id="path12" d="M149.791 152.200 C 149.791 169.800,149.840 176.942,149.900 168.070 C 149.960 159.199,149.960 144.799,149.900 136.070 C 149.840 127.342,149.791 134.600,149.791 152.200 M250.093 148.400 C 250.093 149.170,250.175 149.485,250.276 149.100 C 250.376 148.715,250.376 148.085,250.276 147.700 C 250.175 147.315,250.093 147.630,250.093 148.400 M276.400 182.600 C 275.428 183.590,274.723 184.400,274.833 184.400 C 274.943 184.400,275.828 183.590,276.800 182.600 C 277.772 181.610,278.477 180.800,278.367 180.800 C 278.257 180.800,277.372 181.610,276.400 182.600 M167.930 214.300 C 177.902 214.359,194.102 214.359,203.930 214.300 C 213.759 214.240,205.600 214.192,185.800 214.192 C 166.000 214.192,157.959 214.240,167.930 214.300 M149.792 250.800 C 149.792 270.710,149.840 278.855,149.900 268.900 C 149.959 258.945,149.959 242.655,149.900 232.700 C 149.840 222.745,149.792 230.890,149.792 250.800 " stroke="none" fill="#806d9c" fill-rule="evenodd"></path><path id="path13" d="" stroke="none" fill="#8c7ba6" fill-rule="evenodd"></path><path id="path14" d="M108.585 87.300 C 108.481 87.575,108.441 140.090,108.498 204.000 L 108.600 320.200 108.800 203.500 C 108.910 139.315,108.949 86.800,108.887 86.800 C 108.826 86.800,108.689 87.025,108.585 87.300 M227.300 87.076 C 227.685 87.176,228.315 87.176,228.700 87.076 C 229.085 86.975,228.770 86.893,228.000 86.893 C 227.230 86.893,226.915 86.975,227.300 87.076 " stroke="none" fill="#9f91b4" fill-rule="evenodd"></path><path id="path15" d="M223.507 87.090 C 224.226 87.179,225.306 87.177,225.907 87.086 C 226.508 86.995,225.920 86.922,224.600 86.924 C 223.280 86.926,222.788 87.001,223.507 87.090 M291.301 142.600 C 291.305 143.480,291.387 143.793,291.483 143.295 C 291.579 142.798,291.575 142.078,291.475 141.695 C 291.375 141.313,291.296 141.720,291.301 142.600 M166.930 184.700 C 176.351 184.760,191.651 184.760,200.930 184.700 C 210.208 184.640,202.500 184.591,183.800 184.591 C 165.100 184.591,157.508 184.640,166.930 184.700 " stroke="none" fill="#aa9dbd" fill-rule="evenodd"></path><path id="path16" d="M137.269 87.100 C 152.817 87.158,178.377 87.158,194.069 87.100 C 209.761 87.042,197.040 86.995,165.800 86.995 C 134.560 86.995,121.721 87.042,137.269 87.100 M276.800 105.400 C 277.546 106.170,278.247 106.800,278.357 106.800 C 278.467 106.800,277.946 106.170,277.200 105.400 C 276.454 104.630,275.753 104.000,275.643 104.000 C 275.533 104.000,276.054 104.630,276.800 105.400 M167.300 120.300 C 177.145 120.359,193.255 120.359,203.100 120.300 C 212.945 120.240,204.890 120.192,185.200 120.192 C 165.510 120.192,157.455 120.240,167.300 120.300 M250.493 152.000 C 250.493 152.770,250.575 153.085,250.676 152.700 C 250.776 152.315,250.776 151.685,250.676 151.300 C 250.575 150.915,250.493 151.230,250.493 152.000 M241.978 175.100 L 240.600 176.600 242.100 175.222 C 243.496 173.938,243.784 173.600,243.478 173.600 C 243.412 173.600,242.737 174.275,241.978 175.100 M218.100 184.676 C 218.485 184.776,219.115 184.776,219.500 184.676 C 219.885 184.575,219.570 184.493,218.800 184.493 C 218.030 184.493,217.715 184.575,218.100 184.676 M168.100 213.900 C 178.165 213.959,194.635 213.959,204.700 213.900 C 214.765 213.840,206.530 213.792,186.400 213.792 C 166.270 213.792,158.035 213.840,168.100 213.900 M260.920 250.000 C 260.920 251.210,260.995 251.705,261.087 251.100 C 261.178 250.495,261.178 249.505,261.087 248.900 C 260.995 248.295,260.920 248.790,260.920 250.000 M301.728 255.600 C 301.728 257.030,301.801 257.615,301.889 256.900 C 301.978 256.185,301.978 255.015,301.889 254.300 C 301.801 253.585,301.728 254.170,301.728 255.600 M250.975 276.900 L 249.800 278.200 251.100 277.025 C 251.815 276.379,252.400 275.794,252.400 275.725 C 252.400 275.416,252.070 275.688,250.975 276.900 M168.870 287.100 C 179.358 287.159,196.638 287.159,207.270 287.100 C 217.901 287.041,209.320 286.992,188.200 286.992 C 167.080 286.992,158.381 287.041,168.870 287.100 M137.300 320.300 C 152.865 320.358,178.335 320.358,193.900 320.300 C 209.465 320.242,196.730 320.195,165.600 320.195 C 134.470 320.195,121.735 320.242,137.300 320.300 " stroke="none" fill="#b5aac5" fill-rule="evenodd"></path><path id="path17" d="M108.997 203.600 C 108.997 267.730,109.044 293.965,109.100 261.900 C 109.156 229.835,109.156 177.365,109.100 145.300 C 109.044 113.235,108.997 139.470,108.997 203.600 M221.505 120.283 C 222.002 120.379,222.722 120.375,223.105 120.275 C 223.487 120.175,223.080 120.096,222.200 120.101 C 221.320 120.105,221.007 120.187,221.505 120.283 M149.391 152.400 C 149.391 170.110,149.440 177.355,149.500 168.500 C 149.560 159.645,149.560 145.155,149.500 136.300 C 149.440 127.445,149.391 134.690,149.391 152.400 M290.901 141.000 C 290.905 141.880,290.987 142.193,291.083 141.695 C 291.179 141.198,291.175 140.478,291.075 140.095 C 290.975 139.713,290.896 140.120,290.901 141.000 M290.909 148.000 C 290.909 148.990,290.987 149.395,291.082 148.900 C 291.178 148.405,291.178 147.595,291.082 147.100 C 290.987 146.605,290.909 147.010,290.909 148.000 M250.501 149.400 C 250.505 150.280,250.587 150.593,250.683 150.095 C 250.779 149.598,250.775 148.878,250.675 148.495 C 250.575 148.113,250.496 148.520,250.501 149.400 M250.501 154.600 C 250.505 155.480,250.587 155.793,250.683 155.295 C 250.779 154.798,250.775 154.078,250.675 153.695 C 250.575 153.313,250.496 153.720,250.501 154.600 M167.130 185.100 C 176.662 185.160,192.142 185.160,201.530 185.100 C 210.919 185.040,203.120 184.991,184.200 184.991 C 165.280 184.991,157.599 185.040,167.130 185.100 M223.705 213.887 C 224.314 213.979,225.214 213.977,225.705 213.882 C 226.197 213.787,225.700 213.711,224.600 213.714 C 223.500 213.717,223.097 213.795,223.705 213.887 M149.294 250.476 C 149.242 270.428,149.335 286.836,149.500 286.938 C 149.772 287.106,149.769 261.234,149.494 227.200 C 149.436 220.050,149.346 230.524,149.294 250.476 M260.901 246.600 C 260.905 247.480,260.987 247.793,261.083 247.295 C 261.179 246.798,261.175 246.078,261.075 245.695 C 260.975 245.313,260.896 245.720,260.901 246.600 M301.320 250.800 C 301.320 252.010,301.395 252.505,301.487 251.900 C 301.578 251.295,301.578 250.305,301.487 249.700 C 301.395 249.095,301.320 249.590,301.320 250.800 M260.893 253.200 C 260.893 253.970,260.975 254.285,261.076 253.900 C 261.176 253.515,261.176 252.885,261.076 252.500 C 260.975 252.115,260.893 252.430,260.893 253.200 M301.301 259.400 C 301.305 260.280,301.387 260.593,301.483 260.095 C 301.579 259.598,301.575 258.878,301.475 258.495 C 301.375 258.113,301.296 258.520,301.301 259.400 M224.100 319.876 C 224.485 319.976,225.115 319.976,225.500 319.876 C 225.885 319.775,225.570 319.693,224.800 319.693 C 224.030 319.693,223.715 319.775,224.100 319.876 " stroke="none" fill="#d8d2e1" fill-rule="evenodd"></path><path id="path18" d="M232.900 87.876 C 233.285 87.976,233.915 87.976,234.300 87.876 C 234.685 87.775,234.370 87.693,233.600 87.693 C 232.830 87.693,232.515 87.775,232.900 87.876 M290.920 144.400 C 290.920 145.610,290.995 146.105,291.087 145.500 C 291.178 144.895,291.178 143.905,291.087 143.300 C 290.995 142.695,290.920 143.190,290.920 144.400 M261.301 249.800 C 261.305 250.680,261.387 250.993,261.483 250.495 C 261.579 249.998,261.575 249.278,261.475 248.895 C 261.375 248.513,261.296 248.920,261.301 249.800 M301.331 255.400 C 301.333 256.940,301.405 257.521,301.492 256.691 C 301.579 255.861,301.577 254.601,301.489 253.891 C 301.400 253.181,301.329 253.860,301.331 255.400 " stroke="none" fill="#e4e0ea" fill-rule="evenodd"></path><path id="path19" d="M223.507 87.490 C 224.226 87.579,225.306 87.577,225.907 87.486 C 226.508 87.395,225.920 87.322,224.600 87.324 C 223.280 87.326,222.788 87.401,223.507 87.490 M228.700 87.889 C 229.415 87.978,230.585 87.978,231.300 87.889 C 232.015 87.801,231.430 87.728,230.000 87.728 C 228.570 87.728,227.985 87.801,228.700 87.889 M149.280 120.080 C 148.735 120.625,148.558 184.603,149.100 184.938 C 149.265 185.040,149.400 170.516,149.400 152.662 L 149.400 120.200 183.800 119.997 L 218.200 119.793 183.980 119.697 C 157.789 119.623,149.647 119.713,149.280 120.080 M290.268 135.800 C 290.571 137.777,290.802 138.114,290.794 136.567 C 290.791 135.925,290.616 135.130,290.405 134.800 C 290.145 134.391,290.101 134.710,290.268 135.800 M250.514 145.400 C 250.517 146.500,250.595 146.903,250.687 146.295 C 250.779 145.686,250.777 144.786,250.682 144.295 C 250.587 143.803,250.511 144.300,250.514 145.400 M250.909 149.600 C 250.909 150.590,250.987 150.995,251.082 150.500 C 251.178 150.005,251.178 149.195,251.082 148.700 C 250.987 148.205,250.909 148.610,250.909 149.600 M290.493 152.000 C 290.493 152.770,290.575 153.085,290.676 152.700 C 290.776 152.315,290.776 151.685,290.676 151.300 C 290.575 150.915,290.493 151.230,290.493 152.000 M250.893 154.400 C 250.893 155.170,250.975 155.485,251.076 155.100 C 251.176 154.715,251.176 154.085,251.076 153.700 C 250.975 153.315,250.893 153.630,250.893 154.400 M250.509 158.000 C 250.509 158.990,250.587 159.395,250.682 158.900 C 250.778 158.405,250.778 157.595,250.682 157.100 C 250.587 156.605,250.509 157.010,250.509 158.000 M220.600 184.819 C 220.042 185.071,220.285 185.107,221.400 184.938 C 222.280 184.804,223.075 184.628,223.167 184.547 C 223.510 184.244,221.368 184.471,220.600 184.819 M149.067 213.867 C 148.696 214.237,148.729 286.709,149.100 286.938 C 149.265 287.040,149.400 270.581,149.400 250.362 C 149.400 230.143,149.385 213.600,149.367 213.600 C 149.348 213.600,149.213 213.720,149.067 213.867 M299.606 239.033 C 299.609 239.455,299.795 240.070,300.018 240.400 C 300.315 240.838,300.352 240.676,300.156 239.800 C 299.827 238.329,299.598 238.010,299.606 239.033 M261.293 247.200 C 261.293 247.970,261.375 248.285,261.476 247.900 C 261.576 247.515,261.576 246.885,261.476 246.500 C 261.375 246.115,261.293 246.430,261.293 247.200 M261.293 252.400 C 261.293 253.170,261.375 253.485,261.476 253.100 C 261.576 252.715,261.576 252.085,261.476 251.700 C 261.375 251.315,261.293 251.630,261.293 252.400 M225.900 319.493 C 226.835 319.577,228.365 319.577,229.300 319.493 C 230.235 319.409,229.470 319.340,227.600 319.340 C 225.730 319.340,224.965 319.409,225.900 319.493 M219.900 319.882 C 220.395 319.978,221.205 319.978,221.700 319.882 C 222.195 319.787,221.790 319.709,220.800 319.709 C 219.810 319.709,219.405 319.787,219.900 319.882 " stroke="none" fill="#f0edf3" fill-rule="evenodd"></path></g></svg>