<svg id="svg" version="1.1" width="150" height="150" viewBox="0 0 400 400" xmlns="http://www.w3.org/2000/svg" xmlns:xlink="http://www.w3.org/1999/xlink" ><g id="svgg"><path id="path0" d="" stroke="none" fill="#e44328" fill-rule="evenodd"></path><path id="path1" d="" stroke="none" fill="#e73d24" fill-rule="evenodd"></path><path id="path2" d="" stroke="none" fill="#e14b2d" fill-rule="evenodd"></path><path id="path3" d="" stroke="none" fill="#eb4733" fill-rule="evenodd"></path><path id="path4" d="" stroke="none" fill="#e94e21" fill-rule="evenodd"></path><path id="path5" d="" stroke="none" fill="#ff0000" fill-rule="evenodd"></path><path id="path6" d="M152.142 47.754 L 147.852 52.148 152.246 47.858 C 156.328 43.873,156.818 43.359,156.536 43.359 C 156.479 43.359,154.501 45.337,152.142 47.754 M156.055 60.547 C 160.563 65.059,164.339 68.750,164.446 68.750 C 164.554 68.750,160.953 65.059,156.445 60.547 C 151.937 56.035,148.161 52.344,148.054 52.344 C 147.946 52.344,151.547 56.035,156.055 60.547 M176.953 81.445 C 183.718 88.213,189.341 93.750,189.448 93.750 C 189.556 93.750,184.109 88.213,177.344 81.445 C 170.579 74.678,164.956 69.141,164.848 69.141 C 164.741 69.141,170.188 74.678,176.953 81.445 M106.441 93.457 L 99.414 100.586 106.543 93.559 C 113.166 87.030,113.848 86.328,113.570 86.328 C 113.514 86.328,110.306 89.536,106.441 93.457 " stroke="none" fill="#ea4e2f" fill-rule="evenodd"></path><path id="path7" d="" stroke="none" fill="#ec4c34" fill-rule="evenodd"></path><path id="path8" d="" stroke="none" fill="#ef4a29" fill-rule="evenodd"></path><path id="path9" d="" stroke="none" fill="#ff2424" fill-rule="evenodd"></path><path id="path10" d="" stroke="none" fill="#eb552d" fill-rule="evenodd"></path><path id="path11" d="M193.818 11.117 C 187.247 12.707,186.758 13.107,166.472 33.498 L 147.983 52.082 169.792 73.906 C 187.726 91.852,191.740 95.686,192.383 95.480 C 207.614 90.603,224.489 99.958,228.798 115.669 C 229.700 118.959,229.697 127.355,228.791 130.469 L 228.167 132.617 249.156 153.627 L 270.146 174.637 272.866 173.992 C 302.686 166.924,321.620 205.172,297.852 224.464 C 276.101 242.118,244.322 220.903,252.052 193.889 L 252.930 190.820 233.313 171.094 L 213.697 151.367 213.696 203.125 L 213.695 254.883 216.516 256.720 C 238.181 270.829,231.715 304.357,206.394 309.202 C 180.437 314.168,161.884 284.207,177.947 263.265 C 180.447 260.006,187.776 254.297,189.460 254.297 C 189.709 254.297,189.844 235.983,189.844 202.012 L 189.844 149.728 188.184 149.009 C 175.758 143.628,168.470 125.772,173.645 113.388 L 174.247 111.945 152.683 90.378 L 131.118 68.811 73.036 126.886 C 15.756 184.158,14.932 185.005,13.342 188.135 C 9.206 196.279,9.668 205.823,14.551 213.114 C 16.890 216.606,184.296 383.983,187.344 385.878 C 195.219 390.772,205.532 390.676,213.672 385.635 C 216.077 384.145,381.725 218.923,384.444 215.302 C 390.289 207.517,391.101 197.667,386.624 188.867 C 385.059 185.792,383.688 184.395,300.818 101.447 C 254.499 55.085,215.723 16.470,214.648 15.636 C 209.000 11.249,200.705 9.450,193.818 11.117 " stroke="none" fill="#f05133" fill-rule="evenodd"></path><path id="path12" d="" stroke="none" fill="#f24b36" fill-rule="evenodd"></path><path id="path13" d="M234.766 172.778 C 234.766 172.846,235.337 173.417,236.035 174.048 L 237.305 175.195 236.157 173.926 C 235.088 172.742,234.766 172.477,234.766 172.778 M244.141 182.153 C 244.141 182.221,244.712 182.792,245.410 183.423 L 246.680 184.570 245.532 183.301 C 244.463 182.117,244.141 181.852,244.141 182.153 M251.172 189.258 C 251.901 190.010,252.585 190.625,252.692 190.625 C 252.800 190.625,252.291 190.010,251.563 189.258 C 250.834 188.506,250.149 187.891,250.042 187.891 C 249.935 187.891,250.443 188.506,251.172 189.258 " stroke="none" fill="#f24c2e" fill-rule="evenodd"></path><path id="path14" d="" stroke="none" fill="#ff3333" fill-rule="evenodd"></path><path id="path15" d="M150.000 87.695 C 153.325 91.025,156.133 93.750,156.241 93.750 C 156.348 93.750,153.716 91.025,150.391 87.695 C 147.066 84.365,144.257 81.641,144.150 81.641 C 144.043 81.641,146.675 84.365,150.000 87.695 " stroke="none" fill="#ff3b14" fill-rule="evenodd"></path><path id="path16" d="" stroke="none" fill="#f94d35" fill-rule="evenodd"></path><path id="path17" d="M156.250 93.872 C 156.250 93.939,156.821 94.511,157.520 95.142 L 158.789 96.289 157.642 95.020 C 156.572 93.836,156.250 93.570,156.250 93.872 " stroke="none" fill="#ff4617" fill-rule="evenodd"></path><path id="path18" d="M190.033 201.953 C 190.033 230.635,190.080 242.368,190.137 228.027 C 190.193 213.687,190.193 190.220,190.137 175.879 C 190.080 161.538,190.033 173.271,190.033 201.953 " stroke="none" fill="#ff5500" fill-rule="evenodd"></path><path id="path19" d="M137.695 75.391 C 141.128 78.828,144.024 81.641,144.131 81.641 C 144.239 81.641,141.518 78.828,138.086 75.391 C 134.653 71.953,131.757 69.141,131.650 69.141 C 131.542 69.141,134.263 71.953,137.695 75.391 " stroke="none" fill="#ff5533" fill-rule="evenodd"></path></g></svg>