<svg id="svg" version="1.1" width="75" height="150" viewBox="0 0 400 884" xmlns="http://www.w3.org/2000/svg" xmlns:xlink="http://www.w3.org/1999/xlink" ><g id="svgg"><path id="path0" d="" stroke="none" fill="#000000" fill-rule="evenodd"></path><path id="path1" d="M274.956 228.964 C 274.568 229.802,274.631 229.977,275.456 230.353 C 280.824 232.799,262.094 234.866,245.597 233.647 C 237.212 233.028,233.877 231.982,235.784 230.570 C 237.115 229.584,235.283 227.991,233.877 228.913 C 231.650 230.372,232.381 233.979,235.200 235.435 C 240.492 238.169,271.011 238.001,276.716 235.206 C 279.791 233.700,280.050 230.254,277.198 228.799 C 275.291 227.826,275.490 227.811,274.956 228.964 " stroke="none" fill="#ffffff" fill-rule="evenodd"></path><path id="path2" d="" stroke="none" fill="#550000" fill-rule="evenodd"></path><path id="path3" d="" stroke="none" fill="#990000" fill-rule="evenodd"></path><path id="path4" d="" stroke="none" fill="#a21717" fill-rule="evenodd"></path><path id="path5" d="" stroke="none" fill="#993300" fill-rule="evenodd"></path><path id="path6" d="" stroke="none" fill="#b62424" fill-rule="evenodd"></path><path id="path7" d="" stroke="none" fill="#b13b14" fill-rule="evenodd"></path><path id="path8" d="M136.100 250.276 C 136.485 250.376,137.115 250.376,137.500 250.276 C 137.885 250.175,137.570 250.093,136.800 250.093 C 136.030 250.093,135.715 250.175,136.100 250.276 M138.900 250.276 C 139.285 250.376,139.915 250.376,140.300 250.276 C 140.685 250.175,140.370 250.093,139.600 250.093 C 138.830 250.093,138.515 250.175,138.900 250.276 M251.505 250.683 C 252.002 250.779,252.722 250.775,253.105 250.675 C 253.487 250.575,253.080 250.496,252.200 250.501 C 251.320 250.505,251.007 250.587,251.505 250.683 M281.709 380.400 C 281.709 381.390,281.787 381.795,281.882 381.300 C 281.978 380.805,281.978 379.995,281.882 379.500 C 281.787 379.005,281.709 379.410,281.709 380.400 M210.500 440.276 C 210.885 440.376,211.515 440.376,211.900 440.276 C 212.285 440.175,211.970 440.093,211.200 440.093 C 210.430 440.093,210.115 440.175,210.500 440.276 M169.491 688.289 C 170.201 688.377,171.461 688.379,172.291 688.292 C 173.121 688.205,172.540 688.133,171.000 688.131 C 169.460 688.129,168.781 688.200,169.491 688.289 M220.500 688.276 C 220.885 688.376,221.515 688.376,221.900 688.276 C 222.285 688.175,221.970 688.093,221.200 688.093 C 220.430 688.093,220.115 688.175,220.500 688.276 M223.300 688.276 C 223.685 688.376,224.315 688.376,224.700 688.276 C 225.085 688.175,224.770 688.093,224.000 688.093 C 223.230 688.093,222.915 688.175,223.300 688.276 M183.712 688.695 C 184.764 688.777,186.384 688.776,187.312 688.692 C 188.240 688.608,187.380 688.541,185.400 688.542 C 183.420 688.543,182.660 688.612,183.712 688.695 M206.311 688.693 C 207.251 688.778,208.691 688.777,209.511 688.691 C 210.330 688.605,209.560 688.536,207.800 688.537 C 206.040 688.539,205.370 688.609,206.311 688.693 " stroke="none" fill="#bb3333" fill-rule="evenodd"></path><path id="path9" d="M372.800 0.448 C 372.250 0.667,371.281 1.420,370.647 2.123 C 370.013 2.825,368.033 4.938,366.247 6.817 C 364.461 8.697,361.650 11.675,360.000 13.436 C 355.715 18.008,346.951 27.300,344.600 29.763 C 342.962 31.479,337.401 37.341,328.164 47.087 C 327.484 47.805,325.054 50.412,322.764 52.881 C 320.474 55.350,317.610 58.391,316.400 59.639 C 315.190 60.888,312.869 63.325,311.242 65.055 C 309.615 66.785,305.385 71.256,301.842 74.991 C 298.299 78.727,294.844 82.370,294.164 83.087 C 293.484 83.805,291.054 86.412,288.764 88.881 C 286.474 91.350,283.610 94.391,282.400 95.639 C 281.190 96.888,278.874 99.325,277.252 101.055 C 275.631 102.785,272.913 105.640,271.213 107.400 C 267.327 111.423,266.963 112.013,266.394 115.200 C 266.139 116.630,265.789 117.980,265.617 118.200 C 265.445 118.420,264.989 120.212,264.604 122.182 C 264.219 124.152,263.752 126.042,263.566 126.382 C 263.380 126.722,262.940 128.440,262.587 130.200 C 262.234 131.960,261.867 133.670,261.771 134.000 C 261.675 134.330,261.151 136.400,260.607 138.600 C 260.063 140.800,259.148 144.490,258.574 146.800 C 258.001 149.110,257.189 152.440,256.770 154.200 C 256.351 155.960,255.919 157.760,255.809 158.200 C 254.429 163.723,253.395 168.005,252.767 170.800 C 252.346 172.670,251.822 174.513,251.601 174.895 C 251.380 175.277,251.197 175.907,251.194 176.295 C 251.190 176.683,250.811 178.440,250.350 180.200 C 249.889 181.960,249.098 185.200,248.591 187.400 C 248.084 189.600,247.415 192.300,247.105 193.400 L 246.541 195.400 244.771 195.331 C 233.516 194.890,177.118 194.804,166.200 195.210 C 158.940 195.481,151.470 195.735,149.600 195.777 C 143.156 195.920,123.389 196.855,118.400 197.253 C 115.650 197.473,112.590 197.703,111.600 197.764 C 101.840 198.371,88.887 199.416,88.400 199.635 C 88.290 199.684,87.750 199.761,87.200 199.805 C 82.734 200.162,71.601 201.254,70.800 201.414 C 70.250 201.524,69.391 201.691,68.892 201.785 C 68.392 201.880,65.422 202.248,62.292 202.604 C 56.784 203.231,55.000 203.475,55.000 203.601 C 55.000 203.708,53.495 203.957,49.000 204.596 C 44.564 205.226,43.000 205.488,43.000 205.600 C 43.000 205.707,41.910 205.915,37.825 206.589 C 35.638 206.950,33.704 207.336,33.526 207.446 C 33.348 207.555,32.797 207.720,32.302 207.812 C 29.734 208.286,25.326 209.279,24.800 209.501 C 24.470 209.640,24.020 209.779,23.800 209.809 C 22.359 210.006,15.341 212.295,11.810 213.720 C 2.458 217.494,-1.245 222.365,2.153 226.423 C 3.156 227.622,7.259 230.800,7.803 230.800 C 7.910 230.800,9.141 231.340,10.538 232.000 C 11.935 232.660,13.335 233.200,13.650 233.200 C 13.964 233.200,14.577 233.443,15.011 233.741 C 15.445 234.038,17.150 234.603,18.800 234.995 C 20.450 235.388,21.996 235.863,22.236 236.050 C 22.475 236.238,24.095 236.674,25.836 237.020 C 27.576 237.365,29.270 237.754,29.600 237.884 C 30.568 238.266,30.825 238.322,34.600 238.977 C 36.580 239.321,38.830 239.793,39.600 240.027 C 40.370 240.260,43.160 240.783,45.800 241.189 C 48.440 241.594,51.140 242.046,51.800 242.192 C 52.460 242.338,55.610 242.787,58.800 243.189 C 61.990 243.591,65.050 244.028,65.600 244.160 C 66.150 244.293,70.290 244.765,74.800 245.211 C 79.310 245.656,83.270 246.097,83.600 246.190 C 84.332 246.396,87.162 246.655,96.800 247.398 C 100.870 247.712,105.100 248.062,106.200 248.176 C 110.320 248.604,113.233 248.792,121.800 249.187 C 126.640 249.410,132.220 249.694,134.200 249.819 C 136.180 249.944,139.150 250.119,140.800 250.208 C 142.450 250.296,145.680 250.471,147.977 250.595 C 166.756 251.610,235.413 251.486,255.200 250.401 C 259.270 250.178,266.380 249.823,271.000 249.612 C 275.620 249.401,280.840 249.134,282.600 249.018 C 284.360 248.903,287.510 248.701,289.600 248.570 C 291.690 248.440,293.940 248.253,294.600 248.156 C 295.260 248.059,299.310 247.717,303.600 247.396 C 311.796 246.782,315.934 246.411,317.600 246.141 C 318.150 246.052,321.120 245.719,324.200 245.402 C 331.755 244.623,333.100 244.453,335.200 244.013 C 336.190 243.805,338.980 243.432,341.400 243.183 C 343.820 242.935,346.970 242.482,348.400 242.178 C 349.830 241.873,352.530 241.429,354.400 241.190 C 356.270 240.951,358.520 240.562,359.400 240.325 C 360.280 240.088,363.070 239.487,365.600 238.988 C 372.730 237.584,377.674 236.434,378.158 236.067 C 378.401 235.883,379.680 235.505,381.000 235.228 C 382.320 234.951,383.760 234.506,384.200 234.240 C 384.640 233.973,385.775 233.530,386.722 233.255 C 394.220 231.078,400.073 225.926,399.360 222.130 C 398.626 218.216,387.188 211.878,377.800 210.184 C 376.920 210.025,375.902 209.741,375.537 209.553 C 375.173 209.365,373.373 208.925,371.537 208.575 C 369.702 208.225,367.840 207.776,367.400 207.577 C 366.960 207.377,364.710 206.932,362.400 206.586 C 360.090 206.241,357.930 205.851,357.600 205.719 C 356.710 205.364,348.896 204.035,347.200 203.950 C 346.870 203.933,345.970 203.767,345.200 203.579 C 344.430 203.392,341.190 202.947,338.000 202.590 C 334.810 202.233,331.750 201.850,331.200 201.740 C 329.792 201.457,315.793 200.002,313.500 199.899 C 312.455 199.853,311.600 199.715,311.600 199.593 C 311.600 199.470,311.105 199.337,310.500 199.298 C 309.895 199.258,305.260 198.929,300.200 198.568 C 295.140 198.207,290.100 197.867,289.000 197.813 C 284.245 197.579,281.947 197.114,282.221 196.441 C 282.364 196.088,282.818 194.223,283.229 192.296 C 283.640 190.369,284.138 188.479,284.335 188.096 C 284.532 187.713,284.922 186.140,285.200 184.600 C 285.478 183.060,285.866 181.491,286.060 181.113 C 286.255 180.735,286.753 178.845,287.168 176.913 C 287.582 174.981,288.498 171.240,289.203 168.600 C 289.909 165.960,290.747 162.630,291.067 161.200 C 291.387 159.770,291.810 158.240,292.006 157.800 C 292.203 157.360,292.729 155.380,293.174 153.400 C 294.681 146.699,295.975 141.426,296.363 140.411 C 296.575 139.855,297.036 138.140,297.388 136.600 C 297.739 135.060,298.425 132.332,298.913 130.539 L 299.800 127.277 306.000 120.750 C 309.410 117.159,313.370 113.028,314.800 111.569 C 316.230 110.111,318.904 107.316,320.742 105.358 C 325.665 100.116,333.113 92.220,335.400 89.818 C 339.185 85.843,345.016 79.731,352.200 72.208 C 356.160 68.061,359.940 64.088,360.600 63.379 C 362.016 61.859,372.123 51.197,375.000 48.189 C 376.100 47.039,378.350 44.673,380.000 42.931 C 390.572 31.772,395.611 26.486,397.100 24.993 C 399.359 22.728,398.953 16.754,396.408 14.800 C 396.264 14.690,395.594 13.790,394.917 12.800 C 393.431 10.625,388.646 6.098,385.813 4.189 C 380.657 0.712,375.712 -0.709,372.800 0.448 M236.300 228.527 C 237.319 230.024,237.424 230.653,236.700 230.912 C 231.092 232.915,266.571 233.997,273.868 232.045 C 275.048 231.730,275.637 230.800,274.657 230.800 C 273.625 230.800,273.477 229.995,274.246 228.566 C 275.065 227.046,275.514 226.928,277.185 227.792 C 280.921 229.724,280.939 233.906,277.221 235.788 C 270.915 238.979,240.001 239.068,234.341 235.912 C 231.277 234.204,231.000 229.816,233.843 227.998 C 235.361 227.028,235.265 227.007,236.300 228.527 M393.400 239.225 C 392.740 239.646,391.930 240.106,391.600 240.246 C 391.270 240.387,390.100 240.911,389.000 241.412 C 387.900 241.912,386.190 242.537,385.200 242.800 C 384.210 243.063,383.220 243.416,383.000 243.584 C 382.780 243.753,381.250 244.210,379.600 244.600 C 377.950 244.990,376.307 245.459,375.950 245.642 C 375.592 245.825,373.702 246.340,371.750 246.787 C 369.797 247.234,367.840 247.696,367.400 247.814 C 365.722 248.264,358.375 249.674,353.000 250.577 C 349.920 251.095,346.860 251.632,346.200 251.770 C 345.540 251.909,342.750 252.289,340.000 252.615 C 337.250 252.940,334.460 253.322,333.800 253.463 C 332.138 253.819,331.465 253.897,324.200 254.585 C 320.680 254.918,317.170 255.306,316.400 255.448 C 314.565 255.785,314.142 255.823,303.600 256.577 C 291.059 257.474,291.072 257.473,290.379 257.764 C 290.038 257.907,289.228 257.975,288.579 257.914 C 287.931 257.853,285.240 257.947,282.600 258.122 C 240.491 260.927,151.005 260.936,112.200 258.141 C 110.000 257.982,107.300 257.806,106.200 257.748 C 103.899 257.627,84.595 256.087,82.200 255.833 C 81.320 255.740,77.000 255.286,72.600 254.825 C 68.200 254.363,64.060 253.889,63.400 253.770 C 62.740 253.651,61.390 253.453,60.400 253.329 C 52.859 252.388,39.693 250.338,37.600 249.780 C 37.050 249.633,34.710 249.167,32.400 248.743 C 30.090 248.319,27.840 247.800,27.400 247.589 C 26.960 247.377,25.283 246.933,23.674 246.602 C 22.064 246.271,20.444 245.849,20.074 245.665 C 19.703 245.481,18.140 245.005,16.600 244.608 C 15.060 244.211,13.620 243.755,13.400 243.595 C 13.180 243.435,12.280 243.086,11.400 242.819 C 9.745 242.318,4.716 239.949,3.519 239.107 C 3.145 238.844,2.721 238.746,2.577 238.890 C 2.299 239.168,3.292 252.200,3.591 252.200 C 3.643 252.200,3.735 252.740,3.796 253.400 C 3.856 254.060,4.197 257.840,4.552 261.800 C 4.908 265.760,5.320 269.630,5.468 270.400 C 5.794 272.100,5.785 272.014,6.572 281.200 C 6.920 285.270,7.317 289.050,7.453 289.600 C 7.744 290.772,7.752 290.843,8.574 300.200 C 8.921 304.160,9.327 308.120,9.474 309.000 C 9.817 311.040,9.795 310.821,10.555 319.800 C 10.908 323.980,11.360 327.940,11.558 328.600 C 11.756 329.260,11.940 330.430,11.968 331.200 C 12.020 332.648,13.255 345.328,13.993 352.000 C 14.225 354.090,14.692 358.590,15.033 362.000 C 15.373 365.410,15.717 368.650,15.799 369.200 C 15.880 369.750,16.228 373.440,16.572 377.400 C 16.917 381.360,17.320 385.230,17.468 386.000 C 17.615 386.770,17.776 387.850,17.824 388.400 C 18.673 398.141,19.272 404.436,19.441 405.400 C 19.557 406.060,19.911 409.210,20.228 412.400 C 20.546 415.590,20.986 419.820,21.206 421.800 C 21.865 427.712,21.886 427.922,22.560 435.400 C 22.917 439.360,23.379 443.410,23.587 444.400 C 23.795 445.390,24.173 448.810,24.426 452.000 C 24.982 458.992,25.584 459.742,26.847 455.012 C 27.083 454.126,27.710 452.450,28.238 451.288 C 28.767 450.127,29.200 448.984,29.200 448.749 C 29.200 448.513,29.449 447.754,29.753 447.060 C 30.057 446.367,30.533 445.170,30.810 444.400 C 31.498 442.487,33.120 438.547,34.040 436.556 C 34.458 435.652,34.800 434.798,34.800 434.658 C 34.800 434.518,35.400 433.098,36.134 431.502 C 36.867 429.906,37.811 427.790,38.230 426.800 C 42.077 417.729,53.924 396.224,56.700 393.274 C 56.975 392.982,57.200 392.598,57.200 392.420 C 57.200 392.242,58.235 390.738,59.500 389.077 C 60.765 387.415,62.160 385.561,62.600 384.955 C 65.031 381.610,73.224 373.130,77.200 369.844 C 83.876 364.327,92.061 359.848,97.400 358.789 C 98.720 358.527,100.052 358.109,100.360 357.858 C 101.122 357.238,114.853 357.226,115.636 357.845 C 115.946 358.090,117.235 358.609,118.500 359.000 C 119.765 359.390,120.800 359.865,120.800 360.055 C 120.800 360.245,120.990 360.400,121.221 360.400 C 123.555 360.400,133.514 369.295,137.793 375.201 C 138.669 376.410,139.524 377.460,139.693 377.533 C 139.862 377.607,140.000 377.835,140.000 378.041 C 140.000 378.247,140.435 379.105,140.966 379.947 C 145.562 387.226,145.242 394.794,140.236 397.244 C 134.809 399.900,131.048 398.115,126.797 390.869 C 125.677 388.961,124.600 387.130,124.402 386.800 C 124.203 386.470,123.652 385.480,123.177 384.600 C 122.702 383.720,122.196 382.910,122.054 382.800 C 121.912 382.690,121.294 381.927,120.681 381.104 C 118.906 378.724,117.138 377.249,115.200 376.533 C 114.210 376.167,113.229 375.718,113.020 375.534 C 111.212 373.945,100.073 376.551,95.600 379.609 C 95.050 379.985,93.524 380.983,92.209 381.828 C 90.894 382.673,89.380 383.732,88.845 384.182 C 85.666 386.857,82.771 389.791,80.539 392.600 C 79.141 394.360,77.823 396.011,77.611 396.270 C 77.108 396.882,73.121 402.642,72.591 403.521 C 72.367 403.895,71.189 405.730,69.974 407.600 C 67.985 410.660,65.491 414.894,64.084 417.600 C 63.798 418.150,63.047 419.500,62.417 420.600 C 61.786 421.700,59.714 425.750,57.813 429.600 C 55.912 433.450,54.215 436.870,54.042 437.200 C 53.869 437.530,53.044 439.420,52.209 441.400 C 51.375 443.380,50.176 446.200,49.546 447.667 C 48.916 449.134,48.399 450.574,48.398 450.867 C 48.396 451.160,48.165 451.850,47.883 452.400 C 46.714 454.681,43.028 467.045,42.398 470.800 C 42.158 472.230,41.791 473.940,41.584 474.600 C 40.404 478.352,40.387 493.481,41.562 494.977 C 41.745 495.210,42.216 496.390,42.609 497.600 C 44.655 503.903,52.057 507.132,58.000 504.314 C 58.770 503.949,60.036 503.394,60.814 503.081 C 63.467 502.014,69.614 498.103,71.634 496.198 C 71.982 495.869,72.411 495.600,72.588 495.600 C 74.054 495.600,92.233 476.904,95.146 472.400 C 95.502 471.850,96.537 470.410,97.447 469.200 C 99.672 466.240,102.651 460.558,103.238 458.155 C 103.501 457.080,103.857 456.017,104.030 455.792 C 104.203 455.568,104.653 454.128,105.031 452.592 C 105.408 451.057,105.850 449.620,106.012 449.400 C 106.175 449.180,106.438 448.389,106.598 447.642 C 108.419 439.138,113.442 428.527,116.725 426.252 C 123.221 421.750,128.554 430.363,125.856 441.000 C 125.744 441.440,125.298 443.420,124.864 445.400 C 123.597 451.181,120.019 464.045,119.579 464.400 C 119.443 464.510,119.019 465.857,118.638 467.392 C 118.257 468.928,117.807 470.368,117.638 470.592 C 117.470 470.817,117.002 472.253,116.599 473.783 C 116.196 475.314,115.627 477.024,115.335 477.583 C 115.044 478.143,114.804 478.821,114.802 479.091 C 114.801 479.361,114.252 481.251,113.582 483.291 C 111.445 489.800,110.866 491.699,109.588 496.400 C 108.901 498.930,107.996 502.170,107.577 503.600 C 107.159 505.030,106.545 507.280,106.214 508.600 C 104.707 514.597,103.930 517.460,103.609 518.200 C 103.418 518.640,102.949 520.350,102.567 522.000 C 102.185 523.650,101.724 525.270,101.543 525.600 C 101.362 525.930,100.951 527.190,100.629 528.400 C 99.877 531.225,98.164 536.239,97.397 537.860 C 97.069 538.554,96.800 539.292,96.800 539.500 C 96.800 541.026,92.436 547.776,90.504 549.239 C 84.872 553.504,80.338 548.516,81.562 539.400 C 82.204 534.620,85.068 522.967,86.331 520.000 C 86.565 519.450,87.408 516.840,88.204 514.200 C 89.001 511.560,89.844 508.950,90.078 508.400 C 91.170 505.840,92.645 498.598,92.138 498.286 C 91.952 498.172,89.482 500.309,86.649 503.037 C 80.041 509.397,75.613 513.358,72.600 515.607 C 71.280 516.592,70.110 517.509,70.000 517.645 C 68.583 519.396,58.815 523.809,54.400 524.694 C 52.750 525.024,51.130 525.422,50.800 525.578 C 48.843 526.504,38.622 525.074,34.845 523.346 C 32.409 522.232,31.554 522.325,31.815 523.676 C 31.912 524.180,32.267 527.924,32.603 531.996 C 32.940 536.068,33.382 540.120,33.585 541.000 C 33.788 541.880,33.948 542.870,33.940 543.200 C 33.904 544.767,35.233 558.435,35.594 560.200 C 35.818 561.300,36.276 565.710,36.611 570.000 C 36.945 574.290,37.301 578.174,37.400 578.632 C 37.669 579.870,37.978 582.559,38.842 591.200 C 39.271 595.490,39.690 599.540,39.774 600.200 C 39.858 600.860,40.220 604.730,40.579 608.800 C 40.937 612.870,41.327 616.740,41.443 617.400 C 41.560 618.060,41.910 621.210,42.221 624.400 C 42.532 627.590,42.971 631.820,43.197 633.800 C 43.833 639.373,43.869 639.741,44.563 647.400 C 44.921 651.360,45.305 655.050,45.416 655.600 C 45.527 656.150,45.714 657.130,45.831 657.778 C 46.055 659.016,46.630 659.566,49.411 661.200 C 53.942 663.862,55.605 664.800,55.793 664.800 C 55.906 664.800,57.123 665.323,58.499 665.962 C 63.616 668.339,65.608 669.186,66.689 669.445 C 67.300 669.591,68.000 669.867,68.244 670.058 C 70.687 671.969,96.126 678.903,109.000 681.167 C 111.420 681.593,113.670 682.045,114.000 682.171 C 114.330 682.298,117.030 682.750,120.000 683.175 C 122.970 683.601,125.850 684.055,126.400 684.183 C 126.950 684.311,130.910 684.779,135.200 685.223 C 139.490 685.667,144.080 686.191,145.400 686.389 C 146.720 686.586,151.490 686.943,156.000 687.181 C 160.510 687.418,167.170 687.818,170.800 688.068 C 177.802 688.551,214.264 688.687,220.000 688.252 C 221.870 688.110,226.820 687.821,231.000 687.609 C 240.499 687.129,246.170 686.712,250.549 686.172 C 251.237 686.087,254.500 685.743,257.800 685.408 C 261.100 685.073,264.880 684.620,266.200 684.401 C 267.520 684.182,271.079 683.650,274.108 683.220 C 277.138 682.789,279.766 682.345,279.948 682.232 C 280.131 682.119,282.674 681.655,285.600 681.200 C 288.526 680.745,291.081 680.273,291.279 680.151 C 291.476 680.029,293.564 679.512,295.919 679.001 C 304.977 677.036,307.683 676.396,308.133 676.113 C 308.390 675.952,310.040 675.429,311.800 674.950 C 316.533 673.661,320.494 672.460,321.400 672.037 C 321.840 671.832,323.010 671.392,324.000 671.060 C 327.252 669.969,330.579 668.748,331.800 668.197 C 332.460 667.899,334.204 667.103,335.675 666.428 C 337.146 665.753,338.446 665.200,338.563 665.200 C 338.680 665.200,340.775 664.075,343.218 662.700 C 345.662 661.325,347.986 660.031,348.384 659.825 C 348.978 659.517,349.157 658.728,349.384 655.425 C 349.536 653.211,349.817 650.680,350.008 649.800 C 350.381 648.083,350.481 647.188,351.389 637.478 C 351.714 634.002,352.058 631.029,352.155 630.873 C 352.337 630.579,352.406 629.940,353.387 619.478 C 353.713 616.002,354.058 613.029,354.155 612.873 C 354.337 612.579,354.406 611.940,355.387 601.478 C 355.713 598.002,356.058 595.029,356.155 594.873 C 356.337 594.579,356.406 593.940,357.387 583.478 C 357.713 580.002,358.058 577.029,358.155 576.873 C 358.337 576.579,358.406 575.940,359.387 565.478 C 359.713 562.002,360.067 559.015,360.174 558.843 C 360.281 558.670,360.738 554.608,361.189 549.817 C 361.641 545.027,362.091 540.977,362.189 540.817 C 362.288 540.658,362.738 536.608,363.189 531.817 C 363.641 527.027,364.091 522.977,364.189 522.817 C 364.288 522.658,364.741 518.674,365.197 513.964 C 365.653 509.254,366.187 504.590,366.383 503.600 C 366.918 500.899,366.343 500.827,363.524 503.242 C 353.426 511.892,339.073 519.862,328.345 522.776 C 326.885 523.172,325.512 523.607,325.295 523.741 C 325.078 523.875,323.191 524.176,321.103 524.409 C 310.619 525.578,305.043 521.526,303.748 511.800 C 303.378 509.024,305.112 503.100,307.417 499.266 C 308.398 497.634,309.200 496.222,309.200 496.128 C 309.200 494.617,319.708 482.680,331.285 471.040 C 335.858 466.442,339.600 462.437,339.600 462.140 C 339.600 461.843,339.764 461.600,339.964 461.600 C 340.594 461.600,342.078 458.077,341.808 457.225 C 341.448 456.092,339.399 455.820,335.507 456.389 C 324.124 458.054,312.638 466.424,304.093 479.282 C 302.086 482.303,301.813 482.741,299.351 486.881 C 295.238 493.801,291.673 501.005,286.626 512.600 C 285.381 515.460,284.108 518.340,283.797 519.000 C 282.141 522.517,278.400 531.678,278.400 532.217 C 278.400 532.346,277.950 533.435,277.400 534.637 C 276.850 535.840,276.400 537.016,276.400 537.250 C 276.400 537.485,276.133 538.154,275.807 538.738 C 275.481 539.322,274.500 541.600,273.626 543.800 C 272.752 546.000,271.659 548.610,271.197 549.600 C 270.736 550.590,270.052 552.112,269.679 552.983 C 267.856 557.231,261.830 568.731,260.219 571.036 C 259.219 572.467,258.395 573.765,258.389 573.919 C 258.338 575.171,252.200 580.290,250.590 580.423 C 248.142 580.624,247.611 580.408,246.360 578.700 L 245.115 577.000 245.314 572.600 C 245.423 570.180,245.732 567.660,245.999 567.000 C 246.267 566.340,246.821 564.720,247.232 563.400 C 248.169 560.386,249.675 556.230,250.494 554.400 C 250.838 553.630,251.699 551.650,252.406 550.000 C 253.112 548.350,254.030 546.268,254.445 545.374 C 254.860 544.479,255.200 543.616,255.200 543.455 C 255.200 543.295,255.992 541.507,256.960 539.482 C 257.928 537.457,259.830 533.280,261.188 530.200 C 262.545 527.120,264.093 523.666,264.628 522.525 C 265.163 521.384,265.600 520.205,265.600 519.905 C 265.600 519.605,265.768 519.189,265.974 518.980 C 266.387 518.560,269.332 510.855,270.668 506.700 C 271.035 505.560,268.847 506.185,267.600 507.577 C 267.173 508.053,264.035 510.400,263.825 510.400 C 263.703 510.400,262.387 511.267,260.901 512.326 C 259.416 513.385,256.940 514.950,255.400 515.802 C 253.860 516.655,252.510 517.454,252.400 517.576 C 252.290 517.699,251.210 518.282,250.000 518.870 C 236.515 525.432,226.390 524.466,222.788 516.276 C 221.710 513.826,221.166 513.644,219.308 515.111 C 217.273 516.717,211.526 519.861,209.248 520.614 C 208.232 520.950,207.130 521.337,206.800 521.473 C 204.577 522.391,200.516 522.883,196.600 522.709 C 187.790 522.318,183.682 517.526,183.302 507.200 C 183.089 501.421,182.913 501.016,181.580 503.225 C 171.630 519.718,157.162 528.235,144.442 525.086 C 138.759 523.679,136.356 521.725,134.500 517.000 C 133.146 513.553,132.900 502.524,134.085 498.400 C 134.432 497.190,134.937 494.940,135.206 493.400 C 135.476 491.860,135.925 490.060,136.204 489.400 C 136.484 488.740,136.941 487.300,137.219 486.200 C 137.497 485.100,137.921 483.947,138.162 483.639 C 138.403 483.330,138.555 482.970,138.501 482.839 C 138.376 482.538,139.605 478.738,140.000 478.200 C 140.162 477.980,140.612 476.810,140.999 475.600 C 141.387 474.390,141.939 472.950,142.226 472.400 C 142.512 471.850,143.408 469.960,144.217 468.200 C 146.114 464.072,147.759 460.797,149.442 457.800 C 150.183 456.480,150.990 454.905,151.234 454.300 C 151.478 453.695,151.819 453.200,151.991 453.200 C 152.162 453.200,152.529 452.654,152.805 451.987 C 153.082 451.320,153.778 450.168,154.354 449.427 C 154.929 448.686,155.760 447.579,156.200 446.967 C 160.860 440.487,163.855 438.665,166.503 440.700 C 169.695 443.152,169.224 449.188,165.183 457.600 C 163.650 460.791,161.951 464.184,161.577 464.800 C 160.977 465.790,158.400 471.538,158.400 471.887 C 158.400 472.066,158.066 472.839,157.659 473.606 C 157.251 474.373,156.688 475.720,156.407 476.600 C 156.126 477.480,155.764 478.380,155.604 478.600 C 155.444 478.820,154.986 479.900,154.587 481.000 C 154.189 482.100,153.741 483.180,153.594 483.400 C 153.031 484.239,150.079 493.773,149.816 495.600 C 149.801 495.710,149.641 496.032,149.461 496.315 C 148.061 498.522,148.755 506.038,150.506 507.638 C 152.483 509.444,159.418 508.424,161.196 506.066 C 161.308 505.917,162.480 504.993,163.800 504.013 C 167.290 501.420,176.390 492.214,179.888 487.737 C 180.377 487.112,181.837 485.285,183.134 483.678 C 185.785 480.392,187.298 477.513,192.518 465.824 C 201.343 446.059,209.004 436.961,213.393 441.029 C 214.655 442.198,214.698 446.151,213.481 449.200 C 213.350 449.530,212.971 450.700,212.641 451.800 C 211.842 454.456,210.155 458.992,209.183 461.096 C 208.752 462.028,208.400 463.023,208.400 463.307 C 208.400 463.590,208.157 464.177,207.861 464.611 C 207.564 465.045,206.993 466.300,206.592 467.400 C 206.191 468.500,205.733 469.580,205.575 469.800 C 205.416 470.020,205.005 471.010,204.660 472.000 C 203.988 473.931,202.191 478.488,201.584 479.800 C 200.708 481.696,198.629 488.633,197.749 492.600 C 194.786 505.950,199.623 510.848,210.941 505.957 C 213.948 504.658,216.781 502.945,217.320 502.101 C 217.496 501.826,217.874 501.600,218.161 501.600 C 220.155 501.600,224.182 494.995,225.233 490.000 C 225.487 488.790,225.848 487.509,226.033 487.153 C 226.219 486.798,226.664 485.088,227.021 483.353 C 227.379 481.619,227.811 480.020,227.981 479.800 C 228.151 479.580,228.610 478.050,229.000 476.400 C 229.390 474.750,229.845 473.220,230.012 473.000 C 230.178 472.780,230.631 471.430,231.020 470.000 C 231.408 468.570,231.853 467.220,232.010 467.000 C 232.166 466.780,232.604 465.610,232.982 464.400 C 233.361 463.190,233.925 461.633,234.235 460.940 C 234.546 460.246,234.800 459.551,234.800 459.395 C 234.800 459.004,237.541 452.031,238.179 450.800 C 238.464 450.250,238.927 449.080,239.209 448.200 C 239.491 447.320,239.945 446.240,240.219 445.800 C 240.493 445.360,240.847 444.550,241.005 444.000 C 241.164 443.450,241.723 442.050,242.247 440.888 C 242.771 439.727,243.200 438.674,243.200 438.549 C 243.200 438.423,243.449 437.754,243.753 437.060 C 244.056 436.367,244.886 434.270,245.597 432.400 C 248.009 426.053,249.683 421.805,250.442 420.104 C 250.859 419.172,251.201 418.182,251.202 417.904 C 251.204 417.627,251.453 416.925,251.755 416.345 C 252.058 415.765,252.617 414.325,252.998 413.145 C 253.379 411.965,253.905 410.640,254.166 410.200 C 254.428 409.760,254.895 408.590,255.204 407.600 C 255.514 406.610,256.089 405.260,256.482 404.600 C 256.875 403.940,257.199 403.130,257.202 402.800 C 257.205 402.470,257.650 401.300,258.191 400.200 C 258.732 399.100,259.181 398.034,259.187 397.832 C 259.223 396.784,265.532 383.627,268.031 379.391 C 270.154 375.791,274.021 371.633,275.335 371.537 C 277.802 371.356,279.959 372.679,280.775 374.876 C 281.045 375.604,281.441 376.527,281.654 376.927 C 282.508 378.531,281.061 390.264,279.623 393.400 C 279.421 393.840,279.046 394.920,278.789 395.800 C 278.011 398.465,274.205 408.188,273.622 409.000 C 273.464 409.220,273.096 410.030,272.805 410.800 C 272.513 411.570,271.853 413.150,271.338 414.312 C 270.822 415.473,270.400 416.535,270.400 416.672 C 270.400 416.808,269.960 417.838,269.422 418.960 C 267.890 422.157,266.400 425.527,266.400 425.794 C 266.400 425.928,265.750 427.424,264.956 429.118 C 264.162 430.813,263.166 433.100,262.743 434.200 C 262.319 435.300,261.719 436.740,261.408 437.400 C 260.087 440.203,258.800 443.169,258.800 443.411 C 258.800 443.554,258.260 444.837,257.600 446.263 C 256.940 447.689,256.400 449.073,256.400 449.339 C 256.400 449.605,256.162 450.177,255.871 450.611 C 255.580 451.045,255.103 452.030,254.811 452.800 C 254.519 453.570,254.050 454.740,253.770 455.400 C 252.331 458.783,251.067 462.008,250.476 463.800 C 250.113 464.900,249.697 465.890,249.552 466.000 C 249.407 466.110,249.054 467.010,248.767 468.000 C 248.480 468.990,248.031 470.160,247.768 470.600 C 247.505 471.040,246.984 472.390,246.610 473.600 C 246.236 474.810,245.697 476.340,245.412 477.000 C 245.127 477.660,244.681 478.920,244.419 479.800 C 244.158 480.680,243.784 481.760,243.589 482.200 C 243.393 482.640,242.790 484.357,242.248 486.016 C 238.078 498.774,237.696 506.315,241.216 506.387 C 241.782 506.399,253.160 502.815,255.000 502.045 C 271.988 494.939,283.367 481.804,289.170 462.600 C 289.569 461.280,290.161 459.570,290.485 458.800 C 290.809 458.030,291.209 456.680,291.373 455.800 C 291.537 454.920,291.818 454.020,291.998 453.800 C 292.177 453.580,292.641 452.410,293.029 451.200 C 295.675 442.943,301.071 440.528,305.395 445.667 C 306.566 447.059,306.823 454.284,305.750 455.648 C 304.028 457.836,305.239 458.659,307.296 456.700 C 313.214 451.061,319.034 446.979,325.800 443.720 C 326.900 443.190,328.151 442.563,328.579 442.326 C 332.416 440.202,341.300 438.500,345.273 439.129 C 352.898 440.335,357.750 447.848,356.426 456.400 C 355.914 459.710,355.829 460.113,355.541 460.600 C 355.411 460.820,355.075 461.712,354.794 462.583 C 354.034 464.939,350.470 471.534,349.312 472.729 C 349.031 473.019,348.800 473.390,348.800 473.553 C 348.800 473.716,348.485 474.199,348.100 474.626 C 347.715 475.053,346.638 476.405,345.706 477.630 C 342.347 482.048,339.110 485.584,328.620 496.294 C 320.837 504.240,320.007 505.258,320.003 506.857 C 319.999 508.231,322.308 509.047,323.420 508.065 C 323.629 507.880,324.970 507.521,326.400 507.268 C 328.743 506.852,333.460 505.174,335.438 504.052 C 335.857 503.815,336.830 503.355,337.600 503.031 C 339.762 502.122,345.493 498.950,347.970 497.292 C 349.197 496.471,350.497 495.620,350.861 495.400 C 351.509 495.007,355.651 491.872,358.389 489.702 C 360.075 488.366,366.608 481.896,368.064 480.121 C 368.935 479.059,369.159 478.280,369.382 475.521 C 369.530 473.694,369.837 471.120,370.063 469.800 C 370.290 468.480,370.812 464.070,371.225 460.000 C 371.637 455.930,372.081 451.880,372.213 451.000 C 372.344 450.120,372.796 446.070,373.217 442.000 C 373.638 437.930,374.088 433.880,374.217 433.000 C 374.346 432.120,374.796 428.070,375.217 424.000 C 375.638 419.930,376.088 415.880,376.217 415.000 C 376.346 414.120,376.796 410.070,377.217 406.000 C 377.638 401.930,378.088 397.880,378.217 397.000 C 378.346 396.120,378.796 392.070,379.217 388.000 C 379.638 383.930,380.088 379.880,380.217 379.000 C 380.346 378.120,380.796 374.070,381.217 370.000 C 381.638 365.930,382.088 361.880,382.217 361.000 C 382.346 360.120,382.796 356.070,383.217 352.000 C 383.638 347.930,384.088 343.880,384.218 343.000 C 384.348 342.120,384.788 338.160,385.196 334.200 C 387.300 313.786,387.625 310.814,387.992 308.600 C 388.211 307.280,388.661 303.230,388.991 299.600 C 389.322 295.970,389.772 291.920,389.991 290.600 C 390.211 289.280,390.661 285.230,390.991 281.600 C 391.322 277.970,391.772 273.920,391.991 272.600 C 392.211 271.280,392.662 267.230,392.995 263.600 C 393.328 259.970,393.787 255.830,394.013 254.400 C 394.444 251.687,395.600 240.621,395.600 239.211 C 395.600 238.217,394.972 238.221,393.400 239.225 M333.200 678.209 C 329.790 679.387,326.100 680.565,325.000 680.828 C 323.900 681.090,322.820 681.412,322.600 681.542 C 322.380 681.671,322.020 681.808,321.800 681.846 C 321.580 681.884,319.960 682.309,318.200 682.791 C 304.126 686.648,287.111 690.082,269.400 692.642 C 265.660 693.182,262.150 693.697,261.600 693.786 C 261.050 693.875,256.730 694.328,252.000 694.792 C 247.270 695.257,242.770 695.708,242.000 695.796 C 237.640 696.291,212.683 697.441,201.349 697.669 C 193.037 697.836,165.094 696.751,152.600 695.776 C 149.479 695.532,135.379 694.034,134.000 693.800 C 133.230 693.669,129.810 693.197,126.400 692.751 C 122.990 692.305,119.840 691.862,119.400 691.767 C 118.960 691.672,116.440 691.253,113.800 690.835 C 111.160 690.418,108.460 689.953,107.800 689.802 C 107.140 689.651,104.350 689.103,101.600 688.583 C 92.388 686.843,77.808 683.315,71.200 681.227 C 69.770 680.776,68.330 680.404,68.000 680.401 C 67.670 680.398,66.950 680.161,66.400 679.876 C 65.850 679.590,64.500 679.114,63.400 678.819 C 62.300 678.524,60.635 677.944,59.700 677.531 C 58.765 677.118,57.444 676.669,56.764 676.533 L 55.529 676.286 56.577 678.243 C 57.154 679.319,58.149 681.010,58.788 682.000 C 59.427 682.990,60.210 684.250,60.526 684.800 C 62.978 689.055,63.793 690.425,64.809 692.000 C 65.448 692.990,66.250 694.340,66.593 695.000 C 66.935 695.660,67.833 697.190,68.588 698.400 C 69.342 699.610,70.336 701.230,70.795 702.000 C 71.254 702.770,72.061 704.120,72.588 705.000 C 73.116 705.880,73.907 707.244,74.346 708.031 C 74.786 708.818,75.850 710.528,76.711 711.831 C 77.571 713.134,78.528 714.685,78.838 715.277 C 79.147 715.869,79.983 717.348,80.696 718.564 L 81.992 720.773 82.601 731.887 C 82.936 737.999,83.319 743.810,83.453 744.800 C 83.725 746.821,83.682 746.166,84.555 761.400 C 84.908 767.560,85.308 773.320,85.444 774.200 C 85.739 776.102,85.775 776.647,86.569 790.800 C 86.909 796.850,87.373 803.150,87.601 804.800 C 87.829 806.450,88.283 813.290,88.609 820.000 C 88.936 826.710,89.383 833.280,89.602 834.600 C 89.820 835.920,90.257 842.040,90.571 848.200 C 91.228 861.072,91.387 861.630,95.332 864.915 C 98.411 867.478,104.865 871.192,106.257 871.202 C 106.446 871.204,107.101 871.466,107.713 871.786 C 109.219 872.571,118.581 875.600,119.503 875.600 C 119.908 875.600,120.411 875.767,120.620 875.971 C 120.829 876.175,122.956 876.717,125.346 877.176 C 127.737 877.635,129.829 878.094,129.995 878.197 C 130.162 878.300,132.436 878.735,135.049 879.164 C 137.662 879.592,140.610 880.121,141.600 880.339 C 142.590 880.557,145.470 880.937,148.000 881.184 C 150.530 881.430,154.220 881.886,156.200 882.196 C 169.260 884.242,227.390 884.504,241.000 882.577 C 244.501 882.082,245.931 881.903,251.822 881.221 C 255.354 880.813,258.954 880.288,259.822 880.055 C 260.690 879.821,263.290 879.345,265.600 878.995 C 267.910 878.646,270.070 878.251,270.400 878.117 C 270.730 877.984,272.800 877.473,275.000 876.983 C 280.446 875.769,285.144 874.479,286.660 873.780 C 287.354 873.461,288.105 873.200,288.330 873.200 C 290.932 873.200,301.493 867.607,304.940 864.403 C 308.625 860.979,308.587 861.150,309.422 844.034 C 309.759 837.122,310.097 831.362,310.173 831.234 C 310.327 830.974,310.556 827.281,311.399 811.400 C 311.715 805.460,312.051 799.790,312.147 798.800 C 312.416 796.013,312.782 789.992,313.413 778.000 C 313.732 771.950,314.166 764.660,314.379 761.800 C 314.592 758.940,315.052 750.945,315.401 744.034 C 315.749 737.122,316.098 731.362,316.175 731.234 C 316.253 731.105,316.427 728.840,316.563 726.200 C 316.982 718.047,317.257 715.856,317.993 714.800 C 318.376 714.250,319.448 712.450,320.375 710.800 C 321.302 709.150,323.033 706.180,324.222 704.200 C 325.411 702.220,326.757 699.880,327.213 699.000 C 327.669 698.120,328.570 696.590,329.215 695.600 C 329.860 694.610,330.609 693.350,330.880 692.800 C 331.151 692.250,331.784 691.243,332.286 690.562 C 332.789 689.881,333.200 689.177,333.200 688.996 C 333.200 688.815,333.980 687.392,334.934 685.834 C 337.661 681.378,340.400 676.508,340.400 676.115 C 340.400 675.805,338.905 676.240,333.200 678.209 " stroke="none" fill="#d34a47" fill-rule="evenodd"></path><path id="path10" d="M154.300 195.482 C 154.795 195.578,155.605 195.578,156.100 195.482 C 156.595 195.387,156.190 195.309,155.200 195.309 C 154.210 195.309,153.805 195.387,154.300 195.482 M244.305 195.483 C 244.802 195.579,245.522 195.575,245.905 195.475 C 246.287 195.375,245.880 195.296,245.000 195.301 C 244.120 195.305,243.807 195.387,244.305 195.483 M144.300 195.882 C 144.795 195.978,145.605 195.978,146.100 195.882 C 146.595 195.787,146.190 195.709,145.200 195.709 C 144.210 195.709,143.805 195.787,144.300 195.882 M150.705 195.883 C 151.202 195.979,151.922 195.975,152.305 195.875 C 152.687 195.775,152.280 195.696,151.400 195.701 C 150.520 195.705,150.207 195.787,150.705 195.883 M143.105 259.483 C 143.602 259.579,144.322 259.575,144.705 259.475 C 145.087 259.375,144.680 259.296,143.800 259.301 C 142.920 259.305,142.607 259.387,143.105 259.483 M250.305 259.483 C 250.802 259.579,251.522 259.575,251.905 259.475 C 252.287 259.375,251.880 259.296,251.000 259.301 C 250.120 259.305,249.807 259.387,250.305 259.483 M147.100 259.882 C 147.595 259.978,148.405 259.978,148.900 259.882 C 149.395 259.787,148.990 259.709,148.000 259.709 C 147.010 259.709,146.605 259.787,147.100 259.882 M156.300 259.889 C 157.015 259.978,158.185 259.978,158.900 259.889 C 159.615 259.801,159.030 259.728,157.600 259.728 C 156.170 259.728,155.585 259.801,156.300 259.889 M236.307 259.890 C 237.026 259.979,238.106 259.977,238.707 259.886 C 239.308 259.795,238.720 259.722,237.400 259.724 C 236.080 259.726,235.588 259.801,236.307 259.890 M245.700 259.887 C 246.305 259.978,247.295 259.978,247.900 259.887 C 248.505 259.795,248.010 259.720,246.800 259.720 C 245.590 259.720,245.095 259.795,245.700 259.887 M188.500 697.496 C 189.765 697.575,191.835 697.575,193.100 697.496 C 194.365 697.416,193.330 697.351,190.800 697.351 C 188.270 697.351,187.235 697.416,188.500 697.496 M202.515 697.496 C 203.788 697.576,205.768 697.575,206.915 697.494 C 208.062 697.414,207.020 697.349,204.600 697.350 C 202.180 697.351,201.242 697.416,202.515 697.496 M197.105 697.883 C 197.602 697.979,198.322 697.975,198.705 697.875 C 199.087 697.775,198.680 697.696,197.800 697.701 C 196.920 697.705,196.607 697.787,197.105 697.883 " stroke="none" fill="#e44328" fill-rule="evenodd"></path><path id="path11" d="" stroke="none" fill="#ff0000" fill-rule="evenodd"></path><path id="path12" d="M162.100 259.891 C 162.925 259.978,164.275 259.978,165.100 259.891 C 165.925 259.805,165.250 259.734,163.600 259.734 C 161.950 259.734,161.275 259.805,162.100 259.891 M230.100 259.891 C 230.925 259.978,232.275 259.978,233.100 259.891 C 233.925 259.805,233.250 259.734,231.600 259.734 C 229.950 259.734,229.275 259.805,230.100 259.891 " stroke="none" fill="#ff3333" fill-rule="evenodd"></path><path id="path13" d="M245.705 233.087 C 246.314 233.179,247.214 233.177,247.705 233.082 C 248.197 232.987,247.700 232.911,246.600 232.914 C 245.500 232.917,245.097 232.995,245.705 233.087 M263.700 233.087 C 264.305 233.178,265.295 233.178,265.900 233.087 C 266.505 232.995,266.010 232.920,264.800 232.920 C 263.590 232.920,263.095 232.995,263.700 233.087 M251.900 233.498 C 253.715 233.572,256.685 233.572,258.500 233.498 C 260.315 233.423,258.830 233.363,255.200 233.363 C 251.570 233.363,250.085 233.423,251.900 233.498 M251.911 238.293 C 252.851 238.378,254.291 238.377,255.111 238.291 C 255.930 238.205,255.160 238.136,253.400 238.137 C 251.640 238.139,250.970 238.209,251.911 238.293 " stroke="none" fill="#dc706e" fill-rule="evenodd"></path><path id="path14" d="" stroke="none" fill="#e28886" fill-rule="evenodd"></path><path id="path15" d="M246.500 233.476 C 246.885 233.576,247.515 233.576,247.900 233.476 C 248.285 233.375,247.970 233.293,247.200 233.293 C 246.430 233.293,246.115 233.375,246.500 233.476 M263.300 233.476 C 263.685 233.576,264.315 233.576,264.700 233.476 C 265.085 233.375,264.770 233.293,264.000 233.293 C 263.230 233.293,262.915 233.375,263.300 233.476 " stroke="none" fill="#e8a09f" fill-rule="evenodd"></path><path id="path16" d="M246.691 237.889 C 247.401 237.977,248.661 237.979,249.491 237.892 C 250.321 237.805,249.740 237.733,248.200 237.731 C 246.660 237.729,245.981 237.800,246.691 237.889 M257.700 237.891 C 258.525 237.978,259.875 237.978,260.700 237.891 C 261.525 237.805,260.850 237.734,259.200 237.734 C 257.550 237.734,256.875 237.805,257.700 237.891 " stroke="none" fill="#eeb9b8" fill-rule="evenodd"></path><path id="path17" d="" stroke="none" fill="#f3cecd" fill-rule="evenodd"></path><path id="path18" d="M256.705 233.883 C 257.202 233.979,257.922 233.975,258.305 233.875 C 258.687 233.775,258.280 233.696,257.400 233.701 C 256.520 233.705,256.207 233.787,256.705 233.883 M264.305 237.483 C 264.802 237.579,265.522 237.575,265.905 237.475 C 266.287 237.375,265.880 237.296,265.000 237.301 C 264.120 237.305,263.807 237.387,264.305 237.483 M252.300 237.889 C 253.015 237.978,254.185 237.978,254.900 237.889 C 255.615 237.801,255.030 237.728,253.600 237.728 C 252.170 237.728,251.585 237.801,252.300 237.889 " stroke="none" fill="#f6dedd" fill-rule="evenodd"></path><path id="path19" d="M246.112 237.495 C 247.164 237.577,248.784 237.576,249.712 237.492 C 250.640 237.408,249.780 237.341,247.800 237.342 C 245.820 237.343,245.060 237.412,246.112 237.495 M257.913 237.495 C 259.076 237.576,260.876 237.576,261.913 237.493 C 262.951 237.411,262.000 237.345,259.800 237.346 C 257.600 237.347,256.751 237.414,257.913 237.495 " stroke="none" fill="#fbefef" fill-rule="evenodd"></path></g></svg>