<svg id="svg" version="1.1"  width="150" height="150" viewBox="0 0 400 96.50000000000001" xmlns="http://www.w3.org/2000/svg" xmlns:xlink="http://www.w3.org/1999/xlink" ><g id="svgg"><path id="path0" d="M190.166 15.749 C 190.381 15.978,190.588 16.134,190.626 16.097 C 190.708 16.014,190.049 15.333,189.888 15.333 C 189.826 15.333,189.951 15.521,190.166 15.749 M194.500 20.343 C 194.500 20.394,194.688 20.689,194.917 21.000 C 195.146 21.311,195.333 21.487,195.333 21.392 C 195.333 21.296,195.146 21.001,194.917 20.734 C 194.688 20.468,194.500 20.292,194.500 20.343 M392.167 23.615 C 392.167 23.707,392.317 23.917,392.500 24.083 C 392.683 24.249,392.833 24.347,392.833 24.301 C 392.833 24.255,392.683 24.045,392.500 23.833 C 392.317 23.622,392.167 23.524,392.167 23.615 M314.333 28.885 C 314.333 28.914,314.558 29.153,314.833 29.417 C 315.435 29.993,315.498 29.893,314.925 29.274 C 314.561 28.882,314.333 28.732,314.333 28.885 M322.250 36.333 C 323.204 37.298,323.333 37.409,323.333 37.268 C 323.333 37.151,321.496 35.333,321.377 35.333 C 321.313 35.333,321.706 35.783,322.250 36.333 M399.056 37.238 C 399.161 37.460,399.273 37.616,399.305 37.584 C 399.409 37.480,399.149 36.833,399.004 36.833 C 398.928 36.833,398.951 37.015,399.056 37.238 M328.833 42.385 C 328.833 42.414,329.058 42.653,329.333 42.917 C 329.935 43.493,329.998 43.393,329.425 42.774 C 329.061 42.382,328.833 42.232,328.833 42.385 M27.056 45.738 C 27.161 45.960,27.273 46.116,27.305 46.084 C 27.409 45.980,27.149 45.333,27.004 45.333 C 26.928 45.333,26.951 45.515,27.056 45.738 M332.833 45.885 C 332.833 45.914,333.058 46.153,333.333 46.417 C 333.935 46.993,333.998 46.893,333.425 46.274 C 333.061 45.882,332.833 45.732,332.833 45.885 " stroke="none" fill="#000000" fill-rule="evenodd"></path><path id="path1" d="" stroke="none" fill="#141414" fill-rule="evenodd"></path><path id="path2" d="M357.721 38.250 C 357.722 38.892,357.752 39.134,357.788 38.788 C 357.824 38.442,357.824 37.917,357.787 37.621 C 357.750 37.325,357.721 37.608,357.721 38.250 " stroke="none" fill="#240000" fill-rule="evenodd"></path><path id="path3" d="" stroke="none" fill="#171700" fill-rule="evenodd"></path><path id="path4" d="M50.209 30.250 C 50.211 30.617,50.245 30.747,50.285 30.540 C 50.324 30.332,50.323 30.032,50.281 29.873 C 50.239 29.714,50.207 29.883,50.209 30.250 M26.728 42.917 C 26.728 43.833,26.756 44.187,26.790 43.703 C 26.824 43.218,26.823 42.468,26.789 42.036 C 26.755 41.604,26.727 42.000,26.728 42.917 " stroke="none" fill="#2d0f0f" fill-rule="evenodd"></path><path id="path5" d="" stroke="none" fill="#2c1a09" fill-rule="evenodd"></path><path id="path6" d="" stroke="none" fill="#24240c" fill-rule="evenodd"></path><path id="path7" d="" stroke="none" fill="#3b1414" fill-rule="evenodd"></path><path id="path8" d="" stroke="none" fill="#331f1f" fill-rule="evenodd"></path><path id="path9" d="" stroke="none" fill="#37210b" fill-rule="evenodd"></path><path id="path10" d="" stroke="none" fill="#352617" fill-rule="evenodd"></path><path id="path11" d="" stroke="none" fill="#2c2c1a" fill-rule="evenodd"></path><path id="path12" d="" stroke="none" fill="#3c2222" fill-rule="evenodd"></path><path id="path13" d="" stroke="none" fill="#3c2214" fill-rule="evenodd"></path><path id="path14" d="" stroke="none" fill="#3d240c" fill-rule="evenodd"></path><path id="path15" d="" stroke="none" fill="#372b23" fill-rule="evenodd"></path><path id="path16" d="" stroke="none" fill="#372d19" fill-rule="evenodd"></path><path id="path17" d="M357.555 38.250 C 357.555 38.892,357.586 39.134,357.622 38.788 C 357.658 38.442,357.657 37.917,357.620 37.621 C 357.583 37.325,357.554 37.608,357.555 38.250 M188.500 54.806 C 188.500 54.913,188.331 55.009,188.125 55.019 C 187.816 55.035,187.805 55.053,188.059 55.118 C 188.392 55.204,188.802 54.913,188.614 54.725 C 188.551 54.662,188.500 54.699,188.500 54.806 " stroke="none" fill="#3d2a18" fill-rule="evenodd"></path><path id="path18" d="" stroke="none" fill="#402315" fill-rule="evenodd"></path><path id="path19" d="" stroke="none" fill="#412a1e" fill-rule="evenodd"></path><path id="path20" d="" stroke="none" fill="#323215" fill-rule="evenodd"></path><path id="path21" d="" stroke="none" fill="#3e2e26" fill-rule="evenodd"></path><path id="path22" d="M50.042 30.250 C 50.044 30.617,50.078 30.747,50.118 30.540 C 50.158 30.332,50.156 30.032,50.115 29.873 C 50.073 29.714,50.040 29.883,50.042 30.250 M26.559 42.917 C 26.559 43.742,26.587 44.100,26.622 43.713 C 26.657 43.327,26.657 42.652,26.623 42.213 C 26.588 41.775,26.560 42.092,26.559 42.917 M195.719 54.625 C 197.444 54.652,200.219 54.652,201.886 54.625 C 203.553 54.598,202.142 54.575,198.750 54.575 C 195.358 54.575,193.994 54.598,195.719 54.625 " stroke="none" fill="#3d2f24" fill-rule="evenodd"></path><path id="path23" d="M42.375 38.250 C 42.377 38.617,42.411 38.747,42.451 38.540 C 42.491 38.332,42.490 38.032,42.448 37.873 C 42.406 37.714,42.374 37.883,42.375 38.250 " stroke="none" fill="#3c2f22" fill-rule="evenodd"></path><path id="path24" d="" stroke="none" fill="#412d24" fill-rule="evenodd"></path><path id="path25" d="" stroke="none" fill="#412d23" fill-rule="evenodd"></path><path id="path26" d="M140.167 0.167 C 140.167 0.258,140.317 0.333,140.500 0.333 C 140.683 0.333,140.833 0.258,140.833 0.167 C 140.833 0.075,140.683 0.000,140.500 0.000 C 140.317 0.000,140.167 0.075,140.167 0.167 M134.375 1.020 C 134.077 1.106,133.833 1.220,133.833 1.273 C 133.833 1.409,134.717 1.175,134.908 0.988 C 135.089 0.811,135.099 0.811,134.375 1.020 M160.665 1.024 C 160.919 1.296,161.333 1.367,161.333 1.139 C 161.333 1.063,161.264 1.000,161.180 1.000 C 161.096 1.000,160.892 0.948,160.727 0.885 C 160.465 0.784,160.457 0.802,160.665 1.024 M238.233 1.194 C 238.193 1.259,238.366 1.275,238.618 1.229 C 239.236 1.117,239.334 0.990,238.765 1.037 C 238.513 1.058,238.274 1.128,238.233 1.194 M128.202 2.620 C 127.942 2.831,127.946 2.838,128.250 2.692 C 128.433 2.605,128.646 2.532,128.722 2.530 C 128.981 2.526,129.002 2.389,128.744 2.389 C 128.603 2.389,128.359 2.493,128.202 2.620 M126.167 3.264 C 125.837 3.447,125.813 3.496,126.054 3.498 C 126.221 3.499,126.470 3.387,126.607 3.250 C 126.911 2.946,126.729 2.952,126.167 3.264 M230.667 3.264 C 230.337 3.447,230.313 3.496,230.554 3.498 C 230.721 3.499,230.970 3.387,231.107 3.250 C 231.411 2.946,231.229 2.952,230.667 3.264 M228.500 3.977 C 228.500 4.056,228.688 4.085,228.917 4.041 C 229.146 3.997,229.333 3.932,229.333 3.897 C 229.333 3.862,229.146 3.833,228.917 3.833 C 228.688 3.833,228.500 3.898,228.500 3.977 M226.977 4.677 L 226.583 5.020 227.013 4.759 C 227.250 4.616,227.506 4.555,227.582 4.624 C 227.658 4.693,227.666 4.656,227.600 4.542 C 227.445 4.272,227.439 4.273,226.977 4.677 M282.681 7.061 C 283.017 7.355,283.563 7.530,283.355 7.277 C 283.229 7.125,283.010 7.000,282.868 7.000 C 282.727 7.000,282.642 7.027,282.681 7.061 M184.667 11.494 C 184.667 11.583,184.835 11.743,185.042 11.852 C 185.415 12.047,185.415 12.047,185.099 11.691 C 184.746 11.294,184.667 11.257,184.667 11.494 M187.073 13.482 C 187.135 13.583,187.340 13.748,187.529 13.849 C 187.776 13.981,187.842 13.982,187.761 13.851 C 187.699 13.751,187.493 13.586,187.304 13.484 C 187.057 13.352,186.992 13.352,187.073 13.482 M294.464 13.655 C 294.674 13.858,294.920 13.999,295.012 13.968 C 295.104 13.938,294.933 13.772,294.631 13.599 L 294.083 13.286 294.464 13.655 M295.333 14.136 C 295.333 14.215,295.521 14.365,295.750 14.470 C 295.979 14.574,296.167 14.632,296.167 14.599 C 296.167 14.566,295.979 14.415,295.750 14.265 C 295.521 14.115,295.333 14.057,295.333 14.136 M34.000 14.492 C 34.000 14.599,34.075 14.640,34.167 14.583 C 34.258 14.527,34.333 14.547,34.333 14.629 C 34.333 14.711,34.446 14.778,34.583 14.778 C 34.721 14.778,34.833 14.715,34.833 14.639 C 34.833 14.563,34.764 14.500,34.680 14.500 C 34.596 14.500,34.409 14.454,34.264 14.399 C 34.116 14.342,34.000 14.383,34.000 14.492 M40.835 16.670 C 41.042 17.057,41.167 17.093,41.167 16.768 C 41.167 16.640,41.052 16.492,40.913 16.438 C 40.706 16.359,40.691 16.402,40.835 16.670 M382.666 17.076 C 382.895 17.202,383.118 17.271,383.162 17.227 C 383.274 17.115,382.798 16.838,382.500 16.842 C 382.355 16.844,382.425 16.942,382.666 17.076 M98.284 18.672 C 98.130 18.852,98.068 19.000,98.148 19.000 C 98.331 19.000,98.739 18.517,98.640 18.418 C 98.599 18.377,98.439 18.491,98.284 18.672 M307.573 23.482 C 307.635 23.583,307.840 23.748,308.029 23.849 C 308.276 23.981,308.342 23.982,308.261 23.851 C 308.199 23.751,307.993 23.586,307.804 23.484 C 307.557 23.352,307.492 23.352,307.573 23.482 M49.456 26.125 C 49.421 26.194,49.447 26.475,49.514 26.750 C 49.630 27.227,49.634 27.221,49.617 26.625 C 49.598 25.990,49.570 25.901,49.456 26.125 M349.944 28.444 C 349.791 28.598,349.804 30.962,349.958 31.057 C 350.027 31.099,350.083 30.504,350.083 29.733 C 350.083 28.963,350.077 28.333,350.069 28.333 C 350.062 28.333,350.006 28.383,349.944 28.444 M49.784 29.222 C 49.737 29.344,49.804 29.444,49.933 29.444 C 50.061 29.444,50.167 29.344,50.167 29.222 C 50.167 29.100,50.100 29.000,50.018 29.000 C 49.936 29.000,49.831 29.100,49.784 29.222 M49.833 30.500 C 49.833 30.989,49.887 31.336,49.952 31.271 C 50.071 31.152,50.028 29.810,49.902 29.681 C 49.864 29.642,49.833 30.011,49.833 30.500 M35.088 31.326 C 35.034 31.414,34.887 31.446,34.762 31.398 C 34.636 31.350,34.492 31.378,34.441 31.460 C 34.306 31.680,34.971 31.596,35.203 31.364 C 35.311 31.255,35.352 31.167,35.293 31.167 C 35.234 31.167,35.142 31.238,35.088 31.326 M363.381 31.392 C 363.472 31.665,363.833 31.718,363.833 31.458 C 363.833 31.328,363.719 31.222,363.579 31.222 C 363.439 31.222,363.350 31.299,363.381 31.392 M367.258 31.878 C 367.304 31.998,367.499 32.108,367.690 32.123 C 368.083 32.152,368.068 32.124,367.545 31.852 C 367.249 31.698,367.191 31.703,367.258 31.878 M31.250 32.536 C 30.830 32.779,30.432 33.169,30.613 33.161 C 30.688 33.157,30.975 32.970,31.250 32.745 C 31.787 32.305,31.787 32.226,31.250 32.536 M397.768 34.529 C 397.833 34.635,397.944 34.952,398.014 35.235 C 398.139 35.744,398.140 35.742,398.120 35.130 C 398.108 34.779,398.001 34.472,397.874 34.423 C 397.735 34.370,397.695 34.410,397.768 34.529 M48.159 37.014 C 47.894 37.509,48.029 37.540,48.383 37.067 C 48.547 36.847,48.606 36.667,48.514 36.667 C 48.421 36.667,48.261 36.823,48.159 37.014 M42.542 38.250 C 42.544 38.617,42.578 38.747,42.618 38.540 C 42.658 38.332,42.656 38.032,42.615 37.873 C 42.573 37.714,42.540 37.883,42.542 38.250 M398.980 38.703 C 399.057 39.166,399.080 39.189,399.133 38.856 C 399.167 38.639,399.126 38.393,399.042 38.309 C 398.950 38.216,398.925 38.372,398.980 38.703 M352.833 38.827 C 352.833 38.916,353.002 39.077,353.208 39.185 C 353.581 39.381,353.582 39.380,353.266 39.024 C 352.913 38.627,352.833 38.591,352.833 38.827 M26.444 41.444 C 26.301 41.588,26.322 44.162,26.470 44.536 C 26.532 44.694,26.583 44.038,26.583 43.079 C 26.583 42.119,26.577 41.334,26.569 41.334 C 26.562 41.334,26.506 41.383,26.444 41.444 M373.389 42.667 C 373.389 43.354,373.419 43.635,373.455 43.292 C 373.491 42.948,373.491 42.385,373.455 42.042 C 373.419 41.698,373.389 41.979,373.389 42.667 M357.703 43.589 C 357.953 43.851,358.186 44.032,358.223 43.991 C 358.260 43.950,358.056 43.736,357.770 43.514 L 357.250 43.112 357.703 43.589 M330.750 44.660 C 330.933 44.867,331.308 45.191,331.583 45.380 L 332.083 45.723 331.583 45.181 C 331.308 44.882,330.933 44.559,330.750 44.461 L 330.417 44.285 330.750 44.660 M26.737 46.128 C 26.803 46.244,26.893 46.542,26.938 46.791 C 27.059 47.457,27.213 47.512,27.110 46.853 C 27.062 46.543,26.931 46.205,26.820 46.103 C 26.669 45.964,26.648 45.970,26.737 46.128 M336.166 49.396 C 336.395 49.530,336.614 49.608,336.653 49.570 C 336.756 49.466,336.631 49.387,336.167 49.264 L 335.750 49.153 336.166 49.396 M337.167 49.991 C 337.167 50.083,337.392 50.274,337.667 50.417 C 337.942 50.559,338.167 50.650,338.167 50.619 C 338.167 50.588,337.942 50.396,337.667 50.193 C 337.392 49.990,337.167 49.899,337.167 49.991 M339.881 52.078 C 340.136 52.323,340.414 52.500,340.499 52.470 C 340.584 52.441,340.375 52.240,340.035 52.025 L 339.417 51.633 339.881 52.078 M340.833 52.668 C 340.833 52.759,340.894 52.833,340.969 52.833 C 341.043 52.833,341.271 52.989,341.474 53.179 C 341.678 53.369,341.909 53.500,341.986 53.470 C 342.064 53.441,341.837 53.211,341.481 52.960 C 341.125 52.709,340.833 52.577,340.833 52.668 M31.573 53.482 C 31.635 53.583,31.840 53.748,32.029 53.849 C 32.276 53.981,32.342 53.982,32.261 53.851 C 32.199 53.751,31.993 53.586,31.804 53.484 C 31.557 53.352,31.492 53.352,31.573 53.482 M367.284 54.172 C 367.130 54.352,367.068 54.500,367.148 54.500 C 367.331 54.500,367.739 54.017,367.640 53.918 C 367.599 53.877,367.439 53.991,367.284 54.172 M195.792 54.458 C 197.465 54.485,200.202 54.485,201.875 54.458 C 203.548 54.431,202.179 54.409,198.833 54.409 C 195.487 54.409,194.119 54.431,195.792 54.458 M190.288 54.620 C 190.584 54.657,191.109 54.658,191.455 54.622 C 191.800 54.586,191.558 54.555,190.917 54.555 C 190.275 54.554,189.992 54.583,190.288 54.620 M206.542 54.623 C 206.977 54.657,207.690 54.657,208.125 54.623 C 208.560 54.588,208.204 54.560,207.333 54.560 C 206.463 54.560,206.106 54.588,206.542 54.623 M183.381 55.392 C 183.472 55.665,183.833 55.718,183.833 55.458 C 183.833 55.328,183.719 55.222,183.579 55.222 C 183.439 55.222,183.350 55.299,183.381 55.392 M51.500 56.477 C 51.500 56.556,51.688 56.585,51.917 56.541 C 52.146 56.497,52.333 56.432,52.333 56.397 C 52.333 56.362,52.146 56.333,51.917 56.333 C 51.688 56.333,51.500 56.398,51.500 56.477 M38.167 57.021 C 38.167 57.206,38.585 57.389,38.822 57.307 C 38.914 57.276,38.804 57.163,38.578 57.057 C 38.348 56.950,38.167 56.934,38.167 57.021 M354.877 57.953 C 355.131 57.991,355.506 57.990,355.711 57.951 C 355.916 57.911,355.708 57.880,355.250 57.881 C 354.792 57.882,354.624 57.915,354.877 57.953 M163.833 60.913 C 163.433 61.138,163.431 61.146,163.787 61.122 C 163.991 61.108,164.195 61.000,164.240 60.882 C 164.340 60.622,164.351 60.622,163.833 60.913 M162.333 61.413 C 161.933 61.638,161.931 61.646,162.287 61.622 C 162.491 61.608,162.695 61.500,162.740 61.382 C 162.840 61.122,162.851 61.122,162.333 61.413 M242.758 63.378 C 242.804 63.498,242.999 63.608,243.190 63.623 C 243.583 63.652,243.568 63.624,243.045 63.352 C 242.749 63.198,242.691 63.203,242.758 63.378 M151.667 65.420 L 151.250 65.661 151.658 65.607 C 151.882 65.577,152.095 65.466,152.130 65.360 C 152.210 65.119,152.180 65.123,151.667 65.420 M398.023 65.782 C 398.010 65.983,397.925 66.193,397.833 66.250 C 397.613 66.386,397.620 66.667,397.843 66.667 C 397.940 66.667,397.977 66.598,397.925 66.514 C 397.874 66.430,397.914 66.334,398.015 66.300 C 398.117 66.267,398.165 66.054,398.122 65.828 C 398.053 65.457,398.043 65.453,398.023 65.782 M144.667 68.420 L 144.250 68.661 144.658 68.607 C 144.882 68.577,145.095 68.466,145.130 68.360 C 145.210 68.119,145.180 68.123,144.667 68.420 M396.357 69.765 C 396.206 70.096,396.206 70.181,396.356 70.131 C 396.464 70.095,396.578 69.901,396.609 69.700 C 396.683 69.215,396.597 69.237,396.357 69.765 M258.258 69.878 C 258.304 69.998,258.499 70.108,258.690 70.123 C 259.083 70.152,259.068 70.124,258.545 69.852 C 258.249 69.698,258.191 69.703,258.258 69.878 M140.167 70.420 L 139.750 70.661 140.158 70.607 C 140.382 70.577,140.595 70.466,140.630 70.360 C 140.710 70.119,140.680 70.123,140.167 70.420 M264.758 72.878 C 264.804 72.998,264.999 73.108,265.190 73.123 C 265.583 73.152,265.568 73.124,265.045 72.852 C 264.749 72.698,264.691 72.703,264.758 72.878 M6.353 74.933 C 6.342 75.125,6.502 75.425,6.708 75.599 C 7.080 75.914,7.081 75.914,6.809 75.583 C 6.658 75.400,6.498 75.100,6.453 74.917 C 6.375 74.596,6.371 74.597,6.353 74.933 M8.010 77.375 C 8.154 77.489,8.324 77.725,8.389 77.899 C 8.454 78.072,8.550 78.173,8.601 78.121 C 8.751 77.971,8.368 77.381,8.046 77.269 C 7.784 77.178,7.780 77.190,8.010 77.375 M390.167 79.416 C 389.952 79.645,389.813 79.869,389.858 79.914 C 389.903 79.959,390.106 79.772,390.308 79.498 C 390.757 78.891,390.694 78.855,390.167 79.416 M387.708 82.037 C 387.502 82.136,387.333 82.283,387.333 82.363 C 387.333 82.442,387.521 82.385,387.750 82.235 C 388.361 81.834,388.340 81.732,387.708 82.037 M111.167 83.920 L 110.750 84.161 111.158 84.107 C 111.382 84.077,111.595 83.966,111.630 83.860 C 111.710 83.619,111.680 83.623,111.167 83.920 M14.833 84.301 C 14.833 84.376,15.062 84.606,15.342 84.813 C 15.784 85.140,15.824 85.148,15.650 84.869 C 15.423 84.505,14.833 84.094,14.833 84.301 M298.774 88.253 C 298.829 88.397,298.915 88.474,298.964 88.425 C 299.013 88.376,299.168 88.429,299.308 88.543 C 299.512 88.708,299.539 88.708,299.439 88.543 C 299.228 88.190,298.654 87.941,298.774 88.253 M300.258 88.878 C 300.304 88.998,300.499 89.108,300.690 89.123 C 301.083 89.152,301.068 89.124,300.545 88.852 C 300.249 88.698,300.191 88.703,300.258 88.878 M307.393 91.417 C 307.530 91.554,307.817 91.658,308.030 91.647 C 308.370 91.630,308.376 91.618,308.083 91.548 C 307.900 91.504,307.679 91.400,307.592 91.317 C 307.319 91.058,307.129 91.153,307.393 91.417 M372.667 91.420 L 372.250 91.661 372.658 91.607 C 372.882 91.577,373.095 91.466,373.130 91.360 C 373.210 91.119,373.180 91.123,372.667 91.420 M368.833 92.913 C 368.433 93.138,368.431 93.146,368.787 93.122 C 368.991 93.108,369.195 93.000,369.240 92.882 C 369.340 92.622,369.351 92.622,368.833 92.913 M35.014 94.058 C 35.330 94.321,36.182 94.610,36.261 94.482 C 36.314 94.396,36.296 94.339,36.221 94.356 C 36.145 94.373,35.872 94.300,35.614 94.194 C 35.158 94.005,34.873 93.941,35.014 94.058 M78.083 95.000 L 77.583 95.127 78.032 95.147 C 78.279 95.158,78.527 95.092,78.583 95.000 C 78.640 94.908,78.663 94.842,78.635 94.853 C 78.607 94.864,78.358 94.930,78.083 95.000 M72.881 95.892 C 72.972 96.165,73.333 96.218,73.333 95.958 C 73.333 95.828,73.219 95.722,73.079 95.722 C 72.939 95.722,72.850 95.799,72.881 95.892 M326.266 95.859 C 326.316 95.940,326.435 95.957,326.530 95.898 C 326.626 95.839,326.776 95.894,326.865 96.020 C 326.997 96.209,327.013 96.205,326.957 96.000 C 326.920 95.862,326.728 95.742,326.532 95.731 C 326.336 95.721,326.216 95.778,326.266 95.859 " stroke="none" fill="#3d301f" fill-rule="evenodd"></path><path id="path27" d="M357.388 38.250 C 357.389 38.892,357.419 39.134,357.455 38.788 C 357.491 38.442,357.490 37.917,357.454 37.621 C 357.417 37.325,357.387 37.608,357.388 38.250 " stroke="none" fill="#422d20" fill-rule="evenodd"></path><path id="path28" d="" stroke="none" fill="#432b1e" fill-rule="evenodd"></path><path id="path29" d="" stroke="none" fill="#3c311b" fill-rule="evenodd"></path><path id="path30" d="" stroke="none" fill="#442f1a" fill-rule="evenodd"></path><path id="path31" d="M139.982 0.136 C 139.934 0.282,139.559 0.366,138.871 0.386 C 138.301 0.403,137.833 0.457,137.833 0.506 C 137.833 0.677,137.167 0.594,137.161 0.423 C 137.158 0.328,137.064 0.362,136.952 0.500 C 136.739 0.762,136.476 0.855,135.918 0.867 C 135.734 0.871,135.246 0.976,134.833 1.101 C 134.421 1.225,133.746 1.365,133.333 1.412 C 132.521 1.504,132.220 1.564,131.833 1.712 C 131.495 1.841,130.352 2.027,130.269 1.966 C 130.232 1.939,130.047 2.057,129.857 2.229 C 129.667 2.400,129.404 2.499,129.273 2.448 C 129.141 2.398,128.986 2.403,128.928 2.461 C 128.824 2.564,128.441 2.670,128.042 2.704 C 127.927 2.714,127.833 2.789,127.833 2.872 C 127.833 2.954,127.702 3.002,127.542 2.979 C 127.151 2.922,126.500 3.151,126.500 3.345 C 126.500 3.430,126.243 3.500,125.929 3.500 C 125.614 3.500,125.245 3.612,125.108 3.750 C 124.970 3.887,124.740 3.954,124.596 3.898 C 124.449 3.842,124.333 3.884,124.333 3.992 C 124.333 4.099,124.272 4.148,124.196 4.102 C 124.121 4.055,123.857 4.122,123.609 4.251 C 123.361 4.379,123.142 4.477,123.121 4.468 C 122.968 4.400,122.333 4.726,122.333 4.872 C 122.333 4.973,122.284 5.006,122.224 4.946 C 122.163 4.886,122.013 4.920,121.890 5.022 C 121.767 5.124,121.667 5.152,121.667 5.085 C 121.667 5.017,121.482 5.083,121.256 5.231 C 121.029 5.379,120.699 5.523,120.522 5.550 C 120.344 5.577,120.091 5.689,119.958 5.799 C 119.825 5.909,119.523 6.016,119.287 6.035 C 119.051 6.055,118.894 6.130,118.939 6.202 C 118.983 6.274,118.884 6.345,118.718 6.359 C 118.552 6.373,118.330 6.392,118.223 6.403 C 118.117 6.413,117.886 6.552,117.710 6.711 C 117.534 6.870,117.339 6.950,117.277 6.889 C 117.216 6.827,116.978 6.952,116.750 7.167 C 116.522 7.381,116.289 7.511,116.233 7.455 C 116.177 7.399,115.973 7.501,115.780 7.681 C 115.587 7.861,115.337 7.973,115.225 7.930 C 115.113 7.887,114.998 7.907,114.969 7.975 C 114.894 8.150,113.167 9.026,113.167 8.889 C 113.167 8.827,112.992 8.939,112.779 9.139 C 112.566 9.339,112.343 9.454,112.283 9.394 C 112.223 9.335,112.129 9.405,112.073 9.551 C 112.016 9.698,111.715 9.902,111.402 10.005 C 111.089 10.108,110.833 10.266,110.833 10.356 C 110.833 10.446,110.763 10.476,110.678 10.424 C 110.593 10.371,110.405 10.496,110.261 10.701 C 110.118 10.906,110.000 11.014,110.000 10.940 C 110.000 10.866,109.739 10.968,109.420 11.165 C 109.101 11.362,108.763 11.476,108.670 11.419 C 108.576 11.361,108.500 11.431,108.500 11.573 C 108.500 11.716,108.388 11.833,108.250 11.833 C 108.112 11.833,108.000 11.913,108.000 12.010 C 108.000 12.107,107.932 12.144,107.848 12.092 C 107.765 12.041,107.488 12.219,107.233 12.489 C 106.978 12.759,106.714 12.946,106.646 12.904 C 106.578 12.862,106.404 12.998,106.258 13.206 C 106.113 13.413,105.976 13.558,105.955 13.526 C 105.881 13.417,105.000 13.888,105.000 14.037 C 105.000 14.119,104.930 14.143,104.844 14.090 C 104.758 14.036,104.610 14.126,104.515 14.288 C 104.421 14.451,104.341 14.516,104.338 14.433 C 104.336 14.350,104.202 14.426,104.042 14.601 C 103.881 14.776,103.544 15.025,103.292 15.154 C 103.040 15.284,102.833 15.452,102.833 15.528 C 102.833 15.604,102.738 15.667,102.620 15.667 C 102.503 15.667,102.279 15.817,102.122 16.000 C 101.965 16.183,101.723 16.333,101.585 16.333 C 101.447 16.333,101.333 16.408,101.333 16.500 C 101.333 16.592,101.229 16.667,101.101 16.667 C 100.973 16.667,100.828 16.773,100.778 16.904 C 100.728 17.034,100.326 17.350,99.885 17.605 C 99.444 17.860,98.887 18.290,98.648 18.559 C 98.366 18.876,98.137 19.001,97.997 18.915 C 97.855 18.827,97.823 18.848,97.901 18.975 C 97.971 19.088,97.894 19.216,97.719 19.281 C 97.553 19.342,97.379 19.437,97.333 19.492 C 97.287 19.546,97.037 19.727,96.777 19.892 C 96.517 20.058,96.346 20.235,96.397 20.286 C 96.448 20.337,96.135 20.610,95.703 20.894 C 95.271 21.177,94.892 21.467,94.861 21.538 C 94.831 21.609,94.711 21.667,94.595 21.667 C 94.307 21.667,93.803 22.248,93.958 22.402 C 94.027 22.471,94.004 22.503,93.907 22.472 C 93.724 22.415,92.446 23.403,91.661 24.208 C 91.415 24.460,91.157 24.667,91.088 24.667 C 91.018 24.667,90.680 24.965,90.337 25.329 C 89.994 25.693,89.667 25.945,89.611 25.888 C 89.554 25.832,89.461 25.909,89.403 26.059 C 89.345 26.210,89.193 26.333,89.066 26.333 C 88.938 26.333,88.833 26.443,88.833 26.577 C 88.833 26.712,88.666 26.911,88.462 27.020 C 88.258 27.130,87.903 27.432,87.675 27.693 C 87.446 27.953,87.185 28.167,87.094 28.167 C 87.003 28.167,86.534 28.584,86.051 29.095 C 85.518 29.659,85.096 29.976,84.977 29.903 C 84.860 29.830,84.826 29.854,84.893 29.962 C 84.955 30.061,84.854 30.191,84.669 30.249 C 84.484 30.308,84.333 30.463,84.333 30.595 C 84.333 30.726,84.221 30.833,84.083 30.833 C 83.946 30.833,83.833 30.946,83.833 31.083 C 83.833 31.221,83.757 31.333,83.665 31.333 C 83.572 31.333,83.178 31.634,82.790 32.002 C 82.401 32.369,81.691 33.016,81.211 33.439 C 80.731 33.861,80.387 34.285,80.445 34.379 C 80.504 34.474,80.477 34.505,80.385 34.449 C 80.293 34.392,79.871 34.724,79.447 35.186 C 78.976 35.699,78.599 35.978,78.479 35.904 C 78.351 35.825,78.326 35.854,78.408 35.985 C 78.488 36.115,78.406 36.222,78.183 36.281 C 77.991 36.331,77.833 36.476,77.833 36.603 C 77.833 36.730,77.730 36.833,77.603 36.833 C 77.476 36.833,77.332 36.985,77.284 37.171 C 77.235 37.357,77.122 37.489,77.032 37.463 C 76.942 37.438,76.467 37.808,75.976 38.287 C 72.790 41.395,71.751 42.333,71.498 42.333 C 71.407 42.333,71.333 42.446,71.333 42.583 C 71.333 42.721,71.221 42.833,71.083 42.833 C 70.946 42.833,70.833 42.946,70.833 43.083 C 70.833 43.221,70.752 43.333,70.654 43.333 C 70.555 43.333,70.194 43.633,69.852 44.000 C 69.510 44.367,69.153 44.667,69.058 44.667 C 68.792 44.667,68.317 45.260,68.458 45.415 C 68.527 45.491,68.498 45.505,68.394 45.446 C 68.290 45.386,67.983 45.598,67.711 45.916 C 67.439 46.234,67.170 46.448,67.112 46.390 C 67.055 46.333,66.961 46.409,66.903 46.559 C 66.845 46.710,66.693 46.833,66.566 46.833 C 66.438 46.833,66.333 46.947,66.333 47.087 C 66.333 47.226,66.146 47.426,65.917 47.530 C 65.688 47.635,65.500 47.783,65.500 47.860 C 65.500 47.937,65.422 48.000,65.328 48.000 C 65.233 48.000,64.934 48.206,64.664 48.458 C 63.840 49.226,63.506 49.499,63.375 49.511 C 63.306 49.517,62.875 49.864,62.417 50.281 C 61.958 50.699,61.415 51.119,61.208 51.214 C 61.002 51.309,60.833 51.450,60.833 51.527 C 60.833 51.604,60.738 51.667,60.620 51.667 C 60.503 51.667,60.279 51.817,60.122 52.000 C 59.965 52.183,59.727 52.333,59.593 52.333 C 59.458 52.333,59.171 52.511,58.954 52.728 C 58.736 52.945,58.283 53.254,57.946 53.414 C 57.609 53.574,57.333 53.776,57.333 53.862 C 57.333 53.949,57.263 53.976,57.178 53.924 C 57.093 53.871,56.924 53.960,56.803 54.122 C 56.682 54.284,56.471 54.441,56.333 54.471 C 56.196 54.502,55.971 54.628,55.833 54.751 C 55.696 54.875,55.508 54.991,55.417 55.008 C 55.325 55.026,55.063 55.113,54.833 55.203 C 54.604 55.293,54.324 55.382,54.211 55.401 C 54.098 55.420,53.802 55.612,53.553 55.828 C 53.278 56.067,53.077 56.147,53.038 56.032 C 52.999 55.914,52.844 55.966,52.623 56.172 C 52.312 56.461,51.873 56.590,51.446 56.516 C 51.370 56.502,51.353 56.563,51.407 56.651 C 51.525 56.842,51.072 56.989,50.500 56.943 C 50.271 56.925,49.984 57.005,49.863 57.122 C 49.742 57.238,49.442 57.345,49.196 57.359 C 48.541 57.396,48.434 57.415,48.250 57.527 C 47.742 57.836,41.802 58.040,41.356 57.764 C 41.250 57.699,40.996 57.692,40.790 57.750 C 40.497 57.832,40.471 57.817,40.667 57.680 C 40.958 57.476,40.856 57.452,39.792 57.474 C 39.448 57.481,39.167 57.422,39.167 57.342 C 39.167 57.263,39.014 57.238,38.828 57.286 C 38.637 57.336,38.358 57.257,38.189 57.104 C 38.024 56.955,37.839 56.883,37.778 56.944 C 37.717 57.005,37.667 56.984,37.667 56.897 C 37.667 56.809,37.505 56.725,37.307 56.710 C 37.109 56.696,36.902 56.623,36.848 56.550 C 36.794 56.477,36.569 56.391,36.348 56.360 C 36.127 56.329,35.840 56.198,35.711 56.068 C 35.582 55.939,35.364 55.833,35.226 55.833 C 35.089 55.833,34.864 55.721,34.726 55.583 C 34.589 55.446,34.327 55.333,34.145 55.333 C 33.953 55.333,33.860 55.259,33.924 55.155 C 33.984 55.057,33.876 54.936,33.683 54.886 C 33.491 54.836,33.333 54.724,33.333 54.637 C 33.333 54.551,33.276 54.516,33.206 54.559 C 33.137 54.602,32.935 54.531,32.758 54.402 C 32.581 54.273,32.507 54.164,32.593 54.160 C 32.679 54.157,32.501 54.045,32.197 53.913 C 31.848 53.762,31.688 53.601,31.764 53.477 C 31.834 53.364,31.813 53.326,31.715 53.387 C 31.621 53.445,31.410 53.344,31.246 53.163 C 31.082 52.982,30.850 52.833,30.729 52.833 C 30.594 52.833,30.551 52.728,30.617 52.556 C 30.675 52.403,30.654 52.321,30.570 52.372 C 30.486 52.423,30.320 52.360,30.202 52.233 C 30.084 52.105,30.019 52.000,30.058 52.000 C 30.098 52.000,29.805 51.670,29.408 51.268 C 29.011 50.865,28.568 50.254,28.424 49.910 C 28.281 49.566,28.042 49.196,27.894 49.087 C 27.746 48.979,27.625 48.692,27.625 48.448 C 27.625 48.205,27.568 48.041,27.499 48.084 C 27.010 48.386,26.034 42.431,26.427 41.540 C 26.497 41.380,26.568 41.063,26.585 40.833 C 26.637 40.113,26.846 39.256,27.009 39.092 C 27.096 39.005,27.167 38.701,27.167 38.417 C 27.167 38.133,27.260 37.806,27.375 37.692 C 27.578 37.488,27.603 37.419,27.646 36.929 C 27.657 36.798,27.798 36.559,27.958 36.399 C 28.119 36.238,28.256 36.064,28.264 36.012 C 28.308 35.721,28.596 35.224,28.823 35.047 C 28.966 34.935,29.027 34.842,28.959 34.839 C 28.477 34.818,31.643 32.092,32.155 32.086 C 32.299 32.085,32.398 31.990,32.375 31.875 C 32.352 31.760,32.502 31.660,32.708 31.653 C 33.403 31.627,33.833 31.556,33.938 31.450 C 33.996 31.392,34.193 31.425,34.375 31.522 C 34.633 31.660,34.678 31.653,34.576 31.488 C 34.483 31.338,34.526 31.308,34.723 31.383 C 34.875 31.442,35.000 31.417,35.000 31.328 C 35.000 31.239,35.079 31.167,35.177 31.167 C 35.274 31.167,35.307 31.241,35.250 31.333 C 35.182 31.443,35.294 31.443,35.585 31.333 C 36.161 31.114,36.333 31.123,36.334 31.375 C 36.335 31.503,36.615 31.599,37.066 31.625 C 37.467 31.648,38.011 31.779,38.273 31.916 C 38.535 32.053,38.881 32.165,39.042 32.166 C 39.202 32.166,39.333 32.282,39.333 32.424 C 39.333 32.565,39.427 32.666,39.542 32.648 C 39.822 32.603,40.348 32.841,40.265 32.976 C 40.229 33.035,40.452 33.271,40.762 33.500 C 41.071 33.729,41.326 34.001,41.329 34.105 C 41.331 34.208,41.454 34.392,41.601 34.514 C 41.748 34.636,41.935 34.913,42.017 35.128 C 42.099 35.344,42.225 35.484,42.297 35.439 C 42.369 35.395,42.423 35.728,42.417 36.179 C 42.411 36.631,42.453 37.000,42.511 37.000 C 42.642 37.000,42.656 39.524,42.525 39.750 C 42.473 39.841,42.414 40.208,42.396 40.564 C 42.378 40.921,42.293 41.258,42.208 41.314 C 42.122 41.371,42.004 41.665,41.945 41.968 C 41.886 42.271,41.722 42.635,41.580 42.777 C 41.423 42.934,41.364 43.167,41.429 43.372 C 41.496 43.584,41.472 43.669,41.363 43.601 C 41.268 43.543,41.146 43.565,41.092 43.652 C 41.039 43.739,41.162 43.862,41.365 43.927 C 41.590 43.998,41.760 43.970,41.798 43.855 C 41.833 43.752,41.951 43.667,42.060 43.667 C 42.170 43.667,42.445 43.458,42.671 43.203 C 42.898 42.947,43.365 42.566,43.708 42.356 C 44.052 42.145,44.333 41.904,44.333 41.820 C 44.333 41.736,44.446 41.667,44.583 41.667 C 44.721 41.667,44.833 41.554,44.833 41.417 C 44.833 41.279,44.946 41.167,45.083 41.167 C 45.221 41.167,45.333 41.054,45.333 40.917 C 45.333 40.779,45.446 40.667,45.583 40.667 C 45.721 40.667,45.833 40.567,45.833 40.446 C 45.833 40.324,46.021 40.049,46.250 39.833 C 46.479 39.618,46.667 39.342,46.667 39.221 C 46.667 39.099,46.784 39.000,46.927 39.000 C 47.069 39.000,47.140 38.924,47.083 38.832 C 47.026 38.740,47.096 38.619,47.238 38.565 C 47.381 38.510,47.459 38.403,47.412 38.326 C 47.365 38.250,47.432 38.126,47.562 38.052 C 47.691 37.978,47.914 37.635,48.057 37.292 C 48.200 36.948,48.389 36.667,48.478 36.667 C 48.567 36.667,48.690 36.442,48.750 36.167 C 48.810 35.892,48.937 35.667,49.031 35.667 C 49.125 35.667,49.158 35.550,49.103 35.407 C 49.048 35.265,49.109 34.896,49.237 34.588 C 49.366 34.279,49.428 33.984,49.375 33.930 C 49.321 33.877,49.347 33.833,49.431 33.833 C 49.515 33.833,49.583 33.440,49.583 32.958 C 49.583 32.477,49.642 32.040,49.714 31.987 C 49.899 31.850,49.951 29.344,49.766 29.458 C 49.683 29.510,49.672 29.459,49.742 29.346 C 49.910 29.074,49.956 28.000,49.800 28.000 C 49.732 28.000,49.721 27.887,49.774 27.748 C 49.827 27.609,49.797 27.403,49.708 27.290 C 49.470 26.989,49.353 26.174,49.531 26.064 C 49.615 26.013,49.517 25.826,49.315 25.651 C 49.112 25.475,48.993 25.284,49.051 25.227 C 49.108 25.170,49.045 24.966,48.911 24.774 C 48.777 24.583,48.667 24.288,48.667 24.118 C 48.667 23.949,48.479 23.565,48.250 23.265 C 48.021 22.964,47.833 22.632,47.833 22.526 C 47.833 22.420,47.763 22.333,47.678 22.333 C 47.592 22.333,47.474 22.182,47.416 21.997 C 47.357 21.812,46.847 21.193,46.283 20.622 C 45.719 20.051,45.274 19.527,45.295 19.458 C 45.316 19.390,45.277 19.345,45.208 19.360 C 44.974 19.409,44.502 19.132,44.587 18.995 C 44.633 18.919,44.520 18.809,44.336 18.751 C 44.151 18.692,44.000 18.574,44.000 18.489 C 44.000 18.403,43.883 18.333,43.740 18.333 C 43.597 18.333,43.525 18.261,43.580 18.172 C 43.635 18.083,43.490 17.962,43.257 17.903 C 43.024 17.845,42.833 17.726,42.833 17.639 C 42.833 17.552,42.767 17.521,42.686 17.572 C 42.604 17.622,42.442 17.548,42.326 17.407 C 42.209 17.267,42.018 17.188,41.901 17.233 C 41.784 17.278,41.663 17.240,41.633 17.148 C 41.602 17.057,41.458 16.964,41.312 16.943 C 41.166 16.922,40.919 16.776,40.763 16.620 C 40.607 16.464,40.073 16.218,39.575 16.074 C 39.078 15.929,38.597 15.685,38.507 15.530 C 38.381 15.314,38.342 15.305,38.338 15.492 C 38.334 15.680,38.289 15.689,38.133 15.533 C 38.023 15.423,37.730 15.333,37.481 15.333 C 37.232 15.333,36.997 15.242,36.960 15.130 C 36.919 15.006,36.475 14.907,35.821 14.876 C 34.416 14.809,34.333 14.797,34.333 14.667 C 34.333 14.419,26.800 14.258,26.125 14.491 C 25.792 14.606,25.665 14.595,25.661 14.450 C 25.658 14.328,25.577 14.353,25.453 14.514 C 25.341 14.659,24.978 14.788,24.644 14.800 C 24.311 14.812,23.786 14.871,23.478 14.932 C 23.169 14.993,22.787 15.038,22.629 15.032 C 22.470 15.026,22.358 15.104,22.379 15.206 C 22.400 15.311,22.168 15.393,21.833 15.398 C 21.512 15.402,21.195 15.483,21.128 15.578 C 21.049 15.688,21.004 15.672,21.003 15.535 C 21.001 15.398,20.868 15.443,20.633 15.663 C 20.430 15.851,20.187 15.979,20.091 15.947 C 19.995 15.914,19.610 16.051,19.235 16.250 C 18.860 16.449,18.391 16.587,18.194 16.557 C 17.985 16.525,17.851 16.584,17.875 16.696 C 17.898 16.802,17.673 16.962,17.375 17.052 C 17.077 17.142,16.833 17.269,16.833 17.335 C 16.833 17.400,16.653 17.434,16.432 17.410 C 16.151 17.379,16.005 17.464,15.945 17.693 C 15.898 17.873,15.760 18.003,15.638 17.981 C 15.348 17.930,14.500 18.344,14.500 18.537 C 14.500 18.619,14.433 18.645,14.350 18.594 C 14.268 18.543,14.024 18.687,13.809 18.914 C 13.593 19.142,13.323 19.329,13.208 19.330 C 13.094 19.332,13.000 19.413,13.000 19.510 C 13.000 19.607,12.930 19.643,12.844 19.590 C 12.758 19.536,12.610 19.626,12.515 19.788 C 12.421 19.951,12.341 20.010,12.338 19.921 C 12.336 19.832,12.124 19.982,11.867 20.255 C 11.611 20.527,11.142 20.950,10.825 21.194 C 9.756 22.020,9.333 22.426,9.333 22.630 C 9.333 22.742,9.221 22.833,9.083 22.833 C 8.946 22.833,8.833 22.946,8.833 23.083 C 8.833 23.221,8.721 23.333,8.583 23.333 C 8.446 23.333,8.333 23.446,8.333 23.583 C 8.333 23.721,8.258 23.833,8.167 23.833 C 8.075 23.833,8.000 23.945,8.000 24.082 C 8.000 24.219,7.850 24.424,7.667 24.539 C 7.483 24.653,7.333 24.814,7.333 24.896 C 7.333 24.978,7.141 25.210,6.906 25.412 C 6.671 25.614,6.461 25.899,6.439 26.045 C 6.418 26.192,6.198 26.514,5.950 26.762 C 5.703 27.010,5.491 27.277,5.479 27.356 C 5.468 27.435,5.449 27.578,5.438 27.673 C 5.426 27.768,5.342 27.899,5.250 27.964 C 5.158 28.030,4.990 28.252,4.875 28.458 C 4.352 29.400,4.237 29.585,4.042 29.797 C 3.927 29.922,3.833 30.162,3.833 30.331 C 3.833 30.500,3.747 30.668,3.641 30.703 C 3.536 30.738,3.437 30.929,3.423 31.127 C 3.408 31.326,3.283 31.622,3.145 31.786 C 3.006 31.949,2.880 32.295,2.864 32.553 C 2.848 32.811,2.720 33.137,2.579 33.279 C 2.431 33.426,2.365 33.669,2.423 33.852 C 2.487 34.055,2.429 34.204,2.261 34.269 C 2.118 34.324,2.000 34.532,2.000 34.731 C 2.000 34.930,1.889 35.251,1.753 35.445 C 1.617 35.640,1.465 36.197,1.415 36.684 C 1.365 37.171,1.253 37.613,1.167 37.667 C 1.080 37.720,0.968 38.170,0.917 38.665 C 0.866 39.161,0.698 39.706,0.544 39.877 C 0.303 40.144,0.297 40.208,0.505 40.337 C 0.698 40.456,0.705 40.528,0.540 40.693 C 0.426 40.807,0.333 41.260,0.333 41.700 C 0.333 42.140,0.258 42.500,0.167 42.500 C -0.100 42.500,-0.059 56.778,0.208 56.903 C 0.375 56.981,0.375 57.019,0.208 57.097 C -0.049 57.217,-0.067 57.783,0.183 57.867 C 0.288 57.901,0.382 58.413,0.403 59.050 C 0.423 59.668,0.522 60.255,0.623 60.357 C 0.724 60.458,0.768 60.644,0.719 60.770 C 0.671 60.897,0.702 61.000,0.790 61.000 C 0.877 61.000,0.935 61.206,0.918 61.458 C 0.901 61.710,0.948 62.085,1.023 62.292 C 1.116 62.550,1.095 62.668,0.954 62.672 C 0.842 62.675,0.881 62.753,1.042 62.847 C 1.229 62.956,1.333 63.219,1.333 63.582 C 1.333 63.893,1.413 64.197,1.511 64.257 C 1.609 64.318,1.650 64.470,1.602 64.595 C 1.554 64.720,1.582 64.864,1.664 64.915 C 1.747 64.966,1.864 65.343,1.926 65.752 C 1.987 66.162,2.104 66.455,2.185 66.405 C 2.267 66.355,2.333 66.450,2.333 66.618 C 2.333 66.785,2.483 67.201,2.667 67.544 C 2.850 67.886,3.000 68.358,3.000 68.593 C 3.000 68.835,3.072 68.975,3.167 68.917 C 3.258 68.860,3.334 68.949,3.334 69.115 C 3.335 69.281,3.704 70.164,4.155 71.078 C 4.606 71.992,4.938 72.799,4.894 72.870 C 4.850 72.942,4.923 73.000,5.057 73.000 C 5.191 73.000,5.379 73.225,5.475 73.500 C 5.571 73.775,5.733 74.000,5.834 74.000 C 5.936 74.000,5.975 74.073,5.920 74.161 C 5.865 74.250,5.973 74.418,6.160 74.535 C 6.347 74.651,6.500 74.847,6.500 74.969 C 6.500 75.091,6.613 75.304,6.752 75.442 C 6.890 75.580,6.965 75.755,6.919 75.829 C 6.873 75.904,6.947 76.008,7.084 76.061 C 7.221 76.113,7.333 76.263,7.333 76.393 C 7.333 76.523,7.559 76.806,7.835 77.023 C 8.111 77.239,8.668 77.904,9.074 78.500 C 9.759 79.508,12.910 82.768,13.522 83.102 C 13.849 83.280,14.990 84.209,15.816 84.969 C 16.146 85.273,16.627 85.565,16.884 85.617 C 17.171 85.675,17.320 85.794,17.270 85.924 C 17.223 86.047,17.359 86.179,17.594 86.238 C 17.817 86.294,18.000 86.413,18.000 86.503 C 18.000 86.593,18.070 86.667,18.156 86.667 C 18.242 86.667,18.555 86.888,18.850 87.158 C 19.146 87.428,19.432 87.637,19.486 87.623 C 19.602 87.592,20.844 88.179,21.083 88.377 C 21.602 88.808,22.992 89.619,23.073 89.538 C 23.125 89.486,23.342 89.607,23.555 89.806 C 23.767 90.006,23.992 90.119,24.053 90.058 C 24.114 89.997,24.302 90.071,24.471 90.224 C 24.639 90.376,24.831 90.446,24.898 90.380 C 24.964 90.314,25.070 90.332,25.134 90.421 C 25.320 90.681,26.274 91.166,26.609 91.172 C 26.778 91.175,27.062 91.287,27.240 91.422 C 27.418 91.557,27.693 91.667,27.851 91.667 C 28.009 91.667,28.164 91.743,28.196 91.837 C 28.227 91.931,28.552 92.055,28.918 92.113 C 29.284 92.170,29.643 92.318,29.717 92.442 C 29.790 92.566,30.036 92.667,30.264 92.667 C 30.491 92.667,30.717 92.770,30.765 92.896 C 30.813 93.022,31.023 93.125,31.232 93.125 C 31.901 93.125,34.077 93.742,34.268 93.985 C 34.376 94.124,34.572 94.175,34.743 94.109 C 35.045 93.993,36.333 94.304,36.333 94.492 C 36.333 94.551,36.606 94.617,36.940 94.639 C 37.274 94.662,37.674 94.748,37.828 94.831 C 37.982 94.913,38.475 95.025,38.922 95.078 C 39.370 95.132,39.793 95.268,39.862 95.380 C 39.932 95.492,40.235 95.587,40.536 95.592 C 41.964 95.614,42.493 95.683,42.696 95.875 C 42.835 96.006,43.535 96.100,44.583 96.128 C 45.500 96.152,46.275 96.246,46.306 96.336 C 46.395 96.601,69.446 96.557,69.569 96.292 C 69.647 96.125,69.686 96.125,69.764 96.292 C 69.880 96.541,70.283 96.568,70.362 96.332 C 70.392 96.240,70.937 96.144,71.572 96.118 C 72.295 96.090,72.751 95.997,72.793 95.870 C 72.874 95.627,73.333 95.596,73.333 95.833 C 73.333 96.024,73.699 95.986,73.851 95.779 C 73.906 95.704,74.337 95.634,74.809 95.624 C 75.467 95.610,75.667 95.545,75.669 95.344 C 75.671 95.151,75.706 95.137,75.805 95.292 C 75.939 95.505,76.833 95.522,76.833 95.313 C 76.833 95.171,78.439 94.925,78.977 94.985 C 79.226 95.013,79.330 94.962,79.259 94.848 C 79.197 94.748,79.245 94.660,79.365 94.652 C 79.485 94.644,79.846 94.603,80.167 94.560 C 80.487 94.517,80.862 94.475,81.000 94.466 C 81.137 94.457,81.293 94.385,81.344 94.306 C 81.396 94.227,81.884 94.135,82.428 94.102 C 83.872 94.012,83.862 94.015,83.750 93.833 C 83.647 93.667,83.863 93.630,85.032 93.612 C 85.370 93.607,85.609 93.542,85.563 93.468 C 85.469 93.316,86.331 92.943,86.466 93.077 C 86.514 93.125,86.653 93.080,86.776 92.978 C 86.922 92.857,87.000 92.853,87.000 92.965 C 87.000 93.060,87.131 93.112,87.292 93.081 C 87.452 93.051,87.621 93.019,87.667 93.010 C 87.712 93.002,87.638 92.922,87.500 92.833 C 87.304 92.706,87.344 92.671,87.688 92.669 C 88.408 92.665,89.167 92.469,89.071 92.313 C 89.021 92.233,89.116 92.164,89.282 92.160 C 89.987 92.146,90.924 91.951,91.019 91.799 C 91.076 91.709,91.387 91.618,91.711 91.596 C 92.035 91.575,92.424 91.433,92.575 91.283 C 92.742 91.115,93.042 91.031,93.345 91.066 C 93.671 91.104,93.892 91.033,93.989 90.859 C 94.077 90.702,94.373 90.588,94.715 90.579 C 95.033 90.571,95.418 90.439,95.571 90.286 C 95.741 90.116,96.040 90.031,96.341 90.066 C 96.674 90.104,96.833 90.049,96.833 89.895 C 96.833 89.769,96.927 89.660,97.042 89.653 C 97.678 89.611,98.257 89.460,98.306 89.323 C 98.336 89.237,98.499 89.167,98.667 89.167 C 99.126 89.167,99.510 88.984,99.406 88.816 C 99.330 88.693,100.247 88.574,100.708 88.647 C 100.777 88.658,100.833 88.554,100.833 88.417 C 100.833 88.279,100.983 88.157,101.167 88.146 C 101.816 88.105,101.916 88.066,101.875 87.867 C 101.847 87.734,102.086 87.667,102.583 87.667 C 103.139 87.667,103.333 87.602,103.333 87.417 C 103.333 87.279,103.474 87.167,103.646 87.167 C 103.818 87.167,104.053 87.054,104.167 86.917 C 104.281 86.779,104.616 86.667,104.911 86.667 C 105.223 86.667,105.566 86.537,105.729 86.357 C 105.890 86.178,106.184 86.066,106.421 86.092 C 106.686 86.121,106.833 86.053,106.833 85.902 C 106.833 85.773,106.983 85.657,107.167 85.646 C 107.816 85.605,107.916 85.566,107.875 85.367 C 107.847 85.234,108.086 85.167,108.583 85.167 C 109.139 85.167,109.333 85.102,109.333 84.917 C 109.333 84.702,109.749 84.574,110.208 84.647 C 110.277 84.658,110.333 84.554,110.333 84.417 C 110.333 84.189,110.567 84.102,111.123 84.122 C 111.237 84.126,111.288 84.062,111.238 83.980 C 111.134 83.812,111.516 83.632,112.056 83.595 C 112.255 83.581,112.398 83.479,112.375 83.368 C 112.352 83.257,112.483 83.157,112.667 83.146 C 112.986 83.126,113.187 83.089,113.458 83.001 C 113.527 82.979,113.640 82.969,113.708 82.980 C 113.777 82.991,113.833 82.925,113.833 82.833 C 113.833 82.742,114.017 82.667,114.242 82.667 C 114.466 82.667,114.720 82.542,114.806 82.389 C 114.903 82.215,115.172 82.111,115.522 82.111 C 115.831 82.111,115.989 82.080,115.874 82.041 C 115.542 81.931,115.812 81.667,116.258 81.667 C 116.481 81.667,116.815 81.536,117.001 81.377 C 117.188 81.217,117.470 81.086,117.628 81.085 C 117.787 81.084,117.898 80.990,117.875 80.875 C 117.852 80.760,117.983 80.657,118.167 80.646 C 118.486 80.626,118.687 80.589,118.958 80.501 C 119.027 80.479,119.140 80.469,119.208 80.480 C 119.277 80.491,119.333 80.425,119.333 80.333 C 119.333 80.242,119.427 80.165,119.542 80.163 C 119.656 80.161,119.933 80.019,120.156 79.847 C 120.380 79.675,120.672 79.576,120.805 79.628 C 120.939 79.679,121.139 79.596,121.251 79.444 C 121.362 79.291,121.651 79.150,121.893 79.130 C 122.135 79.110,122.333 78.998,122.333 78.880 C 122.333 78.670,122.594 78.599,123.250 78.630 C 123.433 78.638,123.489 78.606,123.374 78.559 C 123.071 78.433,123.293 78.167,123.700 78.167 C 123.891 78.167,124.131 78.051,124.235 77.909 C 124.338 77.768,124.609 77.638,124.837 77.621 C 125.064 77.604,125.383 77.477,125.545 77.339 C 125.707 77.200,125.970 77.086,126.128 77.085 C 126.287 77.084,126.401 76.997,126.381 76.892 C 126.349 76.724,127.379 76.398,127.708 76.472 C 127.777 76.487,127.833 76.434,127.833 76.353 C 127.833 76.210,128.457 75.946,128.708 75.982 C 128.777 75.992,128.833 75.925,128.833 75.833 C 128.833 75.742,129.023 75.667,129.255 75.667 C 129.487 75.667,129.720 75.554,129.773 75.417 C 129.826 75.279,130.045 75.167,130.260 75.167 C 130.474 75.167,130.710 75.073,130.783 74.958 C 130.969 74.668,132.412 73.983,132.689 74.054 C 132.814 74.086,132.860 74.080,132.791 74.042 C 132.568 73.918,132.842 73.667,133.200 73.667 C 133.391 73.667,133.636 73.545,133.745 73.396 C 133.854 73.247,134.143 73.125,134.388 73.125 C 134.633 73.125,134.833 73.064,134.833 72.990 C 134.833 72.876,135.247 72.678,135.708 72.571 C 135.777 72.555,135.890 72.523,135.958 72.501 C 136.027 72.479,136.140 72.469,136.208 72.480 C 136.277 72.491,136.333 72.425,136.333 72.333 C 136.333 72.242,136.523 72.167,136.755 72.167 C 136.987 72.167,137.220 72.054,137.273 71.917 C 137.326 71.779,137.545 71.667,137.760 71.667 C 137.974 71.667,138.210 71.573,138.283 71.458 C 138.491 71.133,139.974 70.464,140.191 70.598 C 140.312 70.673,140.340 70.646,140.265 70.524 C 140.142 70.324,140.806 69.974,141.043 70.114 C 141.112 70.154,141.287 70.071,141.430 69.927 C 141.653 69.704,141.996 69.621,142.443 69.682 C 142.504 69.690,142.620 69.577,142.702 69.432 C 142.783 69.286,143.030 69.167,143.250 69.167 C 143.470 69.167,143.717 69.047,143.799 68.901 C 143.881 68.754,144.140 68.623,144.375 68.609 C 144.609 68.595,144.770 68.532,144.731 68.470 C 144.618 68.287,145.011 68.116,145.513 68.131 C 145.769 68.138,146.067 68.036,146.176 67.905 C 146.285 67.774,146.549 67.667,146.762 67.667 C 146.976 67.667,147.210 67.573,147.283 67.458 C 147.485 67.143,148.475 66.667,148.930 66.667 C 149.152 66.667,149.333 66.597,149.333 66.511 C 149.333 66.359,149.835 66.132,150.000 66.210 C 150.046 66.231,150.327 66.075,150.625 65.863 C 150.923 65.651,151.167 65.524,151.167 65.581 C 151.167 65.639,151.373 65.573,151.625 65.436 C 151.877 65.299,152.365 65.141,152.708 65.086 C 153.052 65.030,153.333 64.913,153.333 64.826 C 153.333 64.738,153.459 64.667,153.612 64.667 C 153.765 64.667,154.023 64.547,154.185 64.400 C 154.347 64.253,154.752 64.133,155.085 64.133 C 155.450 64.133,155.725 64.041,155.779 63.900 C 155.829 63.772,155.986 63.667,156.130 63.667 C 156.273 63.667,156.514 63.555,156.664 63.419 C 156.815 63.282,157.261 63.145,157.655 63.114 C 158.078 63.081,158.430 62.953,158.515 62.801 C 158.603 62.643,158.808 62.573,159.048 62.619 C 159.277 62.663,159.527 62.585,159.656 62.430 C 159.776 62.285,160.009 62.167,160.173 62.167 C 160.627 62.167,161.009 61.983,160.906 61.816 C 160.855 61.734,161.041 61.667,161.318 61.667 C 161.595 61.667,162.068 61.564,162.369 61.438 C 163.150 61.113,163.995 60.826,164.649 60.664 C 164.961 60.587,165.272 60.433,165.340 60.322 C 165.409 60.211,165.766 60.106,166.133 60.088 C 166.500 60.071,166.924 59.933,167.075 59.782 C 167.242 59.615,167.542 59.531,167.845 59.566 C 168.160 59.603,168.392 59.533,168.480 59.375 C 168.557 59.238,168.821 59.104,169.068 59.077 C 169.314 59.050,169.615 58.946,169.735 58.845 C 169.856 58.745,170.284 58.618,170.686 58.562 C 171.088 58.506,171.463 58.388,171.519 58.298 C 171.576 58.209,171.913 58.097,172.269 58.050 C 172.625 58.002,172.964 57.888,173.022 57.796 C 173.079 57.704,173.417 57.608,173.772 57.584 C 174.126 57.559,174.515 57.530,174.635 57.520 C 174.755 57.509,174.807 57.425,174.750 57.333 C 174.649 57.170,174.794 57.145,176.032 57.118 C 176.371 57.110,176.610 57.043,176.564 56.968 C 176.463 56.805,177.302 56.461,177.502 56.585 C 177.580 56.633,177.696 56.588,177.759 56.485 C 177.844 56.348,177.908 56.351,177.997 56.495 C 178.086 56.640,178.185 56.624,178.374 56.436 C 178.602 56.208,178.938 56.156,181.135 56.014 C 181.255 56.006,181.307 55.925,181.250 55.833 C 181.143 55.660,181.237 55.645,182.542 55.635 C 183.103 55.631,183.333 55.562,183.333 55.398 C 183.333 55.271,183.446 55.167,183.583 55.167 C 183.721 55.167,183.833 55.242,183.833 55.333 C 183.833 55.521,184.198 55.487,184.348 55.285 C 184.401 55.212,184.982 55.137,185.639 55.118 C 186.295 55.099,186.833 55.021,186.833 54.945 C 186.833 54.869,187.068 54.858,187.354 54.921 C 187.641 54.984,187.836 54.971,187.788 54.893 C 187.685 54.724,188.694 54.623,190.708 54.600 C 191.878 54.587,192.168 54.534,192.179 54.333 C 192.187 54.196,192.225 54.158,192.263 54.250 C 192.309 54.358,194.528 54.400,198.583 54.368 C 202.021 54.341,204.833 54.379,204.833 54.451 C 204.833 54.524,205.827 54.573,207.042 54.560 C 208.256 54.548,209.813 54.609,210.500 54.696 C 211.188 54.784,211.844 54.863,211.958 54.872 C 212.073 54.881,212.167 54.933,212.167 54.986 C 212.168 55.238,213.167 55.104,213.178 54.851 C 213.188 54.622,213.206 54.619,213.303 54.833 C 213.384 55.010,213.734 55.097,214.500 55.132 C 215.242 55.165,215.645 55.262,215.781 55.440 C 215.889 55.583,216.055 55.653,216.148 55.595 C 216.407 55.435,218.497 55.688,218.721 55.907 C 218.828 56.012,219.254 56.086,219.667 56.070 C 220.079 56.055,220.725 56.144,221.101 56.270 C 221.478 56.395,222.111 56.538,222.508 56.588 C 222.905 56.638,223.329 56.761,223.450 56.861 C 223.572 56.962,223.989 57.080,224.377 57.124 C 224.766 57.168,225.196 57.262,225.333 57.333 C 225.471 57.403,225.916 57.517,226.324 57.584 C 226.731 57.652,227.168 57.811,227.295 57.938 C 227.422 58.065,227.709 58.135,227.933 58.095 C 228.185 58.049,228.449 58.135,228.628 58.321 C 228.787 58.487,229.161 58.627,229.459 58.633 C 229.757 58.639,230.119 58.762,230.263 58.906 C 230.406 59.049,230.749 59.167,231.024 59.167 C 231.299 59.167,231.636 59.279,231.774 59.417 C 231.911 59.554,232.243 59.667,232.512 59.667 C 232.780 59.667,233.000 59.742,233.000 59.833 C 233.000 59.925,233.056 59.989,233.125 59.976 C 233.486 59.905,234.667 60.237,234.667 60.410 C 234.667 60.520,234.798 60.609,234.958 60.609 C 235.806 60.605,236.167 60.688,236.167 60.888 C 236.167 61.010,236.298 61.109,236.458 61.109 C 237.344 61.105,237.667 61.186,237.667 61.411 C 237.667 61.563,237.764 61.619,237.923 61.558 C 238.064 61.504,238.308 61.576,238.465 61.718 C 238.622 61.860,238.825 61.985,238.917 61.995 C 239.253 62.034,239.921 62.216,240.083 62.312 C 240.175 62.367,240.287 62.419,240.333 62.427 C 241.271 62.601,241.660 62.742,241.733 62.933 C 241.783 63.062,242.007 63.167,242.231 63.167 C 242.730 63.167,243.188 63.330,243.099 63.476 C 243.062 63.535,243.268 63.600,243.557 63.621 C 243.845 63.642,244.107 63.736,244.138 63.830 C 244.169 63.924,244.484 64.047,244.837 64.103 C 245.190 64.160,245.521 64.314,245.572 64.447 C 245.623 64.579,245.736 64.643,245.824 64.589 C 245.912 64.535,246.267 64.643,246.614 64.829 C 246.961 65.015,247.407 65.167,247.605 65.167 C 247.803 65.167,248.007 65.278,248.059 65.414 C 248.114 65.558,248.264 65.619,248.417 65.560 C 248.561 65.505,248.808 65.574,248.965 65.714 C 249.122 65.854,249.571 66.054,249.963 66.159 C 250.356 66.263,250.642 66.405,250.600 66.473 C 250.558 66.542,250.665 66.608,250.839 66.621 C 251.235 66.651,252.325 67.144,252.702 67.465 C 252.859 67.598,253.101 67.664,253.239 67.611 C 253.381 67.556,253.584 67.647,253.705 67.819 C 253.827 67.995,254.122 68.125,254.395 68.125 C 254.657 68.125,254.931 68.221,255.003 68.338 C 255.076 68.456,255.343 68.574,255.598 68.601 C 255.853 68.628,256.127 68.768,256.207 68.912 C 256.288 69.056,256.426 69.129,256.513 69.075 C 256.601 69.021,256.915 69.122,257.211 69.300 C 257.508 69.478,257.959 69.673,258.215 69.733 C 258.501 69.801,258.636 69.915,258.564 70.031 C 258.493 70.146,258.524 70.172,258.643 70.098 C 258.833 69.980,260.644 70.770,260.856 71.063 C 260.915 71.144,261.044 71.159,261.144 71.098 C 261.243 71.036,261.452 71.135,261.609 71.318 C 261.765 71.500,261.960 71.608,262.042 71.557 C 262.124 71.507,262.369 71.632,262.587 71.837 C 262.805 72.041,263.094 72.166,263.229 72.114 C 263.365 72.062,263.565 72.127,263.674 72.259 C 263.783 72.390,264.166 72.577,264.524 72.673 C 264.883 72.770,265.144 72.902,265.104 72.966 C 265.065 73.031,265.217 73.094,265.442 73.108 C 265.668 73.122,265.980 73.247,266.135 73.387 C 266.290 73.526,266.623 73.692,266.875 73.755 C 267.127 73.818,267.333 73.944,267.333 74.036 C 267.333 74.127,267.446 74.159,267.583 74.106 C 267.721 74.054,267.833 74.083,267.833 74.172 C 267.833 74.261,267.946 74.333,268.083 74.333 C 268.221 74.333,268.333 74.416,268.333 74.518 C 268.333 74.619,268.448 74.658,268.588 74.605 C 268.731 74.550,268.961 74.646,269.112 74.822 C 269.261 74.996,269.470 75.104,269.577 75.063 C 269.684 75.022,269.905 75.136,270.068 75.316 C 270.231 75.497,270.458 75.608,270.572 75.565 C 270.686 75.521,270.876 75.601,270.994 75.742 C 271.111 75.884,271.278 76.000,271.364 76.000 C 271.549 76.000,273.379 76.845,273.500 76.986 C 273.546 77.040,273.733 77.106,273.917 77.134 C 274.318 77.195,276.706 78.356,276.856 78.563 C 276.915 78.644,277.046 78.658,277.148 78.595 C 277.250 78.532,277.333 78.560,277.333 78.657 C 277.333 78.754,277.446 78.833,277.583 78.833 C 277.721 78.833,277.833 78.908,277.833 79.000 C 277.833 79.092,277.974 79.167,278.146 79.167 C 278.318 79.167,278.552 79.278,278.665 79.415 C 278.778 79.551,278.943 79.618,279.031 79.564 C 279.119 79.510,279.369 79.632,279.587 79.837 C 279.805 80.041,280.094 80.166,280.229 80.114 C 280.365 80.062,280.562 80.124,280.668 80.251 C 280.774 80.379,281.116 80.568,281.430 80.671 C 281.743 80.775,282.000 80.912,282.000 80.977 C 282.000 81.041,282.201 81.111,282.446 81.131 C 282.691 81.151,283.016 81.280,283.167 81.417 C 283.319 81.554,283.497 81.667,283.564 81.667 C 283.791 81.667,285.146 82.332,285.245 82.492 C 285.300 82.580,285.442 82.614,285.562 82.568 C 285.682 82.522,285.872 82.596,285.985 82.733 C 286.099 82.869,286.298 82.939,286.429 82.889 C 286.560 82.839,286.667 82.881,286.667 82.982 C 286.667 83.084,286.782 83.167,286.922 83.167 C 287.062 83.167,287.222 83.283,287.277 83.426 C 287.332 83.569,287.485 83.644,287.617 83.593 C 287.750 83.542,288.622 83.867,289.554 84.315 C 290.487 84.763,291.459 85.178,291.715 85.236 C 291.971 85.295,292.145 85.400,292.102 85.470 C 292.058 85.540,292.253 85.615,292.535 85.636 C 293.168 85.685,293.372 85.803,293.227 86.037 C 293.165 86.137,293.188 86.173,293.278 86.118 C 293.367 86.062,293.625 86.113,293.850 86.229 C 294.075 86.346,294.351 86.411,294.463 86.374 C 294.575 86.336,294.667 86.387,294.667 86.486 C 294.667 86.585,294.835 86.669,295.042 86.672 C 295.248 86.675,295.562 86.787,295.740 86.922 C 295.918 87.057,296.196 87.167,296.357 87.167 C 296.518 87.167,296.727 87.298,296.820 87.458 C 296.913 87.619,296.992 87.698,296.995 87.634 C 297.002 87.479,298.000 87.831,298.000 87.988 C 298.000 88.056,298.169 88.096,298.375 88.078 C 298.810 88.040,299.378 88.293,299.266 88.474 C 299.224 88.542,299.353 88.610,299.553 88.625 C 300.167 88.671,300.684 88.837,300.606 88.963 C 300.566 89.029,300.763 89.100,301.045 89.121 C 301.327 89.141,301.607 89.237,301.668 89.335 C 301.728 89.432,302.070 89.559,302.429 89.618 C 302.787 89.676,303.180 89.823,303.302 89.945 C 303.424 90.067,303.773 90.167,304.077 90.167 C 304.416 90.167,304.668 90.264,304.727 90.417 C 304.790 90.582,305.051 90.667,305.495 90.667 C 305.921 90.667,306.167 90.743,306.167 90.875 C 306.168 90.997,306.415 91.096,306.762 91.114 C 307.089 91.131,307.445 91.218,307.553 91.307 C 307.661 91.397,308.050 91.525,308.417 91.592 C 308.783 91.660,309.134 91.794,309.197 91.890 C 309.259 91.987,309.616 92.080,309.989 92.097 C 310.362 92.113,310.764 92.207,310.882 92.305 C 311.000 92.403,311.353 92.528,311.667 92.583 C 311.980 92.639,312.332 92.763,312.449 92.860 C 312.565 92.957,312.943 93.071,313.289 93.115 C 313.634 93.158,314.238 93.300,314.631 93.430 C 315.024 93.560,315.483 93.667,315.652 93.667 C 315.821 93.667,316.229 93.779,316.558 93.917 C 316.887 94.054,317.374 94.167,317.641 94.167 C 317.908 94.167,318.222 94.282,318.339 94.423 C 318.469 94.580,318.785 94.668,319.151 94.651 C 320.118 94.604,320.463 94.654,320.696 94.875 C 320.818 94.990,321.438 95.104,322.076 95.129 C 322.714 95.154,323.288 95.260,323.352 95.364 C 323.422 95.477,324.135 95.582,325.108 95.623 C 326.009 95.661,326.845 95.774,326.965 95.873 C 327.085 95.973,327.874 96.084,328.717 96.118 C 329.560 96.153,330.275 96.253,330.306 96.341 C 330.388 96.577,331.625 96.534,331.723 96.292 C 331.790 96.125,331.810 96.125,331.820 96.292 C 331.839 96.597,353.427 96.597,353.569 96.292 C 353.647 96.125,353.686 96.125,353.764 96.292 C 353.883 96.547,354.283 96.566,354.365 96.321 C 354.398 96.223,354.817 96.134,355.296 96.124 C 355.898 96.111,356.167 96.037,356.167 95.885 C 356.167 95.705,356.230 95.703,356.505 95.874 C 356.780 96.044,356.870 96.041,356.983 95.860 C 357.076 95.710,357.489 95.634,358.228 95.630 C 358.836 95.626,359.333 95.561,359.333 95.484 C 359.333 95.407,359.446 95.387,359.583 95.440 C 359.721 95.492,359.833 95.465,359.833 95.378 C 359.833 95.292,360.077 95.205,360.375 95.185 C 360.673 95.166,361.142 95.124,361.417 95.091 C 361.692 95.059,362.015 95.026,362.135 95.017 C 362.255 95.007,362.307 94.925,362.250 94.833 C 362.193 94.742,362.283 94.657,362.448 94.646 C 362.614 94.634,362.900 94.608,363.083 94.587 C 363.267 94.567,363.590 94.539,363.802 94.525 C 364.013 94.511,364.140 94.425,364.083 94.333 C 364.024 94.238,364.179 94.166,364.448 94.164 C 364.706 94.163,365.027 94.092,365.162 94.006 C 365.318 93.908,365.446 93.913,365.513 94.021 C 365.580 94.129,365.705 94.105,365.856 93.953 C 365.987 93.822,366.449 93.662,366.884 93.597 C 367.318 93.532,367.630 93.408,367.577 93.323 C 367.492 93.185,367.847 93.088,368.213 93.149 C 368.285 93.160,368.551 93.063,368.805 92.931 C 369.059 92.800,369.511 92.665,369.810 92.631 C 370.110 92.597,370.418 92.467,370.495 92.342 C 370.572 92.217,370.866 92.122,371.149 92.130 C 371.449 92.138,371.722 92.038,371.805 91.889 C 371.884 91.749,372.140 91.623,372.375 91.609 C 372.609 91.595,372.766 91.527,372.723 91.457 C 372.632 91.309,373.044 91.130,373.556 91.095 C 373.755 91.081,373.898 90.979,373.875 90.868 C 373.841 90.702,374.400 90.568,374.542 90.708 C 374.565 90.730,374.827 90.575,375.125 90.363 C 375.423 90.151,375.667 90.029,375.667 90.092 C 375.667 90.156,375.794 90.105,375.949 89.979 C 376.192 89.782,376.211 89.785,376.091 90.000 C 376.014 90.138,376.115 90.081,376.315 89.875 C 376.650 89.530,376.880 89.428,377.208 89.480 C 377.277 89.491,377.333 89.425,377.333 89.333 C 377.333 89.242,377.429 89.167,377.546 89.167 C 377.663 89.167,377.886 89.018,378.042 88.837 C 378.202 88.650,378.434 88.549,378.579 88.605 C 378.719 88.658,378.833 88.624,378.833 88.529 C 378.833 88.433,379.092 88.261,379.408 88.147 C 379.724 88.033,379.944 87.878,379.898 87.803 C 379.852 87.728,379.954 87.667,380.125 87.667 C 380.297 87.667,380.666 87.443,380.946 87.169 C 381.226 86.895,381.604 86.649,381.788 86.621 C 381.971 86.593,382.249 86.442,382.406 86.285 C 382.562 86.128,382.765 86.000,382.855 86.000 C 382.946 86.000,382.973 85.925,382.917 85.833 C 382.860 85.742,382.951 85.667,383.120 85.667 C 383.288 85.667,383.554 85.517,383.711 85.333 C 383.868 85.150,384.114 85.000,384.258 85.000 C 384.402 85.000,384.473 84.925,384.417 84.833 C 384.324 84.683,384.543 84.594,384.875 84.647 C 384.944 84.658,385.000 84.570,385.000 84.453 C 385.000 84.335,385.241 84.096,385.535 83.922 C 385.829 83.749,386.277 83.395,386.529 83.137 C 386.782 82.878,387.066 82.667,387.161 82.667 C 387.256 82.667,387.333 82.554,387.333 82.417 C 387.333 82.279,387.408 82.167,387.500 82.167 C 387.771 82.167,389.023 80.961,389.180 80.548 C 389.260 80.338,389.439 80.167,389.579 80.167 C 389.719 80.167,389.835 80.073,389.837 79.958 C 389.839 79.844,390.233 79.332,390.712 78.821 C 391.191 78.309,391.606 77.784,391.634 77.654 C 391.662 77.523,391.781 77.342,391.898 77.250 C 392.192 77.020,394.333 73.908,394.333 73.711 C 394.333 73.623,394.484 73.415,394.668 73.249 C 394.852 73.083,394.969 72.914,394.929 72.873 C 394.826 72.770,395.492 71.486,395.868 71.064 C 396.041 70.871,396.160 70.646,396.134 70.564 C 396.059 70.333,396.824 68.667,397.005 68.667 C 397.094 68.667,397.167 68.494,397.167 68.282 C 397.167 68.070,397.277 67.751,397.411 67.574 C 397.546 67.396,397.658 67.039,397.661 66.782 C 397.664 66.506,397.737 66.357,397.837 66.419 C 397.931 66.477,397.992 66.463,397.973 66.387 C 397.891 66.071,398.210 64.838,398.418 64.665 C 398.542 64.562,398.637 64.258,398.630 63.989 C 398.622 63.719,398.751 63.349,398.917 63.166 C 399.148 62.911,399.163 62.833,398.984 62.831 C 398.794 62.829,398.797 62.798,399.000 62.667 C 399.176 62.553,399.186 62.504,399.036 62.503 C 398.872 62.501,398.864 62.420,399.004 62.159 C 399.104 61.972,399.229 61.466,399.281 61.034 C 399.333 60.603,399.425 60.212,399.486 60.167 C 399.547 60.121,399.615 59.599,399.637 59.006 C 399.660 58.414,399.759 57.879,399.858 57.818 C 399.978 57.744,399.962 57.677,399.811 57.617 C 399.641 57.549,399.638 57.523,399.796 57.513 C 399.966 57.503,400.006 56.022,399.995 50.246 C 399.986 45.759,399.921 43.029,399.824 43.089 C 399.737 43.143,399.657 42.901,399.645 42.552 C 399.602 41.302,399.571 41.015,399.464 40.909 C 399.405 40.849,399.401 40.683,399.456 40.540 C 399.529 40.349,399.493 40.315,399.320 40.414 C 399.128 40.523,399.123 40.506,399.292 40.324 C 399.530 40.067,399.573 39.768,399.352 39.905 C 399.271 39.955,399.152 39.653,399.090 39.233 C 398.973 38.456,398.959 38.386,398.689 37.292 C 398.604 36.948,398.576 36.667,398.627 36.667 C 398.677 36.667,398.599 36.534,398.452 36.373 C 398.306 36.211,398.105 35.742,398.005 35.331 C 397.905 34.920,397.796 34.467,397.761 34.324 C 397.727 34.182,397.579 33.779,397.433 33.429 C 397.286 33.079,397.167 32.614,397.167 32.396 C 397.167 32.178,397.018 31.852,396.837 31.670 C 396.656 31.489,396.551 31.227,396.605 31.087 C 396.659 30.948,396.629 30.833,396.540 30.833 C 396.451 30.833,396.115 30.290,395.793 29.625 C 395.470 28.960,395.049 28.238,394.857 28.020 C 394.664 27.802,394.547 27.558,394.597 27.478 C 394.646 27.399,394.607 27.333,394.510 27.333 C 394.413 27.333,394.333 27.259,394.333 27.168 C 394.333 27.077,394.176 26.821,393.983 26.599 C 393.790 26.378,393.646 26.146,393.663 26.083 C 393.680 26.021,393.444 25.747,393.138 25.475 C 392.833 25.202,392.581 24.928,392.578 24.865 C 392.565 24.601,391.544 23.369,390.824 22.750 C 390.398 22.383,390.077 22.032,390.111 21.970 C 390.144 21.908,390.019 21.809,389.833 21.750 C 389.647 21.691,389.535 21.578,389.583 21.500 C 389.632 21.422,389.520 21.309,389.336 21.251 C 389.151 21.192,389.000 21.070,389.000 20.979 C 389.000 20.888,388.940 20.851,388.867 20.896 C 388.794 20.941,388.625 20.909,388.492 20.825 C 388.282 20.692,388.283 20.670,388.500 20.659 C 388.641 20.651,388.581 20.578,388.364 20.491 C 388.152 20.406,388.025 20.261,388.082 20.168 C 388.140 20.076,388.107 19.991,388.010 19.979 C 387.913 19.968,387.761 19.949,387.672 19.938 C 387.583 19.926,387.358 19.786,387.172 19.627 C 386.986 19.467,386.833 19.390,386.833 19.455 C 386.833 19.521,386.717 19.407,386.574 19.204 C 386.431 19.000,386.206 18.833,386.074 18.833 C 385.942 18.833,385.833 18.758,385.833 18.667 C 385.833 18.575,385.777 18.512,385.708 18.526 C 385.519 18.566,384.945 18.297,384.696 18.051 C 384.575 17.931,384.340 17.833,384.173 17.833 C 384.006 17.833,383.822 17.710,383.764 17.559 C 383.706 17.409,383.614 17.331,383.559 17.386 C 383.504 17.441,383.026 17.260,382.497 16.985 C 381.967 16.710,381.321 16.447,381.059 16.402 C 380.797 16.356,380.508 16.227,380.417 16.114 C 380.325 16.001,380.137 15.915,380.000 15.923 C 379.863 15.931,379.544 15.838,379.292 15.715 C 379.040 15.592,378.833 15.546,378.833 15.612 C 378.833 15.679,378.743 15.643,378.633 15.533 C 378.523 15.423,378.231 15.333,377.984 15.333 C 377.738 15.333,377.499 15.237,377.454 15.120 C 377.402 14.985,377.107 14.919,376.644 14.940 C 376.244 14.958,375.654 14.890,375.333 14.789 C 374.492 14.525,374.281 14.498,372.250 14.406 C 369.480 14.280,366.711 14.358,366.007 14.581 C 365.791 14.650,365.667 14.615,365.667 14.485 C 365.667 14.359,365.537 14.399,365.326 14.590 C 365.138 14.760,364.725 14.910,364.408 14.923 C 364.091 14.936,363.782 14.996,363.721 15.056 C 363.661 15.117,363.436 15.167,363.222 15.167 C 363.008 15.167,362.833 15.232,362.833 15.313 C 362.833 15.393,362.608 15.440,362.333 15.417 C 362.058 15.393,361.833 15.438,361.833 15.515 C 361.833 15.593,361.709 15.608,361.556 15.550 C 361.370 15.478,361.318 15.507,361.399 15.638 C 361.520 15.834,361.292 15.896,360.550 15.866 C 360.319 15.856,360.144 15.977,360.076 16.191 C 360.004 16.418,359.866 16.504,359.662 16.451 C 359.494 16.407,359.218 16.499,359.049 16.657 C 358.880 16.815,358.580 16.932,358.382 16.917 C 358.161 16.901,357.993 17.007,357.944 17.195 C 357.900 17.363,357.714 17.500,357.530 17.500 C 357.346 17.500,356.987 17.721,356.732 17.990 C 356.478 18.260,356.208 18.442,356.134 18.396 C 356.059 18.350,355.953 18.429,355.898 18.573 C 355.843 18.716,355.710 18.833,355.602 18.833 C 355.495 18.833,355.299 18.983,355.167 19.167 C 355.035 19.350,354.830 19.500,354.713 19.500 C 354.596 19.500,354.500 19.588,354.500 19.695 C 354.500 19.803,354.144 20.232,353.708 20.650 C 353.273 21.067,352.907 21.486,352.894 21.579 C 352.882 21.673,352.863 21.844,352.853 21.958 C 352.842 22.073,352.721 22.167,352.583 22.167 C 352.446 22.167,352.333 22.279,352.333 22.417 C 352.333 22.554,352.216 22.667,352.072 22.667 C 351.887 22.667,351.842 22.763,351.917 23.001 C 351.987 23.223,351.935 23.369,351.761 23.435 C 351.618 23.491,351.500 23.672,351.500 23.839 C 351.500 24.006,351.397 24.246,351.270 24.373 C 351.144 24.499,350.988 24.842,350.924 25.134 C 350.859 25.427,350.738 25.667,350.653 25.667 C 350.569 25.667,350.500 25.746,350.500 25.843 C 350.500 25.940,350.583 25.969,350.684 25.906 C 350.785 25.843,350.741 25.986,350.586 26.222 C 350.431 26.459,350.348 26.723,350.401 26.809 C 350.455 26.895,350.393 27.167,350.265 27.414 C 349.994 27.938,349.986 32.274,350.256 32.468 C 350.344 32.531,350.428 32.936,350.443 33.366 C 350.457 33.797,350.580 34.308,350.716 34.502 C 350.852 34.696,350.925 35.000,350.879 35.177 C 350.831 35.361,350.879 35.500,350.990 35.500 C 351.098 35.500,351.147 35.564,351.099 35.641 C 351.051 35.719,351.154 35.936,351.329 36.124 C 351.504 36.311,351.602 36.510,351.547 36.565 C 351.492 36.620,351.583 36.815,351.749 36.999 C 351.915 37.183,352.003 37.333,351.942 37.333 C 351.882 37.333,351.946 37.465,352.084 37.625 C 353.118 38.830,353.465 39.267,353.478 39.378 C 353.529 39.821,356.755 42.994,357.386 43.222 C 357.552 43.282,357.640 43.408,357.582 43.503 C 357.523 43.598,357.537 43.661,357.613 43.644 C 357.865 43.588,358.333 43.866,358.239 44.017 C 358.094 44.252,358.439 44.191,358.642 43.946 C 358.776 43.784,358.771 43.666,358.621 43.505 C 358.457 43.328,358.466 43.311,358.667 43.421 C 358.848 43.520,358.836 43.465,358.625 43.224 C 358.465 43.040,358.333 42.803,358.333 42.695 C 358.333 42.588,358.255 42.500,358.159 42.500 C 358.064 42.500,358.001 42.406,358.019 42.292 C 358.037 42.177,358.009 41.971,357.956 41.833 C 357.876 41.626,357.800 41.276,357.594 40.167 C 357.585 40.121,357.529 40.007,357.469 39.913 C 357.305 39.655,357.357 36.667,357.526 36.667 C 357.607 36.667,357.639 36.480,357.598 36.253 C 357.557 36.025,357.594 35.795,357.681 35.741 C 357.768 35.688,357.795 35.573,357.742 35.487 C 357.689 35.401,357.763 35.286,357.906 35.231 C 358.049 35.176,358.167 35.063,358.167 34.980 C 358.167 34.696,358.916 33.671,359.125 33.669 C 359.240 33.668,359.333 33.563,359.333 33.436 C 359.333 33.309,359.499 33.162,359.701 33.109 C 359.903 33.056,360.014 32.958,359.946 32.891 C 359.827 32.771,360.895 32.167,361.225 32.167 C 361.316 32.167,361.524 32.045,361.688 31.897 C 361.852 31.749,362.265 31.617,362.605 31.603 C 362.945 31.590,363.254 31.487,363.292 31.373 C 363.368 31.145,363.833 31.086,363.833 31.304 C 363.833 31.379,364.133 31.424,364.500 31.404 C 364.867 31.384,365.167 31.416,365.168 31.476 C 365.169 31.535,365.562 31.601,366.043 31.622 C 367.100 31.669,367.706 31.801,367.606 31.963 C 367.565 32.029,367.724 32.095,367.959 32.109 C 368.193 32.123,368.451 32.252,368.531 32.395 C 368.612 32.539,368.937 32.780,369.255 32.930 C 369.573 33.081,369.833 33.313,369.833 33.445 C 369.833 33.578,369.908 33.640,370.000 33.583 C 370.092 33.526,370.234 33.656,370.316 33.872 C 370.398 34.087,370.585 34.363,370.731 34.484 C 370.877 34.605,370.955 34.771,370.905 34.852 C 370.855 34.933,370.931 35.000,371.073 35.000 C 371.216 35.000,371.333 35.112,371.333 35.250 C 371.333 35.387,371.401 35.500,371.484 35.500 C 371.659 35.500,372.039 36.498,371.866 36.505 C 371.802 36.508,371.881 36.587,372.042 36.680 C 372.202 36.773,372.333 36.996,372.333 37.175 C 372.333 37.354,372.406 37.500,372.495 37.500 C 372.584 37.500,372.608 37.625,372.550 37.777 C 372.478 37.964,372.507 38.015,372.638 37.934 C 372.758 37.860,372.841 37.930,372.852 38.115 C 372.909 39.007,373.006 39.401,373.200 39.521 C 373.505 39.709,373.509 46.025,373.205 46.126 C 373.092 46.164,373.000 46.397,373.000 46.643 C 373.000 46.890,372.883 47.259,372.741 47.463 C 372.542 47.747,372.532 47.834,372.699 47.836 C 372.874 47.838,372.875 47.865,372.704 47.973 C 372.588 48.047,372.461 48.272,372.422 48.473 C 372.383 48.675,372.234 48.956,372.091 49.100 C 371.948 49.243,371.866 49.418,371.909 49.488 C 371.953 49.559,371.860 49.759,371.703 49.933 C 371.545 50.108,371.154 50.604,370.833 51.037 C 370.512 51.469,370.156 51.825,370.042 51.828 C 369.927 51.831,369.833 51.946,369.833 52.083 C 369.833 52.221,369.721 52.333,369.583 52.333 C 369.446 52.333,369.333 52.446,369.333 52.583 C 369.333 52.721,369.221 52.833,369.083 52.833 C 368.946 52.833,368.833 52.946,368.833 53.083 C 368.833 53.221,368.721 53.333,368.583 53.333 C 368.446 53.333,368.333 53.408,368.333 53.500 C 368.333 53.592,368.229 53.667,368.103 53.667 C 367.976 53.667,367.749 53.854,367.599 54.083 C 367.449 54.313,367.224 54.500,367.100 54.500 C 366.976 54.500,366.779 54.614,366.663 54.754 C 366.547 54.894,366.414 54.969,366.366 54.922 C 366.319 54.874,366.172 54.990,366.039 55.179 C 365.907 55.368,365.702 55.485,365.584 55.440 C 365.466 55.395,365.211 55.506,365.016 55.687 C 364.822 55.869,364.600 55.978,364.523 55.931 C 364.446 55.884,364.217 56.000,364.014 56.189 C 363.811 56.379,363.608 56.497,363.563 56.452 C 363.519 56.408,363.208 56.504,362.873 56.667 C 362.539 56.830,362.093 56.944,361.882 56.921 C 361.672 56.898,361.500 56.937,361.500 57.007 C 361.500 57.164,360.560 57.505,360.445 57.390 C 360.399 57.344,360.205 57.390,360.014 57.492 C 359.746 57.636,359.665 57.630,359.661 57.464 C 359.658 57.308,359.601 57.318,359.452 57.500 C 359.186 57.827,359.001 57.864,357.417 57.913 C 356.683 57.935,356.046 57.970,356.000 57.990 C 355.917 58.027,354.738 57.995,353.000 57.907 C 352.496 57.882,351.933 57.854,351.750 57.845 C 351.473 57.831,351.459 57.801,351.667 57.667 C 351.804 57.578,351.842 57.499,351.750 57.491 C 351.658 57.484,351.283 57.461,350.917 57.442 C 350.550 57.422,350.137 57.336,350.000 57.249 C 349.732 57.081,349.462 57.009,348.889 56.952 C 348.690 56.933,348.540 56.848,348.556 56.764 C 348.571 56.680,348.330 56.556,348.020 56.489 C 347.710 56.422,347.399 56.272,347.327 56.157 C 347.256 56.042,346.924 55.929,346.588 55.907 C 346.253 55.884,345.847 55.746,345.685 55.600 C 345.523 55.453,345.265 55.333,345.112 55.333 C 344.959 55.333,344.833 55.260,344.833 55.170 C 344.833 55.080,344.646 54.959,344.418 54.902 C 344.189 54.845,344.034 54.747,344.073 54.684 C 344.111 54.622,343.772 54.400,343.318 54.192 C 342.864 53.984,342.536 53.743,342.589 53.657 C 342.643 53.571,342.495 53.500,342.262 53.500 C 341.876 53.500,341.531 53.298,340.910 52.708 C 340.789 52.594,340.611 52.500,340.513 52.500 C 340.243 52.500,339.500 51.802,339.599 51.642 C 339.647 51.564,339.607 51.491,339.510 51.479 C 339.413 51.468,339.261 51.449,339.172 51.438 C 339.083 51.426,338.858 51.286,338.672 51.127 C 338.486 50.967,338.333 50.873,338.333 50.918 C 338.333 50.963,338.188 50.869,338.011 50.708 C 337.406 50.162,336.887 49.786,336.318 49.483 C 336.006 49.317,335.862 49.175,336.000 49.167 C 336.137 49.160,336.001 49.045,335.697 48.913 C 335.348 48.762,335.188 48.601,335.264 48.477 C 335.342 48.351,335.313 48.327,335.181 48.408 C 335.052 48.488,334.944 48.406,334.886 48.183 C 334.836 47.991,334.723 47.833,334.636 47.833 C 334.549 47.833,334.063 47.496,333.557 47.083 C 333.050 46.671,332.549 46.332,332.443 46.331 C 332.335 46.329,332.360 46.257,332.500 46.167 C 332.664 46.061,332.679 46.004,332.544 46.003 C 332.430 46.001,332.205 45.893,332.044 45.762 C 331.882 45.630,331.506 45.324,331.208 45.080 C 330.910 44.836,330.709 44.566,330.762 44.481 C 330.815 44.395,330.796 44.339,330.721 44.356 C 330.501 44.405,329.995 44.143,330.071 44.019 C 330.110 43.958,329.744 43.647,329.260 43.328 C 328.720 42.974,328.451 42.703,328.564 42.628 C 328.692 42.544,328.680 42.504,328.529 42.503 C 328.407 42.501,327.981 42.181,327.582 41.792 C 327.183 41.402,326.514 40.767,326.095 40.381 C 325.676 39.995,325.333 39.601,325.333 39.506 C 325.333 39.411,325.250 39.333,325.149 39.333 C 324.906 39.333,323.994 38.562,324.105 38.450 C 324.153 38.403,324.035 38.314,323.843 38.253 C 323.652 38.192,323.538 38.073,323.591 37.988 C 323.643 37.903,323.614 37.833,323.527 37.833 C 323.439 37.833,322.870 37.383,322.263 36.833 C 321.657 36.283,321.068 35.832,320.955 35.831 C 320.823 35.829,320.839 35.771,321.000 35.667 C 321.187 35.546,321.194 35.504,321.028 35.503 C 320.906 35.501,320.366 35.069,319.828 34.542 C 319.290 34.015,318.378 33.134,317.800 32.585 C 317.223 32.037,316.766 31.538,316.786 31.477 C 316.806 31.416,316.634 31.319,316.404 31.262 C 316.174 31.204,316.023 31.097,316.069 31.024 C 316.114 30.950,315.866 30.710,315.518 30.490 C 315.170 30.270,314.704 29.852,314.484 29.560 C 314.264 29.268,314.043 29.042,313.994 29.056 C 313.843 29.102,312.581 27.803,312.625 27.647 C 312.648 27.566,312.565 27.500,312.441 27.500 C 312.170 27.500,311.233 26.658,311.292 26.468 C 311.315 26.394,311.277 26.345,311.208 26.360 C 310.963 26.412,310.504 26.129,310.594 25.983 C 310.645 25.900,310.618 25.833,310.534 25.833 C 310.450 25.833,310.200 25.665,309.977 25.458 C 309.755 25.252,309.536 25.083,309.491 25.083 C 309.325 25.083,308.426 24.166,308.585 24.160 C 308.676 24.157,308.501 24.045,308.197 23.913 C 307.892 23.781,307.691 23.595,307.751 23.499 C 307.810 23.403,307.796 23.345,307.721 23.370 C 307.439 23.462,305.543 21.888,305.625 21.630 C 305.648 21.559,305.557 21.500,305.422 21.500 C 305.288 21.500,304.932 21.285,304.631 21.022 C 304.330 20.760,303.905 20.489,303.686 20.421 C 303.418 20.337,303.355 20.256,303.492 20.172 C 303.630 20.086,303.578 20.016,303.331 19.951 C 303.130 19.899,303.012 19.782,303.068 19.691 C 303.124 19.601,302.907 19.440,302.585 19.334 C 302.264 19.228,301.900 18.997,301.777 18.822 C 301.654 18.646,301.504 18.552,301.443 18.612 C 301.383 18.673,301.333 18.630,301.333 18.518 C 301.333 18.406,301.253 18.363,301.155 18.424 C 301.058 18.484,300.937 18.377,300.887 18.185 C 300.836 17.994,300.734 17.875,300.659 17.921 C 300.584 17.968,300.405 17.838,300.261 17.632 C 300.118 17.427,300.000 17.326,300.000 17.409 C 300.000 17.491,299.826 17.394,299.613 17.194 C 299.400 16.994,299.172 16.884,299.106 16.950 C 299.040 17.015,298.944 16.903,298.891 16.701 C 298.838 16.499,298.691 16.333,298.564 16.333 C 298.437 16.333,298.333 16.260,298.333 16.170 C 298.333 16.080,298.146 15.959,297.917 15.902 C 297.688 15.844,297.500 15.693,297.500 15.565 C 297.500 15.438,297.350 15.333,297.167 15.333 C 296.983 15.333,296.833 15.258,296.833 15.167 C 296.833 15.075,296.721 15.000,296.583 15.000 C 296.446 15.000,296.189 14.869,296.012 14.708 C 295.396 14.149,295.179 14.000,294.984 14.000 C 294.877 14.000,294.611 13.808,294.393 13.574 C 294.176 13.340,293.922 13.195,293.828 13.253 C 293.735 13.311,293.679 13.259,293.704 13.137 C 293.732 13.005,293.628 12.937,293.445 12.969 C 293.252 13.002,293.108 12.896,293.051 12.679 C 293.002 12.491,292.884 12.385,292.789 12.444 C 292.694 12.503,292.522 12.422,292.407 12.264 C 292.291 12.107,292.153 11.981,292.100 11.984 C 291.844 12.002,291.512 11.782,291.594 11.649 C 291.645 11.567,291.569 11.491,291.427 11.479 C 290.910 11.438,290.839 11.413,290.538 11.167 C 290.370 11.029,289.937 10.767,289.575 10.584 C 289.213 10.401,288.818 10.157,288.696 10.042 C 288.575 9.927,288.338 9.833,288.169 9.833 C 288.000 9.833,287.832 9.746,287.797 9.640 C 287.761 9.534,287.556 9.420,287.341 9.387 C 287.126 9.355,286.762 9.126,286.534 8.879 C 286.305 8.632,285.963 8.406,285.774 8.377 C 285.586 8.348,285.378 8.239,285.313 8.133 C 285.247 8.028,285.022 7.915,284.813 7.883 C 284.603 7.851,284.378 7.738,284.312 7.632 C 284.247 7.527,283.979 7.430,283.717 7.418 C 283.301 7.398,282.734 7.165,281.833 6.641 C 281.696 6.561,281.377 6.414,281.125 6.315 C 280.873 6.215,280.667 6.079,280.667 6.011 C 280.667 5.944,280.573 5.881,280.458 5.871 C 279.956 5.828,278.466 5.214,278.326 4.993 C 278.241 4.859,278.171 4.801,278.169 4.862 C 278.165 5.059,276.259 4.323,276.042 4.041 C 275.896 3.851,275.833 3.836,275.833 3.989 C 275.833 4.158,275.780 4.164,275.598 4.012 C 275.468 3.904,275.151 3.778,274.893 3.731 C 274.635 3.685,274.385 3.595,274.337 3.531 C 274.248 3.414,274.070 3.360,273.333 3.224 C 273.104 3.182,272.893 3.081,272.864 3.000 C 272.835 2.918,272.710 2.891,272.586 2.939 C 272.461 2.987,272.185 2.930,271.971 2.813 C 271.539 2.575,271.435 2.550,270.253 2.409 C 269.796 2.354,269.381 2.244,269.332 2.164 C 269.282 2.083,268.832 1.971,268.332 1.914 C 267.831 1.857,267.378 1.738,267.324 1.651 C 267.269 1.563,266.863 1.461,266.421 1.423 C 265.978 1.385,265.562 1.266,265.495 1.159 C 265.427 1.049,264.873 0.942,264.229 0.914 C 263.599 0.886,262.896 0.856,262.667 0.846 C 262.372 0.833,262.315 0.787,262.472 0.687 C 262.652 0.573,262.645 0.527,262.436 0.447 C 262.294 0.393,262.132 0.421,262.077 0.510 C 262.022 0.599,261.897 0.622,261.798 0.562 C 261.700 0.501,261.125 0.429,260.521 0.401 C 259.917 0.373,259.396 0.271,259.364 0.175 C 259.290 -0.048,258.833 -0.055,258.833 0.167 C 258.833 0.258,258.721 0.333,258.583 0.333 C 258.446 0.333,258.333 0.258,258.333 0.167 C 258.333 -0.080,244.715 -0.061,244.632 0.186 C 244.596 0.295,244.093 0.383,243.410 0.399 C 242.772 0.414,242.163 0.481,242.057 0.547 C 241.950 0.613,241.744 0.622,241.598 0.566 C 241.453 0.510,241.333 0.535,241.333 0.621 C 241.333 0.707,241.240 0.788,241.125 0.800 C 241.010 0.812,240.567 0.853,240.139 0.892 C 239.711 0.931,239.293 1.005,239.210 1.056 C 239.128 1.107,238.878 1.186,238.655 1.231 C 237.030 1.557,236.668 1.613,236.603 1.548 C 236.562 1.507,236.354 1.586,236.139 1.724 C 235.925 1.862,235.487 2.006,235.167 2.043 C 234.846 2.081,234.364 2.202,234.096 2.312 C 233.828 2.423,233.525 2.481,233.423 2.442 C 233.320 2.403,233.097 2.472,232.927 2.597 C 232.757 2.721,232.554 2.783,232.475 2.735 C 232.397 2.687,232.333 2.726,232.333 2.823 C 232.333 2.921,232.114 3.000,231.845 3.000 C 231.577 3.000,231.245 3.112,231.107 3.250 C 230.970 3.387,230.662 3.500,230.423 3.500 C 230.184 3.500,229.817 3.612,229.608 3.749 C 229.398 3.887,229.031 4.015,228.792 4.035 C 228.553 4.055,228.394 4.130,228.439 4.202 C 228.483 4.274,228.321 4.333,228.077 4.333 C 227.834 4.333,227.398 4.502,227.109 4.708 C 226.820 4.914,226.565 5.064,226.542 5.041 C 226.431 4.932,226.166 5.025,225.940 5.251 C 225.801 5.389,225.502 5.517,225.273 5.536 C 225.044 5.555,224.894 5.630,224.939 5.702 C 225.013 5.822,224.763 5.901,224.458 5.853 C 224.390 5.842,224.333 5.908,224.333 6.000 C 224.333 6.092,224.221 6.167,224.083 6.167 C 223.946 6.167,223.833 6.236,223.833 6.320 C 223.833 6.404,223.608 6.523,223.333 6.583 C 223.058 6.644,222.833 6.768,222.833 6.859 C 222.833 6.950,222.702 6.997,222.542 6.963 C 222.381 6.929,222.123 7.043,221.967 7.216 C 221.812 7.389,221.605 7.482,221.509 7.422 C 221.412 7.362,221.333 7.393,221.333 7.490 C 221.333 7.587,221.221 7.667,221.083 7.667 C 220.946 7.667,220.833 7.746,220.833 7.843 C 220.833 7.940,220.756 7.972,220.662 7.914 C 220.568 7.856,220.345 7.982,220.168 8.196 C 219.990 8.409,219.842 8.522,219.839 8.446 C 219.836 8.371,219.723 8.409,219.589 8.530 C 219.040 9.025,218.865 9.143,218.790 9.068 C 218.747 9.025,218.533 9.178,218.314 9.409 C 218.096 9.639,217.823 9.829,217.708 9.830 C 217.594 9.832,217.500 9.913,217.500 10.010 C 217.500 10.107,217.424 10.140,217.332 10.083 C 217.240 10.026,217.118 10.100,217.061 10.249 C 217.004 10.398,216.854 10.480,216.728 10.431 C 216.581 10.375,216.500 10.464,216.500 10.682 C 216.500 10.868,216.427 10.975,216.338 10.919 C 216.249 10.864,216.048 10.968,215.891 11.151 C 215.735 11.334,215.549 11.447,215.478 11.403 C 215.406 11.359,215.224 11.513,215.071 11.745 C 214.919 11.977,214.679 12.167,214.536 12.167 C 214.394 12.167,214.328 12.216,214.388 12.277 C 214.449 12.338,214.280 12.521,214.013 12.683 C 213.400 13.056,212.802 13.558,211.897 14.458 C 211.506 14.848,211.124 15.167,211.048 15.167 C 210.800 15.167,207.819 18.264,207.946 18.390 C 208.013 18.458,207.903 18.556,207.701 18.609 C 207.499 18.662,207.333 18.777,207.333 18.864 C 207.333 18.950,207.108 19.211,206.833 19.443 C 206.558 19.674,206.375 19.932,206.427 20.016 C 206.479 20.100,206.404 20.214,206.261 20.269 C 206.117 20.324,206.000 20.441,206.000 20.530 C 206.000 20.763,205.558 21.169,205.437 21.048 C 205.380 20.991,205.333 21.107,205.333 21.306 C 205.333 21.522,205.229 21.667,205.073 21.667 C 204.931 21.667,204.860 21.742,204.918 21.835 C 204.975 21.927,204.848 22.072,204.636 22.158 C 204.424 22.243,204.306 22.317,204.375 22.323 C 204.444 22.329,204.347 22.486,204.161 22.673 C 203.974 22.859,203.864 23.082,203.917 23.167 C 203.970 23.253,203.860 23.418,203.673 23.535 C 203.486 23.651,203.333 23.824,203.333 23.917 C 203.333 24.011,203.147 24.227,202.920 24.398 C 202.692 24.569,202.547 24.774,202.596 24.854 C 202.646 24.934,202.607 25.000,202.510 25.000 C 202.413 25.000,202.333 25.115,202.333 25.255 C 202.333 25.396,202.221 25.554,202.083 25.606 C 201.946 25.659,201.833 25.807,201.833 25.934 C 201.833 26.062,201.713 26.167,201.566 26.167 C 201.396 26.167,201.333 26.258,201.394 26.417 C 201.525 26.759,201.347 27.167,201.066 27.167 C 200.938 27.167,200.833 27.279,200.833 27.417 C 200.833 27.554,200.718 27.667,200.576 27.667 C 200.435 27.667,200.331 27.760,200.346 27.875 C 200.406 28.339,200.317 28.500,200.000 28.500 C 199.702 28.500,199.589 28.327,199.647 27.958 C 199.658 27.890,199.592 27.833,199.500 27.833 C 199.408 27.833,199.333 27.755,199.333 27.659 C 199.333 27.563,199.144 27.296,198.913 27.065 C 198.683 26.834,198.537 26.575,198.590 26.489 C 198.643 26.403,198.607 26.333,198.510 26.333 C 198.413 26.333,198.333 26.242,198.333 26.130 C 198.333 26.019,198.163 25.775,197.955 25.589 C 197.746 25.402,197.485 25.044,197.375 24.792 C 197.264 24.540,197.097 24.333,197.004 24.333 C 196.910 24.333,196.833 24.221,196.833 24.085 C 196.833 23.948,196.683 23.742,196.500 23.628 C 196.317 23.513,196.167 23.325,196.167 23.210 C 196.167 23.094,196.092 23.000,196.000 23.000 C 195.908 23.000,195.833 22.891,195.833 22.758 C 195.833 22.625,195.734 22.457,195.612 22.383 C 195.491 22.310,195.343 22.119,195.284 21.958 C 195.225 21.798,195.058 21.667,194.912 21.667 C 194.766 21.667,194.690 21.597,194.743 21.512 C 194.796 21.426,194.761 21.309,194.667 21.250 C 194.572 21.191,194.537 21.075,194.589 20.990 C 194.641 20.906,194.568 20.882,194.425 20.936 C 194.268 20.997,194.167 20.945,194.167 20.805 C 194.167 20.678,194.021 20.468,193.842 20.340 C 193.664 20.211,193.547 20.059,193.582 20.002 C 193.618 19.944,193.464 19.760,193.240 19.592 C 193.016 19.424,192.833 19.217,192.833 19.133 C 192.833 19.048,191.742 17.896,190.409 16.573 C 189.076 15.249,188.044 14.164,188.117 14.160 C 188.190 14.157,188.001 14.045,187.697 13.913 C 187.348 13.762,187.188 13.601,187.264 13.477 C 187.337 13.360,187.313 13.326,187.204 13.394 C 187.104 13.455,186.974 13.426,186.914 13.329 C 186.854 13.232,186.512 12.968,186.153 12.741 C 185.794 12.515,185.500 12.213,185.500 12.071 C 185.500 11.930,185.430 11.857,185.345 11.910 C 185.260 11.962,184.978 11.818,184.720 11.589 C 183.919 10.879,183.833 10.816,183.833 10.947 C 183.833 11.017,183.717 10.907,183.574 10.704 C 183.431 10.500,183.204 10.333,183.069 10.333 C 182.933 10.333,182.780 10.221,182.727 10.084 C 182.675 9.947,182.561 9.879,182.474 9.933 C 182.387 9.987,182.188 9.889,182.033 9.715 C 181.877 9.542,181.469 9.269,181.125 9.109 C 180.781 8.949,180.500 8.704,180.500 8.566 C 180.500 8.418,180.421 8.363,180.308 8.432 C 180.202 8.498,180.034 8.439,179.933 8.303 C 179.675 7.953,179.025 7.631,178.826 7.755 C 178.734 7.812,178.679 7.769,178.704 7.660 C 178.729 7.551,178.575 7.433,178.362 7.397 C 178.149 7.361,177.862 7.219,177.725 7.082 C 177.588 6.945,177.332 6.833,177.155 6.833 C 176.978 6.833,176.833 6.760,176.833 6.670 C 176.833 6.580,176.628 6.455,176.377 6.392 C 176.125 6.329,175.820 6.177,175.698 6.055 C 175.576 5.933,175.332 5.833,175.155 5.833 C 174.978 5.833,174.833 5.770,174.833 5.693 C 174.833 5.497,174.008 5.142,173.821 5.258 C 173.736 5.310,173.667 5.274,173.667 5.177 C 173.667 5.079,173.554 5.000,173.417 5.000 C 173.279 5.000,173.167 4.921,173.167 4.823 C 173.167 4.726,173.091 4.694,172.999 4.751 C 172.907 4.808,172.792 4.753,172.745 4.630 C 172.693 4.496,172.428 4.413,172.089 4.424 C 171.775 4.434,171.534 4.368,171.551 4.278 C 171.569 4.187,171.283 4.048,170.917 3.969 C 170.550 3.891,170.161 3.708,170.053 3.563 C 169.944 3.418,169.776 3.349,169.678 3.410 C 169.580 3.470,169.406 3.461,169.292 3.390 C 169.177 3.318,168.937 3.237,168.757 3.209 C 168.578 3.181,168.390 3.104,168.341 3.037 C 168.291 2.971,168.025 2.899,167.750 2.878 C 167.475 2.857,167.175 2.745,167.084 2.628 C 166.992 2.512,166.560 2.407,166.124 2.395 C 165.689 2.383,165.213 2.274,165.066 2.152 C 164.920 2.031,164.466 1.916,164.058 1.896 C 163.650 1.876,163.200 1.763,163.057 1.645 C 162.915 1.527,162.487 1.418,162.107 1.403 C 161.300 1.372,160.952 1.297,160.826 1.129 C 160.776 1.062,160.352 0.977,159.885 0.941 C 159.417 0.904,158.951 0.823,158.849 0.760 C 158.747 0.697,158.496 0.692,158.290 0.750 C 157.997 0.832,157.971 0.817,158.167 0.680 C 158.460 0.474,158.462 0.475,156.786 0.442 C 155.892 0.425,155.444 0.346,155.347 0.189 C 155.229 -0.002,155.193 -0.002,155.117 0.189 C 155.053 0.351,155.023 0.356,155.013 0.208 C 154.996 -0.063,154.390 -0.063,154.264 0.208 C 154.186 0.375,154.147 0.375,154.069 0.208 C 153.945 -0.058,140.833 -0.100,140.833 0.167 C 140.833 0.408,140.207 0.372,140.125 0.125 C 140.071 -0.036,140.039 -0.033,139.982 0.136 " stroke="none" fill="#423426" fill-rule="evenodd"></path></g></svg>