<svg id="svg" version="1.1" width="150" height="150" viewBox="0 0 400 101.70575692963752" xmlns="http://www.w3.org/2000/svg" xmlns:xlink="http://www.w3.org/1999/xlink" ><g id="svgg"><path id="path0" d="" stroke="none" fill="#000000" fill-rule="evenodd"></path><path id="path1" d="M286.879 35.667 C 286.879 36.079,286.911 36.248,286.951 36.042 C 286.991 35.835,286.991 35.498,286.951 35.292 C 286.911 35.085,286.879 35.254,286.879 35.667 M215.460 54.951 C 215.668 54.991,215.968 54.990,216.127 54.948 C 216.286 54.906,216.117 54.874,215.750 54.875 C 215.383 54.877,215.253 54.911,215.460 54.951 M88.542 91.782 C 88.702 91.823,88.965 91.823,89.125 91.782 C 89.285 91.740,89.154 91.705,88.833 91.705 C 88.513 91.705,88.381 91.740,88.542 91.782 " stroke="none" fill="#111111" fill-rule="evenodd"></path><path id="path2" d="" stroke="none" fill="#171717" fill-rule="evenodd"></path><path id="path3" d="M112.292 31.291 C 113.323 31.320,115.010 31.320,116.042 31.291 C 117.073 31.262,116.229 31.238,114.167 31.238 C 112.104 31.238,111.260 31.262,112.292 31.291 M90.292 91.790 C 90.773 91.823,91.560 91.823,92.042 91.790 C 92.523 91.756,92.129 91.728,91.167 91.728 C 90.204 91.728,89.810 91.756,90.292 91.790 " stroke="none" fill="#212121" fill-rule="evenodd"></path><path id="path4" d="M105.792 31.291 C 106.640 31.321,108.027 31.321,108.875 31.291 C 109.723 31.261,109.029 31.236,107.333 31.236 C 105.638 31.236,104.944 31.261,105.792 31.291 M344.625 31.292 C 346.665 31.318,350.002 31.318,352.042 31.292 C 354.081 31.265,352.412 31.243,348.333 31.243 C 344.254 31.243,342.585 31.265,344.625 31.292 " stroke="none" fill="#2c2c2c" fill-rule="evenodd"></path><path id="path5" d="M206.208 15.125 C 207.927 15.152,210.740 15.152,212.458 15.125 C 214.177 15.098,212.771 15.076,209.333 15.076 C 205.896 15.076,204.490 15.098,206.208 15.125 M239.114 15.125 C 240.872 15.152,243.797 15.152,245.614 15.125 C 247.430 15.098,245.992 15.076,242.417 15.076 C 238.842 15.076,237.355 15.098,239.114 15.125 M344.292 15.118 C 344.498 15.157,344.835 15.157,345.042 15.118 C 345.248 15.078,345.079 15.045,344.667 15.045 C 344.254 15.045,344.085 15.078,344.292 15.118 M190.214 25.417 C 190.216 25.875,190.248 26.043,190.286 25.789 C 190.325 25.536,190.324 25.161,190.284 24.956 C 190.244 24.751,190.213 24.958,190.214 25.417 M173.723 26.000 C 173.723 26.688,173.752 26.969,173.788 26.625 C 173.824 26.281,173.824 25.719,173.788 25.375 C 173.752 25.031,173.723 25.313,173.723 26.000 M108.708 27.958 C 110.519 27.985,113.481 27.985,115.292 27.958 C 117.102 27.931,115.621 27.909,112.000 27.909 C 108.379 27.909,106.898 27.931,108.708 27.958 M340.169 32.597 C 340.171 32.773,340.248 33.029,340.341 33.167 C 340.464 33.349,340.480 33.282,340.398 32.917 C 340.261 32.304,340.166 32.171,340.169 32.597 M268.125 37.957 C 268.790 37.989,269.877 37.989,270.542 37.957 C 271.206 37.925,270.662 37.900,269.333 37.900 C 268.004 37.900,267.460 37.925,268.125 37.957 M273.717 37.958 C 274.708 37.987,276.283 37.987,277.217 37.958 C 278.152 37.928,277.342 37.904,275.417 37.904 C 273.492 37.904,272.727 37.928,273.717 37.958 M210.771 42.854 C 210.632 43.549,210.767 43.684,210.917 43.000 C 210.980 42.712,210.997 42.441,210.955 42.399 C 210.912 42.357,210.829 42.561,210.771 42.854 M123.892 45.250 C 123.892 46.075,123.920 46.434,123.955 46.047 C 123.990 45.660,123.990 44.985,123.956 44.547 C 123.922 44.109,123.893 44.425,123.892 45.250 M150.708 54.615 C 150.869 54.657,151.131 54.657,151.292 54.615 C 151.452 54.573,151.321 54.539,151.000 54.539 C 150.679 54.539,150.548 54.573,150.708 54.615 M155.208 54.625 C 157.110 54.652,160.223 54.652,162.125 54.625 C 164.027 54.598,162.471 54.576,158.667 54.576 C 154.862 54.576,153.306 54.598,155.208 54.625 M302.333 68.407 C 302.333 68.631,302.395 68.852,302.470 68.898 C 302.545 68.944,302.574 68.761,302.534 68.491 C 302.447 67.896,302.333 67.848,302.333 68.407 M156.612 69.125 C 161.853 69.149,170.478 69.149,175.779 69.125 C 181.080 69.101,176.792 69.081,166.250 69.081 C 155.708 69.081,151.371 69.101,156.612 69.125 M216.292 69.125 C 220.073 69.150,226.260 69.150,230.042 69.125 C 233.823 69.100,230.729 69.080,223.167 69.080 C 215.604 69.080,212.510 69.100,216.292 69.125 M267.042 69.115 C 267.202 69.157,267.465 69.157,267.625 69.115 C 267.785 69.073,267.654 69.039,267.333 69.039 C 267.012 69.039,266.881 69.073,267.042 69.115 M274.208 69.125 C 277.577 69.150,283.090 69.150,286.458 69.125 C 289.827 69.100,287.071 69.079,280.333 69.079 C 273.596 69.079,270.840 69.100,274.208 69.125 M306.553 69.125 C 308.461 69.152,311.536 69.152,313.386 69.125 C 315.236 69.098,313.675 69.076,309.917 69.076 C 306.158 69.076,304.645 69.098,306.553 69.125 " stroke="none" fill="#333333" fill-rule="evenodd"></path><path id="path6" d="" stroke="none" fill="#240000" fill-rule="evenodd"></path><path id="path7" d="" stroke="none" fill="#1c1c00" fill-rule="evenodd"></path><path id="path8" d="" stroke="none" fill="#000055" fill-rule="evenodd"></path><path id="path9" d="" stroke="none" fill="#331111" fill-rule="evenodd"></path><path id="path10" d="" stroke="none" fill="#242400" fill-rule="evenodd"></path><path id="path11" d="" stroke="none" fill="#331f1f" fill-rule="evenodd"></path><path id="path12" d="" stroke="none" fill="#003333" fill-rule="evenodd"></path><path id="path13" d="" stroke="none" fill="#382828" fill-rule="evenodd"></path><path id="path14" d="M6.879 26.167 C 6.879 26.579,6.911 26.748,6.951 26.542 C 6.991 26.335,6.991 25.998,6.951 25.792 C 6.911 25.585,6.879 25.754,6.879 26.167 " stroke="none" fill="#00246d" fill-rule="evenodd"></path><path id="path15" d="" stroke="none" fill="#3c2f2f" fill-rule="evenodd"></path><path id="path16" d="" stroke="none" fill="#001c8e" fill-rule="evenodd"></path><path id="path17" d="M157.986 0.067 C 157.948 0.104,157.392 0.183,156.750 0.242 C 155.454 0.362,154.912 0.439,154.417 0.571 C 154.233 0.621,153.633 0.764,153.083 0.889 C 149.922 1.611,146.783 2.797,144.417 4.162 C 143.958 4.427,143.433 4.723,143.250 4.820 C 142.901 5.006,141.179 6.229,140.066 7.081 C 138.932 7.951,138.129 8.725,135.833 11.163 C 135.512 11.503,134.987 12.165,134.667 12.633 C 134.346 13.101,134.035 13.488,133.976 13.492 C 133.917 13.496,133.619 13.894,133.315 14.375 C 133.010 14.856,132.721 15.287,132.672 15.333 C 132.623 15.379,132.439 15.679,132.263 16.000 C 132.086 16.321,131.893 16.621,131.832 16.667 C 131.671 16.789,129.567 20.939,129.086 22.083 C 128.932 22.450,128.724 22.900,128.625 23.083 C 128.342 23.607,126.782 28.076,126.589 28.917 C 126.568 29.008,126.505 29.196,126.449 29.333 C 126.287 29.730,125.662 32.140,125.390 33.417 C 125.074 34.902,125.031 35.083,125.000 35.083 C 124.962 35.083,124.882 35.491,124.755 36.333 C 124.693 36.746,124.529 37.796,124.391 38.667 C 124.252 39.537,124.112 40.475,124.079 40.750 C 123.994 41.461,124.000 48.633,124.087 49.333 C 124.235 50.528,124.583 52.387,124.805 53.167 C 124.896 53.487,125.088 54.163,125.231 54.667 C 125.375 55.171,125.540 55.752,125.599 55.958 C 125.657 56.165,125.772 56.333,125.853 56.333 C 125.934 56.333,126.000 56.435,126.000 56.558 C 126.000 56.755,126.413 57.579,127.432 59.417 C 128.193 60.790,131.814 64.667,132.335 64.667 C 132.413 64.667,132.585 64.776,132.719 64.909 C 133.177 65.367,135.239 66.500,135.615 66.500 C 135.735 66.500,135.833 66.567,135.833 66.649 C 135.833 66.730,136.018 66.843,136.243 66.900 C 136.468 66.956,136.862 67.090,137.118 67.196 C 137.374 67.302,137.621 67.399,137.667 67.411 C 137.712 67.424,138.200 67.572,138.750 67.740 C 139.300 67.909,140.012 68.105,140.333 68.176 C 140.654 68.247,141.104 68.350,141.333 68.405 C 141.687 68.491,142.750 68.657,144.667 68.926 C 146.288 69.153,185.260 68.977,185.621 68.741 C 186.039 68.467,186.364 67.830,186.636 66.750 C 186.728 66.383,186.961 65.521,187.153 64.833 C 187.345 64.146,187.617 63.058,187.758 62.417 C 187.898 61.775,188.176 60.725,188.375 60.083 C 188.575 59.442,188.748 58.842,188.760 58.750 C 188.772 58.658,188.828 58.471,188.884 58.333 C 189.151 57.679,189.339 55.989,189.178 55.688 C 188.924 55.214,188.795 55.196,185.399 55.174 C 183.630 55.162,182.183 55.083,182.092 54.992 C 181.913 54.813,182.185 53.614,182.605 52.728 C 182.745 52.434,182.879 52.093,182.904 51.971 C 182.965 51.674,183.144 51.219,183.520 50.406 C 183.692 50.033,183.833 49.682,183.833 49.625 C 183.833 49.568,183.921 49.311,184.028 49.053 C 184.269 48.471,184.237 48.569,184.492 47.625 C 184.610 47.190,184.772 46.833,184.853 46.833 C 184.934 46.833,184.988 46.777,184.974 46.708 C 184.959 46.640,185.002 46.433,185.069 46.250 C 185.136 46.067,185.369 45.429,185.587 44.833 C 185.806 44.237,186.035 43.525,186.097 43.250 C 186.159 42.975,186.343 42.412,186.505 42.000 C 186.668 41.587,187.003 40.575,187.249 39.750 C 187.495 38.925,187.754 38.137,187.824 37.999 C 187.894 37.861,188.086 37.186,188.250 36.499 C 188.414 35.812,188.587 35.137,188.634 35.000 C 188.682 34.862,188.734 34.712,188.750 34.667 C 188.766 34.621,188.820 34.471,188.871 34.333 C 188.956 34.101,189.621 31.165,189.758 30.417 C 190.236 27.805,190.340 24.086,190.005 21.667 C 189.691 19.404,189.666 19.284,189.165 17.583 C 188.719 16.067,188.748 16.156,188.526 15.614 C 188.420 15.356,188.333 15.094,188.333 15.031 C 188.332 14.968,188.145 14.548,187.916 14.097 C 187.687 13.646,187.500 13.183,187.500 13.069 C 187.500 12.955,187.439 12.836,187.365 12.806 C 187.291 12.775,186.868 12.138,186.426 11.391 C 185.984 10.643,185.426 9.820,185.186 9.562 C 184.946 9.303,184.750 9.052,184.750 9.004 C 184.750 8.706,181.285 5.343,180.970 5.336 C 180.908 5.335,180.756 5.240,180.632 5.125 C 180.266 4.785,179.452 4.235,178.745 3.850 C 178.381 3.652,177.769 3.313,177.385 3.098 C 177.001 2.882,175.951 2.426,175.052 2.085 C 174.152 1.743,173.296 1.403,173.148 1.328 C 173.000 1.254,172.400 1.101,171.815 0.989 C 171.229 0.877,170.630 0.725,170.483 0.650 C 170.336 0.576,169.736 0.468,169.150 0.411 C 168.563 0.354,167.633 0.239,167.083 0.155 C 166.118 0.008,158.127 -0.069,157.986 0.067 M382.221 6.334 C 381.879 6.472,380.832 7.755,380.318 8.667 C 380.189 8.896,380.042 9.121,379.991 9.167 C 379.941 9.212,379.672 9.587,379.394 10.000 C 377.282 13.137,376.256 14.601,376.100 14.706 C 375.999 14.773,375.979 14.829,376.056 14.831 C 376.132 14.832,375.949 15.144,375.648 15.524 C 375.347 15.903,374.985 16.422,374.842 16.677 C 374.557 17.187,373.167 19.201,373.009 19.333 C 372.800 19.508,372.261 20.422,372.296 20.542 C 372.317 20.610,372.264 20.667,372.179 20.667 C 372.094 20.667,371.788 21.079,371.500 21.583 C 371.212 22.087,370.915 22.500,370.841 22.500 C 370.768 22.500,370.611 22.731,370.494 23.014 C 370.377 23.297,370.199 23.616,370.099 23.723 C 369.999 23.829,369.210 24.967,368.347 26.250 C 367.484 27.533,366.715 28.608,366.639 28.639 C 366.562 28.669,366.500 28.758,366.500 28.837 C 366.500 28.915,366.162 29.472,365.750 30.074 C 365.337 30.677,365.000 31.218,365.000 31.276 C 365.000 31.335,364.751 31.690,364.447 32.066 C 364.143 32.442,363.600 33.200,363.241 33.750 C 362.883 34.300,362.456 34.895,362.294 35.073 C 362.133 35.251,362.000 35.462,362.000 35.541 C 362.000 35.663,361.211 36.801,360.690 37.429 C 360.608 37.528,360.489 37.772,360.426 37.971 C 360.363 38.170,360.248 38.333,360.171 38.333 C 360.094 38.333,359.818 38.670,359.557 39.081 C 358.972 40.006,358.701 40.131,358.571 39.536 C 358.517 39.287,358.394 38.875,358.297 38.620 C 358.201 38.365,358.163 38.115,358.213 38.064 C 358.264 38.014,358.207 37.735,358.088 37.445 C 357.968 37.154,357.816 36.504,357.749 36.000 C 357.682 35.496,357.522 34.878,357.394 34.627 C 357.265 34.376,357.164 34.132,357.169 34.084 C 357.241 33.402,356.878 32.186,356.486 31.794 L 356.026 31.333 348.372 31.333 C 339.239 31.333,339.970 31.138,340.509 33.433 C 340.701 34.249,340.971 35.254,341.110 35.667 C 341.249 36.079,341.393 36.567,341.429 36.750 C 341.466 36.933,341.567 37.271,341.653 37.500 C 341.810 37.914,342.299 39.614,342.444 40.250 C 342.560 40.763,342.584 40.847,342.903 41.917 C 343.067 42.467,343.229 43.029,343.262 43.167 C 343.296 43.304,343.579 44.317,343.892 45.417 C 344.204 46.517,344.519 47.642,344.591 47.917 C 344.743 48.493,344.745 48.501,344.880 48.833 C 344.987 49.097,345.309 50.270,345.838 52.326 C 346.014 53.009,346.272 53.854,346.412 54.204 C 346.693 54.906,346.761 57.089,346.507 57.246 C 346.420 57.300,346.390 57.454,346.442 57.589 C 346.493 57.723,346.448 57.833,346.341 57.833 C 346.234 57.833,346.183 57.892,346.227 57.963 C 346.271 58.034,346.126 58.765,345.904 59.588 C 345.682 60.410,345.307 61.796,345.071 62.667 C 344.835 63.538,344.540 64.715,344.415 65.283 C 344.290 65.851,344.118 66.451,344.032 66.616 C 343.806 67.051,343.628 68.449,343.750 68.832 C 343.851 69.152,344.042 69.160,351.635 69.156 C 360.387 69.151,359.992 69.208,360.315 67.894 C 360.402 67.540,360.661 66.537,360.892 65.667 C 361.123 64.796,361.589 62.958,361.928 61.583 C 362.267 60.208,362.606 58.933,362.681 58.750 C 362.757 58.567,362.945 57.892,363.099 57.250 C 363.253 56.608,363.519 55.904,363.690 55.686 C 363.860 55.467,364.000 55.184,364.000 55.056 C 364.000 54.928,364.106 54.782,364.236 54.732 C 364.366 54.682,364.677 54.333,364.927 53.955 C 365.177 53.577,365.448 53.189,365.529 53.092 C 365.610 52.996,366.010 52.467,366.419 51.917 C 366.827 51.367,367.263 50.804,367.388 50.667 C 367.512 50.529,367.754 50.173,367.926 49.875 C 368.098 49.577,368.297 49.333,368.369 49.333 C 368.441 49.333,368.500 49.255,368.500 49.159 C 368.500 49.064,368.693 48.782,368.930 48.534 C 369.166 48.286,369.652 47.671,370.009 47.167 C 370.366 46.663,370.979 45.825,371.371 45.306 C 373.296 42.754,373.709 42.212,374.079 41.750 C 374.676 41.004,375.375 40.092,375.750 39.568 C 376.353 38.728,377.315 37.420,377.455 37.250 C 377.531 37.158,377.816 36.783,378.088 36.417 C 378.361 36.050,378.682 35.646,378.803 35.518 C 378.924 35.391,379.147 35.091,379.299 34.852 C 379.451 34.612,379.671 34.357,379.788 34.283 C 379.904 34.210,380.001 34.060,380.003 33.950 C 380.004 33.840,380.303 33.412,380.667 33.000 C 381.030 32.587,381.329 32.205,381.331 32.149 C 381.332 32.094,381.502 31.853,381.708 31.615 C 381.915 31.376,382.308 30.872,382.583 30.496 C 382.858 30.119,383.215 29.666,383.375 29.489 C 383.535 29.312,383.667 29.110,383.667 29.042 C 383.667 28.918,384.188 28.258,384.836 27.560 C 385.018 27.364,385.167 27.139,385.167 27.060 C 385.168 26.981,385.393 26.677,385.667 26.384 C 385.942 26.091,386.167 25.805,386.167 25.748 C 386.167 25.691,386.485 25.246,386.875 24.759 C 387.265 24.272,387.711 23.696,387.868 23.479 C 388.024 23.261,388.266 22.933,388.406 22.750 C 388.545 22.567,389.082 21.854,389.599 21.167 C 390.115 20.479,391.186 19.067,391.977 18.029 C 392.769 16.990,393.529 15.978,393.667 15.779 C 394.218 14.981,395.541 13.245,395.658 13.167 C 395.727 13.121,396.177 12.521,396.659 11.833 C 397.142 11.146,397.622 10.508,397.726 10.417 C 397.831 10.325,398.124 9.944,398.378 9.569 C 398.632 9.195,398.973 8.745,399.134 8.569 C 399.763 7.886,400.000 7.401,400.000 6.796 L 400.000 6.167 391.292 6.177 C 386.502 6.183,382.420 6.254,382.221 6.334 M163.667 14.493 C 165.433 14.737,166.136 14.920,167.275 15.431 C 167.564 15.561,167.909 15.667,168.041 15.667 C 168.173 15.667,168.417 15.817,168.583 16.000 C 168.749 16.183,168.981 16.333,169.098 16.333 C 170.194 16.333,173.065 20.663,173.408 22.833 C 173.458 23.154,173.547 23.642,173.604 23.917 C 173.828 24.993,173.814 27.633,173.575 29.221 C 173.438 30.136,173.311 31.060,173.293 31.275 C 173.275 31.491,173.221 31.667,173.172 31.667 C 173.123 31.667,173.067 31.836,173.048 32.042 C 172.990 32.647,172.906 32.982,172.783 33.106 C 172.719 33.170,172.667 33.392,172.667 33.600 C 172.667 33.808,172.577 34.189,172.467 34.447 C 172.358 34.706,172.254 34.992,172.237 35.083 C 172.219 35.175,172.192 35.287,172.176 35.333 C 172.150 35.409,171.594 37.409,171.434 38.000 C 171.397 38.137,171.241 38.700,171.086 39.250 C 170.853 40.081,170.262 42.293,170.107 42.917 C 170.084 43.008,169.983 43.346,169.883 43.667 C 169.783 43.987,169.503 44.925,169.262 45.750 C 169.020 46.575,168.745 47.494,168.650 47.793 C 168.555 48.092,168.441 48.536,168.397 48.781 C 168.352 49.026,168.278 49.288,168.232 49.363 C 168.186 49.438,168.119 49.630,168.083 49.791 C 167.521 52.316,166.767 54.141,166.153 54.459 C 165.603 54.745,149.824 54.644,148.583 54.347 C 146.135 53.760,142.500 51.233,142.500 50.117 C 142.500 50.035,142.355 49.764,142.178 49.516 C 142.001 49.267,141.803 48.843,141.738 48.573 C 141.674 48.304,141.566 48.008,141.499 47.917 C 141.353 47.717,141.062 46.405,140.908 45.250 C 140.787 44.350,140.785 39.984,140.904 39.384 C 140.944 39.183,141.028 38.508,141.091 37.884 C 141.153 37.260,141.243 36.685,141.291 36.605 C 141.339 36.526,141.402 36.263,141.431 36.022 C 141.460 35.781,141.513 35.471,141.548 35.333 C 141.583 35.196,141.672 34.708,141.744 34.250 C 141.816 33.792,141.920 33.342,141.975 33.250 C 142.071 33.088,142.109 32.946,142.240 32.250 C 142.457 31.102,143.415 28.063,143.658 27.750 C 143.729 27.658,143.841 27.358,143.907 27.083 C 144.043 26.510,144.384 25.676,144.825 24.833 C 144.993 24.512,145.400 23.725,145.729 23.083 C 146.058 22.442,146.535 21.680,146.789 21.390 C 147.042 21.100,147.400 20.656,147.583 20.404 C 148.234 19.507,150.910 17.000,151.217 17.000 C 151.272 17.000,151.639 16.784,152.033 16.521 C 152.427 16.257,152.938 15.986,153.167 15.918 C 153.396 15.849,153.884 15.659,154.250 15.495 C 154.817 15.241,157.131 14.644,158.250 14.462 C 159.130 14.320,162.554 14.339,163.667 14.493 M279.484 14.899 C 279.429 14.957,278.754 15.038,277.984 15.079 C 277.214 15.120,275.983 15.235,275.250 15.335 C 274.517 15.434,273.579 15.558,273.167 15.611 C 272.754 15.663,272.304 15.765,272.167 15.837 C 272.029 15.908,271.542 16.022,271.083 16.089 C 270.625 16.156,269.739 16.394,269.114 16.617 C 268.490 16.840,267.852 17.052,267.698 17.086 C 267.306 17.174,265.731 17.855,264.833 18.324 C 264.421 18.540,264.083 18.692,264.083 18.662 C 264.083 18.632,263.581 18.958,262.968 19.387 C 262.354 19.816,261.811 20.167,261.760 20.167 C 261.708 20.167,261.521 20.298,261.344 20.458 C 261.166 20.619,260.627 21.087,260.146 21.500 C 257.002 24.194,254.240 28.252,252.574 32.622 C 252.233 33.517,251.858 34.475,251.740 34.750 C 251.450 35.428,250.934 37.216,250.977 37.393 C 250.996 37.471,250.934 37.628,250.840 37.742 C 250.745 37.856,250.595 38.317,250.506 38.767 C 250.417 39.216,250.307 39.733,250.262 39.917 C 250.217 40.100,250.056 40.775,249.904 41.417 C 249.753 42.058,249.590 42.696,249.541 42.833 C 249.493 42.971,249.433 43.196,249.407 43.333 C 249.382 43.471,249.321 43.771,249.272 44.000 C 248.983 45.357,248.567 47.913,248.379 49.500 C 248.219 50.847,248.209 56.348,248.365 57.250 C 248.429 57.617,248.515 58.104,248.556 58.333 C 249.219 62.021,253.004 66.005,256.958 67.176 C 257.348 67.292,257.667 67.437,257.667 67.499 C 257.667 67.560,257.760 67.614,257.875 67.617 C 257.990 67.621,258.758 67.791,259.583 67.995 C 260.408 68.199,261.233 68.391,261.417 68.421 C 264.885 68.992,263.756 68.957,279.205 68.984 C 289.970 69.002,292.898 68.963,293.169 68.795 C 293.567 68.550,294.804 64.640,294.726 63.877 C 294.714 63.763,294.757 63.703,294.821 63.742 C 294.885 63.782,295.037 63.237,295.159 62.532 C 295.281 61.827,295.442 61.130,295.516 60.984 C 295.590 60.838,295.691 60.538,295.739 60.317 C 295.788 60.097,295.918 59.557,296.027 59.118 C 296.415 57.561,297.381 57.674,283.497 57.653 C 272.020 57.636,268.969 57.536,268.597 57.164 C 268.507 57.074,268.294 57.000,268.123 57.000 C 267.658 57.000,266.078 56.182,265.366 55.573 C 263.652 54.105,263.012 50.002,264.265 48.513 L 264.696 48.000 281.640 47.997 C 290.959 47.996,298.667 47.940,298.768 47.872 C 299.039 47.693,299.509 46.718,299.575 46.199 C 299.662 45.521,299.989 43.679,300.173 42.833 C 300.355 42.000,300.439 41.394,300.580 39.917 C 300.632 39.367,300.720 38.654,300.776 38.333 C 301.227 35.738,300.800 27.741,300.167 26.917 C 300.096 26.825,299.984 26.488,299.917 26.167 C 299.680 25.033,298.098 22.048,297.179 21.000 C 296.978 20.771,296.680 20.433,296.518 20.250 C 296.085 19.761,295.167 18.967,294.500 18.504 C 294.179 18.282,293.862 18.021,293.794 17.925 C 293.727 17.829,293.671 17.806,293.669 17.873 C 293.668 17.941,293.302 17.773,292.857 17.498 C 292.411 17.224,291.998 17.000,291.938 17.000 C 291.878 17.000,291.512 16.854,291.123 16.677 C 290.537 16.409,289.672 16.127,288.750 15.904 C 288.658 15.881,288.151 15.748,287.622 15.607 C 287.094 15.466,286.250 15.334,285.747 15.313 C 285.245 15.293,284.833 15.231,284.833 15.177 C 284.833 15.122,284.552 15.068,284.208 15.057 C 283.865 15.046,282.683 14.983,281.583 14.916 C 280.483 14.849,279.539 14.841,279.484 14.899 M107.470 15.264 C 106.939 15.543,106.946 15.525,106.347 18.167 C 106.170 18.946,106.008 19.621,105.987 19.667 C 105.966 19.712,105.937 19.825,105.923 19.917 C 105.909 20.008,105.846 20.233,105.784 20.417 C 105.722 20.600,105.558 21.350,105.420 22.083 C 105.282 22.817,105.143 23.492,105.110 23.583 C 105.077 23.675,105.011 23.863,104.964 24.000 C 104.827 24.393,104.476 26.194,104.422 26.783 C 104.321 27.868,104.176 27.848,111.998 27.848 L 119.037 27.848 119.531 27.466 C 120.013 27.092,120.126 26.761,120.578 24.417 C 120.613 24.233,120.653 24.083,120.667 24.083 C 120.680 24.083,120.725 23.896,120.765 23.667 C 120.877 23.035,121.485 20.297,121.951 18.333 C 122.607 15.568,122.620 15.233,122.086 15.099 C 121.146 14.863,107.948 15.012,107.470 15.264 M202.657 15.167 C 201.846 15.333,201.221 16.403,201.198 17.667 C 201.196 17.804,201.072 18.517,200.924 19.250 C 200.776 19.983,200.649 20.696,200.642 20.833 C 200.635 20.971,200.531 21.533,200.411 22.083 C 200.291 22.633,200.105 23.646,199.999 24.333 C 199.893 25.021,199.744 25.702,199.669 25.847 C 199.594 25.991,199.479 26.629,199.412 27.263 C 199.346 27.898,199.247 28.492,199.192 28.583 C 199.137 28.675,199.086 28.825,199.079 28.917 C 199.072 29.008,199.019 29.271,198.963 29.500 C 198.906 29.729,198.770 30.592,198.660 31.417 C 198.550 32.242,198.416 32.990,198.363 33.080 C 198.309 33.170,198.252 33.358,198.235 33.497 C 198.203 33.756,197.992 34.951,197.925 35.250 C 197.905 35.342,197.823 35.792,197.744 36.250 C 197.582 37.186,197.588 37.158,197.463 37.500 C 197.413 37.637,197.259 38.462,197.121 39.333 C 196.983 40.204,196.824 41.104,196.769 41.333 C 196.713 41.563,196.625 42.087,196.573 42.500 C 196.521 42.913,196.449 43.362,196.414 43.500 C 196.379 43.637,196.304 44.087,196.249 44.500 C 196.193 44.913,196.107 45.475,196.057 45.750 C 196.007 46.025,195.942 46.512,195.912 46.833 C 195.882 47.154,195.797 47.979,195.723 48.667 C 195.460 51.107,195.577 57.425,195.902 58.335 C 195.950 58.471,196.022 58.771,196.060 59.000 C 196.303 60.442,197.337 62.877,198.186 64.004 C 199.152 65.286,201.228 67.002,202.333 67.433 C 202.471 67.486,202.733 67.595,202.917 67.674 C 203.892 68.096,204.500 68.306,204.500 68.221 C 204.500 68.169,204.594 68.201,204.708 68.293 C 204.823 68.385,205.592 68.559,206.417 68.679 C 207.242 68.800,207.973 68.912,208.042 68.928 C 208.110 68.945,208.223 68.970,208.292 68.984 C 208.360 68.998,214.928 69.007,222.887 69.004 C 239.335 68.999,237.751 69.162,238.099 67.441 C 238.213 66.878,238.357 66.229,238.419 66.000 C 238.534 65.570,238.987 63.421,239.420 61.250 C 239.475 60.975,239.592 60.450,239.682 60.083 C 239.867 59.320,239.966 58.859,240.082 58.208 C 240.408 56.381,240.538 55.754,240.662 55.428 C 240.740 55.223,240.850 54.762,240.907 54.403 C 241.130 52.996,241.187 52.705,241.489 51.417 C 242.015 49.169,242.309 47.798,242.507 46.667 C 242.611 46.071,242.738 45.471,242.788 45.333 C 242.838 45.196,242.894 44.971,242.911 44.833 C 242.929 44.696,243.066 44.021,243.217 43.333 C 243.368 42.646,243.527 41.896,243.570 41.667 C 243.614 41.438,243.697 41.063,243.755 40.833 C 243.812 40.604,243.888 40.267,243.922 40.083 C 244.160 38.809,244.318 38.027,244.410 37.667 C 244.676 36.630,244.708 36.464,244.915 35.042 C 244.986 34.560,245.090 34.167,245.147 34.167 C 245.204 34.167,245.264 33.960,245.281 33.708 C 245.297 33.456,245.468 32.575,245.661 31.750 C 245.854 30.925,246.150 29.489,246.318 28.559 C 246.487 27.629,246.675 26.788,246.736 26.689 C 246.797 26.590,246.879 26.263,246.917 25.963 C 246.956 25.662,247.095 24.929,247.226 24.333 C 247.812 21.670,247.974 20.871,248.063 20.206 C 248.115 19.815,248.227 19.365,248.312 19.206 C 248.396 19.047,248.556 18.317,248.666 17.583 C 248.776 16.850,248.929 16.172,249.007 16.078 C 249.661 15.278,249.501 15.256,242.433 15.167 C 234.886 15.072,234.894 15.071,234.563 16.251 C 234.087 17.951,233.923 18.705,233.747 19.996 C 233.691 20.406,233.572 20.830,233.483 20.937 C 233.394 21.044,233.340 21.196,233.361 21.274 C 233.383 21.353,233.317 21.792,233.213 22.250 C 233.110 22.708,232.928 23.571,232.809 24.167 C 232.690 24.762,232.582 25.306,232.567 25.375 C 232.553 25.444,232.527 25.519,232.508 25.542 C 232.490 25.565,232.443 25.771,232.403 26.000 C 232.364 26.229,232.256 26.792,232.163 27.250 C 232.071 27.708,231.961 28.263,231.919 28.483 C 231.877 28.702,231.769 29.115,231.679 29.399 C 231.589 29.684,231.470 30.254,231.415 30.667 C 231.359 31.079,231.235 31.717,231.139 32.083 C 231.043 32.450,230.933 32.938,230.895 33.167 C 230.823 33.600,230.474 35.292,230.397 35.583 C 230.300 35.948,230.162 36.519,230.086 36.875 C 230.041 37.081,229.912 37.662,229.800 38.167 C 229.687 38.671,229.585 39.158,229.573 39.250 C 229.561 39.342,229.506 39.529,229.450 39.667 C 229.395 39.804,229.307 40.209,229.255 40.566 C 229.139 41.363,229.003 42.002,228.878 42.333 C 228.826 42.471,228.760 42.733,228.733 42.917 C 228.705 43.100,228.527 43.925,228.338 44.750 C 228.149 45.575,227.955 46.430,227.906 46.650 C 227.858 46.869,227.706 47.544,227.569 48.150 C 227.432 48.755,227.299 49.362,227.273 49.500 C 227.247 49.637,227.183 49.862,227.131 50.000 C 227.078 50.137,226.940 50.813,226.824 51.500 C 226.708 52.188,226.557 52.825,226.489 52.917 C 226.420 53.008,226.311 53.443,226.245 53.883 C 226.044 55.239,226.368 55.176,219.922 55.120 C 216.004 55.086,214.132 55.012,213.976 54.884 C 213.852 54.781,213.456 54.642,213.097 54.575 C 210.498 54.089,209.163 50.675,210.070 46.833 C 210.124 46.604,210.243 45.967,210.334 45.417 C 210.635 43.602,210.668 43.426,210.911 42.333 C 211.043 41.737,211.232 40.875,211.329 40.417 C 211.427 39.958,211.535 39.471,211.569 39.333 C 211.604 39.196,211.759 38.408,211.915 37.583 C 212.070 36.758,212.239 35.971,212.290 35.833 C 212.342 35.696,212.411 35.442,212.444 35.270 C 212.477 35.097,212.649 34.197,212.826 33.270 C 213.003 32.342,213.290 30.890,213.464 30.042 C 213.638 29.194,213.745 28.500,213.703 28.500 C 213.660 28.500,213.713 28.395,213.819 28.268 C 213.925 28.140,213.995 27.971,213.974 27.893 C 213.953 27.814,213.987 27.525,214.049 27.250 C 214.110 26.975,214.204 26.488,214.256 26.167 C 214.309 25.846,214.429 25.246,214.524 24.833 C 214.618 24.421,214.725 23.933,214.760 23.750 C 214.796 23.567,214.942 22.854,215.084 22.167 C 215.227 21.479,215.373 20.741,215.409 20.527 C 215.445 20.312,215.550 19.787,215.644 19.360 C 215.737 18.933,215.867 18.283,215.933 17.917 C 215.999 17.550,216.071 17.175,216.092 17.083 C 216.567 15.023,217.048 15.166,209.490 15.121 C 205.956 15.100,202.881 15.121,202.657 15.167 M314.218 15.166 C 313.664 15.393,313.351 15.994,313.082 17.351 C 312.948 18.029,312.728 19.071,312.594 19.667 C 312.018 22.215,311.476 24.771,311.453 25.042 C 311.440 25.202,311.362 25.333,311.280 25.333 C 311.198 25.333,311.178 25.455,311.235 25.604 C 311.292 25.754,311.272 25.960,311.189 26.063 C 311.106 26.166,310.997 26.587,310.945 27.000 C 310.807 28.102,310.521 29.524,310.342 30.000 C 310.256 30.229,310.149 30.717,310.104 31.083 C 310.059 31.450,309.900 32.237,309.751 32.833 C 309.601 33.429,309.441 34.142,309.394 34.417 C 309.138 35.922,308.959 36.744,308.831 37.000 C 308.762 37.137,308.658 37.654,308.599 38.147 C 308.541 38.640,308.461 39.095,308.422 39.158 C 308.350 39.274,308.186 39.964,308.083 40.583 C 308.053 40.767,308.015 40.917,307.998 40.917 C 307.982 40.917,307.944 41.179,307.913 41.500 C 307.842 42.240,307.705 42.877,307.502 43.412 C 307.414 43.644,307.386 43.833,307.441 43.833 C 307.496 43.833,307.457 43.934,307.355 44.057 C 307.253 44.180,307.211 44.322,307.261 44.372 C 307.352 44.463,306.734 47.923,306.583 48.167 C 306.540 48.237,306.460 48.584,306.406 48.939 C 306.352 49.293,306.232 49.921,306.140 50.333 C 305.959 51.141,305.931 51.276,305.657 52.667 C 305.558 53.171,305.301 54.371,305.087 55.333 C 304.873 56.296,304.615 57.496,304.514 58.000 C 304.318 58.974,304.293 59.097,303.916 60.917 C 303.693 61.998,302.985 65.368,302.656 66.917 C 302.437 67.950,302.471 68.800,302.738 68.950 C 302.869 69.023,306.092 69.063,309.901 69.038 C 317.876 68.986,317.035 69.202,317.419 67.103 C 317.683 65.653,318.081 63.668,318.440 62.000 C 318.589 61.313,318.724 60.600,318.741 60.417 C 318.828 59.494,319.060 58.394,319.208 58.208 C 319.299 58.094,319.335 58.000,319.288 58.000 C 319.241 58.000,319.265 57.719,319.342 57.375 C 319.482 56.747,319.512 56.585,319.818 54.750 C 319.910 54.200,320.034 53.563,320.092 53.333 C 320.151 53.104,320.259 52.531,320.333 52.059 C 320.406 51.587,320.520 51.034,320.585 50.829 C 320.650 50.624,320.728 50.260,320.759 50.020 C 320.836 49.417,321.452 46.473,321.565 46.167 C 321.616 46.029,321.692 45.729,321.735 45.500 C 321.778 45.271,321.896 44.633,321.997 44.083 C 322.098 43.533,322.252 42.896,322.338 42.667 C 322.425 42.438,322.529 41.987,322.570 41.667 C 322.612 41.346,322.733 40.671,322.840 40.167 C 322.947 39.662,323.054 39.137,323.078 39.000 C 323.101 38.862,323.161 38.637,323.210 38.500 C 323.260 38.362,323.419 37.650,323.563 36.917 C 323.708 36.183,323.866 35.433,323.914 35.250 C 323.962 35.067,324.084 34.429,324.185 33.833 C 324.286 33.237,324.503 32.225,324.668 31.583 C 324.833 30.942,325.018 30.106,325.079 29.727 C 325.146 29.311,325.356 28.880,325.608 28.643 L 326.027 28.250 340.672 28.167 C 352.077 28.102,355.363 28.037,355.525 27.875 C 355.753 27.647,355.458 24.934,355.167 24.583 C 355.086 24.486,354.893 23.696,354.738 22.828 C 354.583 21.960,354.391 21.179,354.312 21.092 C 354.232 21.005,354.167 20.833,354.167 20.710 C 354.167 18.516,350.686 15.764,347.455 15.404 C 346.976 15.351,346.343 15.245,346.049 15.169 C 345.319 14.980,314.679 14.977,314.218 15.166 M281.657 28.613 C 285.407 29.460,287.000 31.595,287.000 35.776 C 287.000 37.482,286.969 37.671,286.668 37.833 C 286.110 38.131,267.200 38.060,266.738 37.758 C 266.074 37.323,266.122 35.812,266.844 34.395 C 267.022 34.048,267.167 33.666,267.167 33.548 C 267.167 33.430,267.237 33.333,267.322 33.333 C 267.408 33.333,267.524 33.186,267.582 33.005 C 268.212 31.019,272.536 28.707,276.204 28.394 C 276.871 28.337,277.452 28.258,277.496 28.219 C 277.639 28.089,280.564 28.366,281.657 28.613 M103.532 31.637 C 103.320 31.800,103.073 32.229,102.983 32.592 C 102.894 32.954,102.797 33.325,102.770 33.417 C 102.663 33.766,102.517 34.455,102.329 35.500 C 102.221 36.096,102.053 36.846,101.956 37.167 C 101.770 37.778,101.610 38.492,100.944 41.692 C 100.722 42.760,100.497 43.704,100.444 43.789 C 100.392 43.874,100.269 44.462,100.172 45.097 C 100.074 45.731,99.923 46.400,99.836 46.583 C 99.748 46.767,99.559 47.517,99.414 48.250 C 99.056 50.066,99.031 50.190,98.929 50.667 C 98.880 50.896,98.720 51.721,98.575 52.500 C 98.429 53.279,98.242 54.067,98.160 54.250 C 98.078 54.433,97.931 55.071,97.832 55.667 C 97.734 56.262,97.586 56.938,97.503 57.167 C 97.420 57.396,97.314 57.895,97.267 58.276 C 97.171 59.045,97.020 59.786,96.880 60.167 C 96.830 60.304,96.758 60.671,96.721 60.983 C 96.683 61.294,96.578 61.688,96.487 61.858 C 96.396 62.028,96.357 62.167,96.399 62.167 C 96.442 62.167,96.404 62.410,96.315 62.708 C 96.226 63.006,96.120 63.483,96.081 63.768 C 96.041 64.053,95.894 64.725,95.754 65.261 C 95.614 65.798,95.500 66.404,95.500 66.609 C 95.500 66.813,95.441 67.017,95.370 67.061 C 95.298 67.105,95.222 67.353,95.200 67.612 C 95.179 67.871,95.010 68.646,94.825 69.333 C 94.639 70.021,94.478 70.677,94.466 70.792 C 94.454 70.906,94.382 71.000,94.306 71.000 C 94.229 71.000,94.167 71.111,94.167 71.246 C 94.167 71.691,93.146 73.736,92.542 74.500 C 90.970 76.491,89.705 77.007,87.275 76.652 C 86.803 76.583,86.013 76.481,85.520 76.426 C 85.027 76.371,84.557 76.285,84.476 76.235 C 83.631 75.713,82.768 76.384,82.598 77.693 C 82.535 78.183,82.344 79.071,82.174 79.667 C 81.911 80.592,81.650 81.796,81.653 82.080 C 81.653 82.125,81.550 82.456,81.423 82.816 C 81.296 83.176,81.147 83.758,81.092 84.110 C 81.037 84.462,80.883 85.200,80.751 85.750 C 79.589 90.573,79.599 90.692,81.167 90.904 C 82.795 91.125,83.273 91.186,83.833 91.244 C 88.141 91.692,94.406 91.706,96.083 91.271 C 97.373 90.936,98.425 90.583,98.472 90.468 C 98.503 90.394,98.597 90.333,98.682 90.333 C 98.864 90.333,100.378 89.645,100.500 89.508 C 100.546 89.456,100.885 89.218,101.253 88.980 C 102.777 87.993,105.080 85.304,106.092 83.329 C 106.349 82.827,106.687 82.229,106.843 82.000 C 106.999 81.771,107.243 81.242,107.383 80.826 C 107.524 80.409,107.769 79.771,107.926 79.409 C 108.424 78.265,108.481 78.110,108.839 76.917 C 109.031 76.275,109.292 75.450,109.418 75.083 C 109.545 74.717,109.699 74.135,109.760 73.790 C 109.821 73.445,109.939 73.121,110.022 73.070 C 110.104 73.019,110.129 72.907,110.076 72.822 C 110.023 72.736,110.040 72.573,110.112 72.458 C 110.233 72.268,110.774 69.952,110.915 69.027 C 110.947 68.812,111.054 68.287,111.151 67.860 C 111.249 67.433,111.362 66.896,111.401 66.667 C 111.441 66.438,111.598 65.725,111.750 65.084 C 111.902 64.443,112.050 63.730,112.079 63.499 C 112.108 63.269,112.214 62.777,112.313 62.407 C 112.413 62.038,112.609 61.176,112.749 60.492 C 112.889 59.809,113.028 59.175,113.059 59.083 C 113.229 58.575,113.675 56.268,113.713 55.708 C 113.726 55.502,113.801 55.333,113.879 55.333 C 113.956 55.333,113.977 55.265,113.925 55.181 C 113.873 55.097,113.902 54.842,113.988 54.614 C 114.075 54.387,114.192 53.874,114.248 53.475 C 114.304 53.076,114.387 52.625,114.432 52.472 C 114.545 52.087,114.604 51.817,114.971 49.976 C 115.147 49.093,115.336 48.297,115.391 48.208 C 115.446 48.119,115.525 47.792,115.567 47.481 C 115.630 47.008,116.003 45.255,116.236 44.333 C 116.271 44.196,116.389 43.596,116.498 43.000 C 116.607 42.404,116.737 41.804,116.786 41.667 C 116.836 41.529,116.894 41.267,116.916 41.083 C 116.979 40.565,117.509 38.113,117.619 37.833 C 117.740 37.524,117.809 37.227,117.908 36.583 C 117.950 36.308,118.065 35.708,118.165 35.250 C 118.264 34.792,118.361 34.304,118.381 34.167 C 118.401 34.029,118.476 33.873,118.548 33.820 C 118.832 33.609,118.715 31.781,118.402 31.552 C 117.876 31.168,104.039 31.246,103.532 31.637 " stroke="none" fill="#3c3836" fill-rule="evenodd"></path><path id="path18" d="" stroke="none" fill="#003399" fill-rule="evenodd"></path><path id="path19" d="" stroke="none" fill="#003b89" fill-rule="evenodd"></path><path id="path20" d="" stroke="none" fill="#0024b6" fill-rule="evenodd"></path><path id="path21" d="" stroke="none" fill="#005555" fill-rule="evenodd"></path><path id="path22" d="M54.208 44.282 C 54.369 44.323,54.631 44.323,54.792 44.282 C 54.952 44.240,54.821 44.205,54.500 44.205 C 54.179 44.205,54.048 44.240,54.208 44.282 M186.208 83.953 C 186.460 83.991,186.873 83.991,187.125 83.953 C 187.377 83.915,187.171 83.883,186.667 83.883 C 186.162 83.883,185.956 83.915,186.208 83.953 M192.458 83.955 C 192.848 83.990,193.485 83.990,193.875 83.955 C 194.265 83.920,193.946 83.892,193.167 83.892 C 192.387 83.892,192.069 83.920,192.458 83.955 " stroke="none" fill="#004b87" fill-rule="evenodd"></path><path id="path23" d="" stroke="none" fill="#0046a2" fill-rule="evenodd"></path><path id="path24" d="" stroke="none" fill="#094f95" fill-rule="evenodd"></path><path id="path25" d="M150.233 93.917 C 150.234 95.292,150.259 95.832,150.291 95.117 C 150.322 94.403,150.322 93.278,150.290 92.617 C 150.259 91.957,150.233 92.542,150.233 93.917 " stroke="none" fill="#005599" fill-rule="evenodd"></path><path id="path26" d="M21.212 23.167 C 21.212 23.579,21.245 23.748,21.284 23.542 C 21.324 23.335,21.324 22.998,21.284 22.792 C 21.245 22.585,21.212 22.754,21.212 23.167 M61.708 26.453 C 61.960 26.491,62.373 26.491,62.625 26.453 C 62.877 26.415,62.671 26.383,62.167 26.383 C 61.663 26.383,61.456 26.415,61.708 26.453 M173.865 83.770 C 174.020 83.816,174.184 83.980,174.230 84.135 C 174.291 84.339,174.305 84.326,174.280 84.085 C 174.260 83.891,174.109 83.740,173.915 83.720 C 173.674 83.695,173.661 83.709,173.865 83.770 M150.209 90.583 C 150.211 90.950,150.245 91.080,150.285 90.873 C 150.324 90.666,150.323 90.366,150.281 90.206 C 150.239 90.047,150.207 90.217,150.209 90.583 M173.353 90.695 C 173.342 90.848,173.290 91.110,173.237 91.278 C 173.147 91.567,173.151 91.568,173.332 91.286 C 173.437 91.123,173.489 90.861,173.447 90.703 C 173.379 90.445,173.370 90.444,173.353 90.695 M154.169 91.875 C 154.171 92.243,154.218 92.344,154.315 92.190 C 154.447 91.983,154.382 91.333,154.231 91.333 C 154.195 91.333,154.168 91.577,154.169 91.875 " stroke="none" fill="#085a9c" fill-rule="evenodd"></path><path id="path27" d="" stroke="none" fill="#0853ad" fill-rule="evenodd"></path><path id="path28" d="" stroke="none" fill="#0000ff" fill-rule="evenodd"></path><path id="path29" d="" stroke="none" fill="#005cad" fill-rule="evenodd"></path><path id="path30" d="M43.489 3.384 C 43.174 3.815,42.617 4.567,42.250 5.055 C 41.657 5.844,41.042 7.026,40.282 8.833 C 39.430 10.860,39.514 16.041,40.433 18.109 C 40.562 18.397,40.667 18.698,40.667 18.777 C 40.667 20.518,44.802 25.542,47.917 27.585 C 50.212 29.090,52.370 30.029,54.221 30.327 C 54.787 30.419,55.512 30.538,55.833 30.593 C 57.005 30.793,59.106 30.836,60.000 30.678 C 60.504 30.589,61.404 30.431,62.000 30.327 C 63.114 30.132,63.487 29.999,65.312 29.146 C 67.568 28.092,70.150 25.478,71.671 22.710 C 72.096 21.937,71.997 21.525,71.542 22.175 C 71.081 22.833,69.457 24.346,68.917 24.620 C 68.642 24.759,68.304 24.965,68.167 25.076 C 66.630 26.318,60.723 26.823,57.590 25.979 C 57.220 25.880,56.805 25.774,56.667 25.744 C 54.712 25.318,51.591 23.751,49.733 22.263 C 43.882 17.578,41.269 9.544,43.761 3.907 C 44.318 2.649,44.196 2.415,43.489 3.384 M28.580 6.271 C 28.398 6.500,28.119 6.812,27.958 6.964 C 27.798 7.116,27.667 7.307,27.667 7.388 C 27.667 7.469,27.453 7.809,27.192 8.143 C 24.586 11.474,23.021 14.282,22.114 17.250 C 21.310 19.883,21.125 25.033,21.736 27.750 C 22.354 30.499,23.124 32.718,24.048 34.417 C 24.148 34.600,24.376 35.050,24.554 35.417 C 25.622 37.613,30.339 43.500,31.031 43.500 C 31.086 43.500,31.369 43.722,31.658 43.992 C 32.404 44.689,34.432 46.181,35.417 46.758 C 35.875 47.026,36.400 47.336,36.583 47.446 C 37.078 47.744,38.020 48.167,38.187 48.167 C 38.267 48.167,38.333 48.230,38.333 48.307 C 38.333 48.384,38.652 48.547,39.042 48.670 C 39.431 48.792,39.862 48.981,40.000 49.089 C 40.137 49.198,40.624 49.377,41.081 49.489 C 41.538 49.600,41.989 49.755,42.082 49.832 C 42.227 49.953,43.282 50.192,45.417 50.589 C 47.785 51.029,52.399 51.035,55.000 50.602 C 56.971 50.274,57.804 50.086,59.250 49.640 C 60.167 49.358,60.992 49.070,61.083 49.000 C 61.175 48.931,61.438 48.819,61.667 48.751 C 65.945 47.491,73.267 39.772,73.923 35.831 L 74.019 35.250 73.561 35.833 C 71.147 38.910,66.559 42.182,63.520 42.996 C 63.118 43.103,62.668 43.261,62.520 43.346 C 61.303 44.044,54.665 44.521,52.250 44.085 C 51.883 44.019,51.021 43.867,50.333 43.748 C 48.370 43.408,45.647 42.549,43.710 41.658 C 43.322 41.480,42.960 41.333,42.906 41.333 C 42.704 41.333,39.248 39.260,38.417 38.640 C 36.560 37.254,33.908 34.820,32.973 33.642 C 32.728 33.335,32.332 32.858,32.091 32.583 C 31.850 32.308,31.495 31.821,31.301 31.500 C 31.107 31.179,30.865 30.842,30.761 30.750 C 30.263 30.307,27.833 25.517,27.833 24.978 C 27.833 24.844,27.764 24.662,27.679 24.575 C 27.464 24.355,26.843 22.015,26.575 20.417 C 26.304 18.801,26.269 15.093,26.507 13.162 C 26.745 11.234,27.109 10.087,28.324 7.432 C 29.050 5.844,29.102 5.609,28.580 6.271 M9.500 12.960 C 9.500 13.030,9.233 13.386,8.908 13.752 C 8.582 14.117,8.191 14.604,8.039 14.833 C 7.886 15.063,7.452 15.625,7.074 16.083 C 6.695 16.542,5.989 17.442,5.504 18.083 C 5.019 18.725,4.536 19.325,4.429 19.417 C 4.323 19.508,4.104 19.846,3.943 20.167 C 3.782 20.487,3.395 21.162,3.082 21.667 C 2.769 22.171,2.510 22.658,2.505 22.750 C 2.501 22.842,2.378 23.142,2.232 23.417 C 0.085 27.446,-0.636 35.342,0.571 41.583 C 0.800 42.765,1.209 44.468,1.332 44.750 C 1.411 44.933,1.564 45.383,1.671 45.750 C 2.241 47.704,3.560 50.622,4.969 53.047 C 6.361 55.442,6.501 55.660,7.455 56.927 C 11.751 62.630,16.718 66.811,22.750 69.802 C 25.009 70.922,26.129 71.427,26.891 71.667 C 27.244 71.779,27.731 71.974,27.974 72.101 C 28.218 72.227,28.512 72.332,28.629 72.332 C 28.746 72.333,29.271 72.486,29.796 72.673 C 30.321 72.860,31.425 73.116,32.250 73.242 C 33.075 73.367,33.938 73.513,34.167 73.567 C 35.753 73.937,43.524 74.023,45.500 73.693 C 49.059 73.098,49.747 72.970,49.906 72.870 C 50.004 72.809,50.158 72.747,50.250 72.732 C 51.241 72.571,54.887 71.336,54.972 71.133 C 55.003 71.060,55.140 71.000,55.277 71.000 C 55.588 71.000,59.396 69.016,59.472 68.814 C 59.503 68.733,59.605 68.667,59.700 68.667 C 59.859 68.667,61.479 67.559,61.667 67.322 C 61.712 67.264,61.839 67.187,61.948 67.150 C 62.303 67.030,65.980 63.755,65.990 63.550 C 65.996 63.440,66.105 63.290,66.234 63.217 C 67.105 62.720,70.237 58.252,71.565 55.612 C 72.449 53.854,72.470 53.394,71.621 54.414 C 69.644 56.788,66.541 59.404,64.307 60.583 C 61.900 61.853,59.961 62.684,58.667 62.998 C 58.254 63.099,57.767 63.247,57.583 63.328 C 57.400 63.410,56.837 63.562,56.333 63.666 C 55.829 63.771,54.967 63.961,54.417 64.089 C 48.028 65.576,37.535 64.216,30.782 61.027 C 29.974 60.645,29.285 60.333,29.249 60.333 C 28.835 60.333,23.338 56.768,21.997 55.631 C 21.858 55.513,21.068 54.844,20.242 54.144 C 18.745 52.877,16.169 50.185,15.240 48.917 C 14.972 48.550,14.714 48.212,14.667 48.167 C 14.457 47.962,13.536 46.685,13.046 45.921 C 12.751 45.460,12.413 44.960,12.296 44.809 C 12.179 44.658,11.821 44.020,11.500 43.392 C 11.179 42.764,10.878 42.212,10.830 42.167 C 10.670 42.013,9.500 39.404,9.500 39.201 C 9.500 39.090,9.438 39.000,9.361 39.000 C 9.285 39.000,9.217 38.906,9.212 38.792 C 9.206 38.677,9.036 38.133,8.834 37.583 C 8.521 36.732,8.055 35.175,7.737 33.917 C 7.663 33.623,7.545 32.973,7.072 30.250 C 6.465 26.752,7.384 17.719,8.497 16.250 C 8.566 16.158,8.718 15.783,8.834 15.417 C 8.950 15.050,9.175 14.487,9.335 14.167 C 9.762 13.305,9.883 12.833,9.678 12.833 C 9.580 12.833,9.500 12.890,9.500 12.960 M183.000 78.106 C 182.037 78.234,181.169 78.368,181.070 78.403 C 180.796 78.501,179.935 82.497,180.143 82.708 C 180.210 82.776,181.162 82.697,182.258 82.533 L 184.250 82.235 184.391 81.492 C 184.469 81.084,184.677 80.164,184.853 79.448 C 185.150 78.243,185.154 77.804,184.865 77.853 C 184.802 77.864,183.963 77.978,183.000 78.106 M219.653 78.064 C 219.615 78.100,219.008 78.180,218.305 78.242 C 215.970 78.448,215.952 78.467,215.501 81.083 C 215.390 81.725,215.194 82.677,215.065 83.198 C 214.935 83.720,214.718 84.732,214.582 85.448 C 214.447 86.164,214.189 87.425,214.010 88.250 C 213.087 92.511,212.796 93.900,212.496 95.487 C 212.315 96.442,212.167 97.323,212.167 97.445 C 212.167 97.694,216.077 97.781,216.228 97.535 C 216.273 97.462,216.426 96.769,216.567 95.993 C 216.709 95.218,217.021 93.683,217.260 92.583 C 217.500 91.483,217.836 89.908,218.007 89.083 C 218.178 88.258,218.362 87.396,218.415 87.167 C 218.469 86.938,218.658 86.037,218.835 85.167 C 219.458 82.116,219.679 81.075,219.914 80.083 C 220.386 78.092,220.392 78.000,220.041 78.000 C 219.866 78.000,219.691 78.029,219.653 78.064 M280.250 78.184 C 277.657 78.500,277.789 78.381,277.330 80.812 C 277.000 82.558,276.897 83.036,276.753 83.491 C 276.671 83.749,276.509 83.778,275.523 83.707 C 271.531 83.421,268.807 85.156,268.083 88.446 C 266.570 95.317,266.543 96.432,267.870 97.356 C 269.041 98.171,272.377 98.022,273.698 97.096 C 274.198 96.746,274.300 96.764,274.363 97.208 C 274.414 97.567,274.494 97.585,276.190 97.630 L 277.964 97.678 278.144 96.880 C 278.243 96.442,278.394 95.708,278.480 95.250 C 278.688 94.133,279.120 92.064,279.507 90.333 C 279.681 89.554,279.893 88.542,279.978 88.083 C 280.227 86.743,280.803 84.005,281.082 82.833 C 281.317 81.849,281.700 79.936,281.942 78.542 C 282.049 77.929,282.158 77.952,280.250 78.184 M189.804 80.562 C 188.059 80.793,188.242 80.616,187.881 82.424 L 187.583 83.917 186.589 84.000 C 185.476 84.093,185.627 83.877,185.115 86.115 C 184.835 87.340,184.931 87.500,185.950 87.500 C 186.784 87.500,186.786 87.505,186.426 89.250 C 186.293 89.892,186.023 91.242,185.824 92.250 C 185.625 93.258,185.422 94.196,185.372 94.333 C 184.290 97.328,187.492 98.850,191.623 97.304 C 192.737 96.887,192.757 96.834,192.360 95.317 C 192.001 93.946,192.084 93.992,190.458 94.252 C 189.502 94.405,189.509 94.439,190.016 92.058 C 190.209 91.155,190.491 89.779,190.644 89.000 L 190.923 87.583 192.314 87.535 C 193.995 87.476,194.016 87.457,194.452 85.667 C 194.878 83.919,194.937 84.000,193.240 84.000 C 192.226 84.000,191.833 83.942,191.833 83.792 C 191.833 83.677,191.946 82.995,192.083 82.277 C 192.506 80.071,192.657 80.185,189.804 80.562 M166.865 83.854 C 166.653 83.932,165.978 84.073,165.365 84.166 C 163.416 84.463,163.583 84.303,163.583 85.868 C 163.583 87.244,163.402 88.050,162.410 91.083 C 161.966 92.442,161.985 92.484,161.573 89.250 C 161.421 88.058,161.266 86.933,161.228 86.750 C 161.190 86.567,161.072 85.869,160.965 85.199 L 160.771 83.981 160.177 84.069 C 159.850 84.117,159.133 84.207,158.583 84.267 C 157.008 84.442,156.823 84.549,157.005 85.183 C 157.088 85.475,157.120 85.773,157.076 85.846 C 157.031 85.918,157.071 86.024,157.164 86.082 C 157.419 86.239,157.367 86.931,157.083 87.167 C 156.946 87.281,156.833 87.437,156.833 87.515 C 156.833 87.625,154.411 92.117,154.256 92.294 C 154.235 92.319,154.212 90.969,154.205 89.294 C 154.182 83.679,154.276 83.874,151.754 84.223 C 149.610 84.520,149.821 84.292,150.025 86.087 C 150.118 86.910,150.233 89.852,150.280 92.625 L 150.366 97.667 152.655 97.667 L 154.944 97.667 156.180 95.498 C 156.860 94.306,157.554 93.068,157.722 92.748 C 158.151 91.932,158.277 92.016,158.414 93.208 C 158.480 93.781,158.570 94.400,158.614 94.583 C 158.658 94.767,158.782 95.517,158.889 96.250 L 159.083 97.583 161.462 97.630 C 163.620 97.672,163.848 97.648,163.929 97.380 C 163.977 97.217,164.126 96.871,164.259 96.611 C 164.391 96.352,164.500 96.067,164.500 95.978 C 164.500 95.889,164.735 95.202,165.023 94.450 C 165.310 93.698,165.727 92.596,165.948 92.000 C 166.170 91.404,166.422 90.767,166.509 90.583 C 168.054 87.321,168.265 83.333,166.865 83.854 M183.653 83.732 C 183.582 83.798,182.928 83.901,180.970 84.155 C 179.555 84.338,179.569 84.327,179.412 85.371 C 179.339 85.855,179.267 86.287,179.251 86.333 C 179.234 86.379,179.175 86.529,179.119 86.667 C 179.063 86.804,178.901 87.517,178.759 88.250 C 178.617 88.983,178.321 90.446,178.102 91.500 C 177.882 92.554,177.547 94.187,177.358 95.130 C 177.169 96.072,176.973 96.909,176.923 96.990 C 176.593 97.524,177.032 97.667,179.006 97.667 L 180.977 97.667 181.252 96.375 C 181.403 95.665,181.708 94.221,181.930 93.167 C 182.508 90.423,182.971 88.294,183.345 86.667 C 183.841 84.506,183.951 83.452,183.653 83.732 M200.417 83.765 C 197.383 84.454,196.191 85.596,195.473 88.500 C 193.758 95.445,194.006 97.081,196.879 97.745 C 198.355 98.086,201.681 97.775,202.776 97.193 C 202.945 97.103,203.515 96.829,204.042 96.586 C 205.117 96.088,205.241 95.733,204.750 94.558 C 204.612 94.229,204.500 93.823,204.500 93.656 C 204.500 93.139,204.260 93.152,202.478 93.770 C 200.353 94.506,198.395 94.658,198.446 94.083 C 198.545 92.962,198.776 92.808,201.239 92.230 C 201.508 92.167,201.920 92.015,202.156 91.892 C 202.391 91.769,202.651 91.668,202.733 91.668 C 203.157 91.665,204.732 90.719,205.230 90.167 C 206.977 88.233,206.457 84.726,204.348 84.223 C 204.111 84.167,203.842 84.077,203.750 84.023 C 203.357 83.794,201.069 83.616,200.417 83.765 M225.819 83.734 C 225.781 83.771,225.450 83.847,225.083 83.902 C 222.828 84.243,221.325 85.795,220.630 88.500 C 218.538 96.644,219.543 98.606,225.367 97.752 C 227.208 97.482,227.477 97.400,229.312 96.541 L 230.208 96.122 230.108 95.282 C 230.054 94.820,229.932 94.365,229.838 94.271 C 229.744 94.177,229.667 93.932,229.667 93.727 C 229.667 93.147,229.453 93.131,228.139 93.607 C 224.912 94.777,223.496 94.776,223.633 93.604 C 223.705 92.988,223.962 92.850,226.000 92.340 C 226.412 92.237,226.900 92.088,227.083 92.009 C 227.267 91.930,227.852 91.698,228.385 91.493 C 231.415 90.326,232.591 86.274,230.360 84.686 C 229.384 83.991,226.235 83.331,225.819 83.734 M237.333 83.716 C 237.287 83.761,236.987 83.835,236.667 83.879 C 235.758 84.005,234.693 84.497,234.330 84.958 C 233.534 85.971,232.850 89.469,233.335 90.049 C 233.428 90.159,233.655 90.452,233.840 90.699 C 234.025 90.946,234.643 91.425,235.213 91.763 C 237.264 92.980,237.500 93.178,237.500 93.683 C 237.500 94.574,235.833 94.801,233.522 94.226 C 232.372 93.940,232.175 94.018,232.169 94.764 C 232.168 94.955,232.110 95.167,232.042 95.236 C 231.973 95.305,231.912 95.411,231.906 95.472 C 231.900 95.533,231.808 95.878,231.703 96.239 C 231.445 97.115,231.570 97.227,233.209 97.589 C 236.729 98.366,239.238 97.864,240.635 96.102 C 241.195 95.395,241.821 92.638,241.612 91.803 C 241.483 91.291,240.358 90.169,239.554 89.753 C 237.231 88.548,236.802 88.032,237.522 87.311 C 237.886 86.947,238.939 86.934,240.417 87.275 C 240.692 87.339,241.179 87.396,241.500 87.404 L 242.083 87.417 242.435 86.000 C 242.830 84.410,242.811 84.354,241.805 84.140 C 241.408 84.056,240.896 83.947,240.667 83.898 C 240.037 83.764,237.428 83.621,237.333 83.716 M247.750 83.831 C 245.841 84.243,244.945 85.163,244.518 87.153 C 243.991 89.611,244.632 91.013,246.765 92.074 C 248.377 92.875,248.958 93.746,248.265 94.321 C 247.791 94.714,244.743 94.487,243.812 93.989 C 243.570 93.859,243.500 93.879,243.500 94.077 C 243.500 94.218,243.412 94.333,243.306 94.333 C 243.199 94.333,243.154 94.376,243.207 94.429 C 243.260 94.482,243.160 95.025,242.985 95.637 C 242.586 97.031,242.578 96.945,243.144 97.238 C 244.642 98.013,249.024 98.121,250.311 97.414 C 252.461 96.235,253.489 92.100,251.964 90.764 C 251.086 89.995,250.803 89.804,249.596 89.167 C 248.430 88.551,248.156 88.143,248.491 87.517 C 248.818 86.906,249.527 86.893,252.617 87.441 C 253.100 87.526,253.162 87.489,253.261 87.059 C 253.321 86.798,253.474 86.262,253.602 85.869 C 254.067 84.434,253.987 84.304,252.500 84.076 C 252.088 84.013,251.600 83.922,251.417 83.875 C 250.793 83.716,248.419 83.687,247.750 83.831 M287.750 83.764 C 283.714 84.730,282.737 85.824,281.808 90.417 C 281.622 91.333,281.403 92.410,281.321 92.809 C 281.153 93.620,281.352 94.689,281.862 95.710 C 283.577 99.144,291.825 98.387,293.016 94.687 C 293.123 94.355,293.267 94.008,293.337 93.917 C 293.407 93.825,293.554 93.300,293.664 92.750 C 293.774 92.200,294.016 91.154,294.201 90.426 C 295.065 87.041,293.869 84.458,291.167 83.873 C 290.683 83.768,288.080 83.685,287.750 83.764 M311.319 83.734 C 311.281 83.771,310.987 83.843,310.667 83.895 C 309.954 84.008,308.081 84.617,307.467 84.934 C 307.219 85.062,306.992 85.167,306.962 85.167 C 306.932 85.167,306.937 84.861,306.973 84.487 L 307.037 83.808 306.310 83.899 C 305.021 84.061,303.443 84.335,303.369 84.409 C 303.280 84.498,302.909 86.217,302.520 88.340 C 302.360 89.215,302.183 90.005,302.126 90.097 C 302.070 90.189,301.908 90.898,301.767 91.673 C 301.626 92.449,301.365 93.796,301.186 94.667 C 301.007 95.537,300.810 96.571,300.748 96.964 L 300.636 97.677 302.690 97.630 L 304.744 97.583 305.041 96.000 C 305.205 95.129,305.410 94.192,305.497 93.917 C 305.584 93.642,305.768 92.817,305.907 92.083 C 306.436 89.296,306.517 89.066,307.070 88.778 C 308.002 88.293,309.338 87.833,309.815 87.833 L 310.283 87.833 310.071 88.958 C 309.664 91.121,309.149 93.591,308.916 94.500 C 308.787 95.004,308.631 95.810,308.569 96.292 C 308.507 96.773,308.394 97.167,308.317 97.167 C 308.240 97.167,308.220 97.279,308.273 97.417 C 308.382 97.699,312.234 97.796,312.404 97.520 C 312.490 97.382,312.839 95.759,313.503 92.417 C 313.667 91.592,313.817 90.898,313.838 90.875 C 313.895 90.811,313.931 90.645,314.070 89.811 L 314.199 89.038 315.558 88.435 C 316.305 88.102,317.161 87.831,317.461 87.832 C 318.130 87.834,318.183 87.414,316.575 94.786 C 316.350 95.814,316.167 96.882,316.167 97.161 L 316.167 97.667 318.155 97.667 C 320.389 97.667,320.182 97.800,320.485 96.167 C 320.578 95.662,320.701 95.063,320.757 94.833 C 320.812 94.604,320.967 93.817,321.099 93.083 C 321.231 92.350,321.385 91.638,321.440 91.500 C 321.633 91.017,322.200 87.905,322.284 86.863 C 322.495 84.251,320.935 83.152,318.083 83.903 C 317.900 83.951,317.420 84.071,317.017 84.168 C 316.614 84.266,315.880 84.531,315.387 84.756 C 314.333 85.238,314.333 85.238,314.333 84.922 C 314.333 84.683,313.444 83.917,313.167 83.917 C 313.090 83.917,312.972 83.860,312.903 83.792 C 312.774 83.663,311.443 83.614,311.319 83.734 M330.132 83.757 C 330.083 83.806,329.789 83.873,329.480 83.905 C 326.918 84.172,325.302 85.538,324.424 88.176 C 323.758 90.179,323.157 94.160,323.462 94.548 C 323.549 94.659,323.673 94.970,323.738 95.239 C 324.191 97.129,326.866 98.243,329.998 97.846 C 333.386 97.417,335.083 95.910,335.745 92.743 C 335.867 92.164,336.003 91.629,336.049 91.553 C 336.733 90.422,336.659 86.815,335.930 85.721 C 335.021 84.359,330.920 82.969,330.132 83.757 M343.117 83.772 C 343.058 83.830,342.840 83.903,342.630 83.933 C 342.421 83.963,341.762 84.064,341.167 84.157 C 340.571 84.250,340.035 84.328,339.976 84.330 C 339.917 84.332,339.785 84.765,339.683 85.292 C 339.501 86.228,339.205 87.632,338.513 90.833 C 338.325 91.704,338.170 92.618,338.169 92.865 C 338.168 93.112,338.102 93.353,338.024 93.402 C 337.945 93.451,337.787 94.074,337.672 94.787 C 337.441 96.225,337.385 96.539,337.240 97.208 L 337.140 97.667 339.158 97.667 C 341.588 97.667,341.223 98.155,342.083 93.750 C 342.878 89.682,342.873 89.691,344.750 88.678 C 347.139 87.389,347.000 87.581,347.000 85.572 C 347.000 83.523,347.043 83.551,345.293 84.466 C 343.611 85.347,343.473 85.391,343.509 85.040 C 343.613 84.015,343.438 83.451,343.117 83.772 M352.583 83.774 C 349.486 84.413,348.110 85.883,347.433 89.278 C 347.289 89.996,347.062 91.071,346.928 91.667 C 345.971 95.920,346.698 97.476,349.842 97.907 C 350.752 98.031,353.830 97.596,354.504 97.248 C 354.768 97.112,355.089 97.000,355.217 97.000 C 355.411 97.000,356.950 96.263,357.142 96.078 C 357.264 95.961,356.782 93.716,356.574 93.431 C 356.366 93.148,356.311 93.151,355.386 93.504 C 352.384 94.650,350.667 94.812,350.667 93.949 C 350.667 93.303,350.948 92.864,351.417 92.778 C 351.600 92.744,351.863 92.671,352.000 92.615 C 352.137 92.560,352.733 92.393,353.324 92.244 C 356.610 91.418,358.237 89.914,358.456 87.500 C 358.688 84.941,355.802 83.110,352.583 83.774 M172.932 83.957 C 172.902 83.987,172.399 84.088,171.814 84.182 C 170.552 84.384,170.546 84.389,170.349 85.340 C 170.264 85.749,170.148 86.271,170.091 86.500 C 170.034 86.729,169.847 87.629,169.675 88.500 C 169.504 89.371,169.129 91.171,168.844 92.500 C 168.420 94.469,167.835 97.440,167.834 97.625 C 167.833 97.793,171.833 97.635,171.940 97.463 C 172.064 97.261,172.360 95.880,173.001 92.500 C 173.490 89.925,173.635 89.629,174.667 89.111 C 174.987 88.949,175.662 88.561,176.167 88.248 C 176.671 87.936,177.169 87.677,177.274 87.673 C 177.688 87.659,177.897 83.833,177.484 83.833 C 177.342 83.833,175.096 84.858,174.277 85.296 C 174.200 85.337,174.152 85.156,174.170 84.894 C 174.238 83.877,174.206 83.820,173.577 83.863 C 173.252 83.884,172.962 83.927,172.932 83.957 M202.070 87.101 C 202.991 87.455,202.155 88.658,200.620 89.189 C 199.334 89.633,199.329 89.630,199.593 88.625 C 199.936 87.315,200.970 86.679,202.070 87.101 M227.300 87.200 C 227.922 87.822,227.291 88.671,225.833 89.173 C 224.495 89.634,224.495 89.634,224.759 88.625 C 225.110 87.287,226.569 86.469,227.300 87.200 M354.262 87.238 C 355.003 87.979,353.235 89.500,351.633 89.500 C 351.582 89.500,351.612 89.144,351.698 88.708 C 351.968 87.357,353.501 86.478,354.262 87.238 M275.830 87.726 C 275.829 87.922,275.710 88.608,275.565 89.250 C 275.421 89.892,275.174 91.036,275.016 91.793 C 274.709 93.258,274.604 93.402,273.406 93.997 C 272.686 94.354,271.425 94.449,271.246 94.160 C 271.145 93.996,271.583 91.041,271.788 90.500 C 271.841 90.362,271.912 90.100,271.947 89.917 C 272.136 88.919,272.381 88.323,272.743 87.974 C 273.552 87.196,275.836 87.012,275.830 87.726 M290.128 87.703 C 290.379 87.912,290.317 89.955,290.046 90.393 C 289.984 90.494,289.921 90.691,289.907 90.830 C 289.635 93.482,288.965 94.326,287.131 94.331 C 285.859 94.334,285.437 93.932,285.559 92.833 C 285.851 90.206,286.487 88.190,287.163 87.752 C 287.989 87.215,289.510 87.191,290.128 87.703 M331.946 87.599 C 332.446 87.910,332.445 89.660,331.944 91.250 C 331.916 91.342,331.798 91.850,331.683 92.380 C 331.347 93.932,330.697 94.399,329.008 94.302 C 327.522 94.216,327.412 93.922,327.897 91.333 C 328.478 88.237,328.703 87.825,330.036 87.416 C 330.800 87.182,331.363 87.236,331.946 87.599 M254.867 93.458 C 254.669 94.126,254.418 95.330,254.251 96.417 C 254.195 96.783,254.110 97.215,254.063 97.375 C 253.991 97.620,254.089 97.667,254.667 97.667 L 255.356 97.667 254.784 98.375 C 254.469 98.765,253.999 99.411,253.738 99.811 L 253.264 100.538 253.891 101.113 C 254.725 101.878,254.747 101.866,256.552 99.723 L 258.119 97.864 258.411 96.307 C 258.571 95.451,258.805 94.384,258.931 93.938 C 259.243 92.834,259.243 92.833,257.017 92.833 L 255.053 92.833 254.867 93.458 M359.776 92.958 C 359.734 93.027,359.639 93.458,359.566 93.917 C 359.414 94.869,359.422 94.834,359.285 95.167 C 359.186 95.408,358.833 97.252,358.833 97.531 C 358.833 97.605,359.767 97.667,360.909 97.667 L 362.985 97.667 363.081 97.042 C 363.134 96.698,363.325 95.776,363.505 94.992 C 364.040 92.668,364.168 92.833,361.843 92.833 C 360.749 92.833,359.818 92.890,359.776 92.958 " stroke="none" fill="#1261a8" fill-rule="evenodd"></path><path id="path31" d="M39.542 13.250 C 39.544 13.617,39.578 13.747,39.618 13.540 C 39.658 13.332,39.656 13.032,39.615 12.873 C 39.573 12.714,39.540 12.883,39.542 13.250 M150.205 89.500 C 150.205 89.821,150.240 89.952,150.282 89.792 C 150.323 89.631,150.323 89.369,150.282 89.208 C 150.240 89.048,150.205 89.179,150.205 89.500 M252.705 92.333 C 252.705 92.654,252.740 92.785,252.782 92.625 C 252.823 92.465,252.823 92.202,252.782 92.042 C 252.740 91.881,252.705 92.013,252.705 92.333 " stroke="none" fill="#0665a6" fill-rule="evenodd"></path></g></svg>