<svg id="svg" version="1.1" width="45px" height="45px" viewBox="0 0 400 453.25779036827197" xmlns="http://www.w3.org/2000/svg" xmlns:xlink="http://www.w3.org/1999/xlink" ><g id="svgg"><path id="path0" d="M75.344 82.100 C 75.474 83.255,75.683 85.730,75.810 87.600 C 75.936 89.470,76.214 92.530,76.427 94.400 C 76.640 96.270,77.094 100.950,77.436 104.800 C 78.125 112.561,79.011 122.254,79.438 126.700 L 79.716 129.600 108.015 129.600 C 133.451 129.600,136.339 129.664,136.557 130.233 C 137.131 131.728,136.821 300.017,136.245 300.238 C 135.939 300.355,134.544 300.242,133.145 299.986 C 130.661 299.532,126.703 298.943,118.600 297.824 C 107.170 296.245,108.165 296.870,107.807 291.041 C 107.657 288.598,107.378 285.430,107.188 284.000 C 106.998 282.570,106.651 278.700,106.417 275.400 C 106.184 272.100,105.819 268.050,105.608 266.400 C 105.396 264.750,105.112 261.825,104.976 259.900 L 104.728 256.400 79.964 256.400 L 55.200 256.400 55.217 258.100 C 55.238 260.152,55.616 264.572,57.410 283.800 C 57.739 287.320,58.181 292.270,58.394 294.800 C 59.040 302.501,59.589 308.698,60.200 315.200 C 60.520 318.610,60.884 322.750,61.008 324.400 C 61.133 326.050,61.425 329.036,61.658 331.035 L 62.082 334.670 65.941 335.383 C 69.647 336.067,71.129 336.355,78.200 337.760 C 79.960 338.110,83.290 338.771,85.600 339.230 C 87.910 339.688,90.970 340.301,92.400 340.591 C 93.830 340.881,96.080 341.329,97.400 341.588 C 98.720 341.846,102.050 342.514,104.800 343.073 C 107.550 343.631,111.060 344.317,112.600 344.596 C 115.502 345.122,126.297 347.253,129.800 347.992 C 132.764 348.616,137.382 349.545,141.000 350.244 C 142.760 350.584,145.370 351.099,146.800 351.390 C 149.624 351.963,156.483 353.325,161.100 354.231 C 168.024 355.589,170.036 355.986,174.000 356.771 C 182.092 358.376,184.209 358.802,185.300 359.047 L 186.400 359.293 186.400 219.647 L 186.400 80.000 130.754 80.000 L 75.108 80.000 75.344 82.100 " stroke="none" fill="#ffffff" fill-rule="evenodd"></path><path id="path1" d="M103.100 79.900 C 118.335 79.958,143.265 79.958,158.500 79.900 C 173.735 79.842,161.270 79.794,130.800 79.794 C 100.330 79.794,87.865 79.842,103.100 79.900 M75.082 83.600 C 75.211 85.690,75.458 88.300,75.633 89.400 C 75.839 90.697,75.873 89.924,75.731 87.200 C 75.610 84.890,75.363 82.280,75.181 81.400 C 74.968 80.374,74.933 81.164,75.082 83.600 M186.499 219.467 C 186.420 330.751,186.298 359.174,185.900 359.335 C 185.508 359.493,185.511 359.544,185.913 359.568 C 186.813 359.624,186.806 360.779,186.702 219.200 L 186.599 79.800 186.499 219.467 M214.099 155.500 L 214.200 231.000 248.100 231.102 L 282.000 231.205 281.995 232.102 C 281.987 233.418,281.096 243.397,278.809 267.800 C 278.355 272.640,277.726 279.480,277.411 283.000 C 276.534 292.790,276.362 294.532,276.185 295.427 C 276.049 296.113,275.526 296.337,273.111 296.744 C 271.510 297.013,268.850 297.477,267.200 297.774 C 265.550 298.070,262.130 298.683,259.600 299.135 C 257.070 299.587,252.930 300.337,250.400 300.803 C 242.092 302.332,239.441 302.813,236.200 303.384 C 234.440 303.694,229.490 304.599,225.200 305.396 C 220.910 306.192,216.680 306.974,215.800 307.133 L 214.200 307.422 214.097 333.364 L 213.994 359.306 215.297 359.066 C 216.014 358.934,219.390 358.190,222.800 357.412 C 226.210 356.635,231.880 355.347,235.400 354.551 C 238.920 353.754,242.790 352.876,244.000 352.600 C 245.210 352.324,249.170 351.424,252.800 350.600 C 256.430 349.776,260.390 348.876,261.600 348.600 C 262.810 348.324,266.680 347.448,270.200 346.654 C 273.720 345.861,279.390 344.568,282.800 343.781 C 286.210 342.995,290.080 342.109,291.400 341.812 C 292.720 341.516,297.040 340.529,301.000 339.620 C 304.960 338.711,309.370 337.709,310.800 337.393 C 312.230 337.078,315.377 336.365,317.793 335.810 C 320.209 335.254,322.290 334.800,322.417 334.800 C 322.660 334.800,323.412 328.733,323.805 323.600 C 323.931 321.950,324.294 317.810,324.612 314.400 C 325.839 301.220,327.047 287.800,327.780 279.200 C 328.108 275.350,328.473 271.480,328.590 270.600 C 328.708 269.720,329.068 265.850,329.391 262.000 C 329.980 254.975,330.467 249.503,331.994 232.800 C 332.796 224.018,333.349 217.824,334.595 203.633 C 334.932 199.801,335.377 195.121,335.583 193.233 C 335.790 191.345,336.083 187.865,336.234 185.500 L 336.509 181.200 301.497 181.200 C 269.940 181.200,266.462 181.138,266.243 180.567 C 265.926 179.741,265.926 131.059,266.243 130.233 C 266.462 129.662,270.144 129.600,303.809 129.600 L 341.132 129.600 341.390 126.500 C 341.531 124.795,341.817 121.690,342.025 119.600 C 342.392 115.910,343.001 109.007,344.197 95.000 C 344.516 91.260,344.959 86.490,345.182 84.400 C 345.404 82.310,345.589 80.465,345.593 80.300 C 345.597 80.135,315.990 80.000,279.799 80.000 L 213.998 80.000 214.099 155.500 M76.101 94.200 C 76.105 95.080,76.187 95.393,76.283 94.895 C 76.379 94.398,76.375 93.678,76.275 93.295 C 76.175 92.913,76.096 93.320,76.101 94.200 M76.498 98.200 C 76.488 99.520,76.616 101.590,76.783 102.800 L 77.087 105.000 77.100 102.800 C 77.107 101.590,76.979 99.520,76.815 98.200 L 76.518 95.800 76.498 98.200 M77.309 106.800 C 77.309 107.790,77.387 108.195,77.482 107.700 C 77.578 107.205,77.578 106.395,77.482 105.900 C 77.387 105.405,77.309 105.810,77.309 106.800 M77.873 113.800 C 77.999 116.000,78.247 118.610,78.424 119.600 C 78.627 120.739,78.664 119.857,78.524 117.200 C 78.403 114.890,78.155 112.280,77.973 111.400 C 77.763 110.386,77.727 111.264,77.873 113.800 M79.070 126.000 C 79.191 127.870,79.371 129.535,79.469 129.700 C 79.567 129.865,92.327 130.000,107.824 130.000 L 136.000 130.000 136.000 215.027 C 136.000 295.812,135.965 300.044,135.300 299.860 C 134.915 299.753,133.520 299.573,132.200 299.460 L 129.800 299.254 132.747 299.852 C 134.368 300.181,135.943 300.354,136.247 300.237 C 136.822 300.017,137.129 131.722,136.557 130.233 C 136.339 129.664,133.446 129.600,107.957 129.600 L 79.600 129.600 79.570 127.900 C 79.554 126.965,79.385 125.390,79.195 124.400 C 78.939 123.065,78.907 123.477,79.070 126.000 M54.835 258.697 C 54.854 260.184,55.019 262.300,55.202 263.400 C 55.425 264.747,55.462 263.930,55.315 260.900 L 55.097 256.400 79.913 256.400 L 104.728 256.400 104.977 259.900 C 105.114 261.825,105.387 264.390,105.584 265.600 C 106.002 268.166,105.688 261.151,105.244 258.000 L 104.990 256.200 79.895 256.097 L 54.800 255.994 54.835 258.697 M55.890 270.600 C 56.008 272.800,56.251 275.770,56.430 277.200 C 56.664 279.071,56.693 278.511,56.531 275.200 C 56.408 272.670,56.165 269.700,55.991 268.600 C 55.783 267.278,55.748 267.956,55.890 270.600 M106.109 271.200 C 106.109 272.190,106.187 272.595,106.282 272.100 C 106.378 271.605,106.378 270.795,106.282 270.300 C 106.187 269.805,106.109 270.210,106.109 271.200 M106.664 277.400 C 106.786 279.820,107.031 282.700,107.208 283.800 C 107.618 286.338,107.245 279.367,106.770 275.600 C 106.525 273.659,106.498 274.115,106.664 277.400 M56.901 281.400 C 56.905 282.280,56.987 282.593,57.083 282.095 C 57.179 281.598,57.175 280.878,57.075 280.495 C 56.975 280.113,56.896 280.520,56.901 281.400 M57.476 288.400 C 57.598 290.930,57.843 293.810,58.021 294.800 C 58.429 297.066,58.041 289.476,57.579 286.138 C 57.357 284.538,57.325 285.251,57.476 288.400 M107.852 291.000 C 108.098 295.941,108.226 296.407,109.327 296.375 L 110.200 296.349 109.300 295.988 C 108.519 295.674,108.395 295.321,108.365 293.313 C 108.346 292.041,108.177 290.100,107.991 289.000 C 107.741 287.526,107.704 288.052,107.852 291.000 M114.400 297.166 C 115.170 297.355,116.970 297.608,118.400 297.729 C 120.330 297.893,120.639 297.859,119.600 297.600 C 118.830 297.408,117.030 297.155,115.600 297.037 C 113.687 296.879,113.370 296.913,114.400 297.166 M58.688 302.000 C 58.812 304.310,59.059 307.100,59.237 308.200 C 59.458 309.575,59.494 308.951,59.351 306.200 C 59.237 304.000,58.990 301.210,58.802 300.000 C 58.553 298.394,58.522 298.933,58.688 302.000 M122.917 298.389 C 123.532 298.582,125.242 298.838,126.717 298.958 C 128.543 299.106,128.989 299.069,128.113 298.841 C 126.247 298.356,121.499 297.942,122.917 298.389 M59.701 313.000 C 59.705 313.880,59.787 314.193,59.883 313.695 C 59.979 313.198,59.975 312.478,59.875 312.095 C 59.775 311.713,59.696 312.120,59.701 313.000 M60.266 319.771 C 60.387 322.175,60.632 324.965,60.809 325.971 C 61.013 327.130,61.048 326.262,60.906 323.600 C 60.782 321.290,60.537 318.500,60.363 317.400 C 60.160 316.125,60.125 316.984,60.266 319.771 M61.240 331.033 C 61.262 332.115,61.434 333.450,61.621 334.000 C 61.837 334.631,61.878 333.968,61.732 332.200 C 61.460 328.896,61.183 328.240,61.240 331.033 M62.433 334.962 C 62.754 335.272,75.657 337.676,75.868 337.465 C 75.986 337.348,75.388 337.130,74.541 336.981 C 73.693 336.832,70.798 336.280,68.107 335.755 C 63.262 334.810,62.110 334.648,62.433 334.962 M77.208 337.949 C 78.666 338.430,82.387 338.871,81.400 338.446 C 80.960 338.256,79.610 337.992,78.400 337.859 C 77.011 337.706,76.572 337.739,77.208 337.949 M82.842 338.955 C 83.136 339.273,89.680 340.453,89.904 340.229 C 89.992 340.141,89.104 339.881,87.932 339.650 C 84.103 338.895,82.596 338.689,82.842 338.955 M92.600 340.998 C 95.262 341.627,96.675 341.742,95.400 341.225 C 94.960 341.047,93.610 340.795,92.400 340.666 L 90.200 340.431 92.600 340.998 M97.400 341.954 C 97.840 342.144,99.190 342.408,100.400 342.541 C 101.789 342.694,102.228 342.661,101.592 342.451 C 100.134 341.970,96.413 341.529,97.400 341.954 M102.800 342.913 C 103.074 343.213,109.685 344.448,109.895 344.239 C 109.988 344.146,109.104 343.881,107.932 343.650 C 104.253 342.924,102.593 342.686,102.800 342.913 M112.600 344.984 C 113.700 345.280,115.050 345.529,115.600 345.536 C 117.340 345.559,115.312 344.934,112.800 344.673 L 110.600 344.444 112.600 344.984 M118.667 346.174 C 119.803 346.463,121.603 346.801,122.667 346.925 L 124.600 347.151 122.533 346.626 C 121.397 346.337,119.597 345.999,118.533 345.875 L 116.600 345.649 118.667 346.174 M125.608 347.549 C 127.066 348.030,130.787 348.471,129.800 348.046 C 129.360 347.856,128.010 347.592,126.800 347.459 C 125.411 347.306,124.972 347.339,125.608 347.549 M133.000 348.990 C 134.100 349.283,135.450 349.525,136.000 349.527 L 137.000 349.531 135.992 349.225 C 135.438 349.056,134.088 348.814,132.992 348.687 L 131.000 348.456 133.000 348.990 M139.608 350.342 C 141.152 350.862,144.810 351.279,143.704 350.809 C 143.211 350.600,141.861 350.333,140.704 350.216 C 139.272 350.071,138.922 350.111,139.608 350.342 M147.000 351.790 C 148.100 352.083,149.360 352.329,149.800 352.336 L 150.600 352.349 149.800 352.030 C 149.360 351.855,148.100 351.609,147.000 351.484 L 145.000 351.256 147.000 351.790 M151.200 352.513 C 151.474 352.813,158.085 354.048,158.295 353.839 C 158.388 353.746,157.504 353.481,156.332 353.250 C 152.653 352.524,150.993 352.286,151.200 352.513 M160.000 354.344 C 161.581 354.862,164.686 355.250,164.000 354.844 C 163.670 354.649,162.410 354.383,161.200 354.253 C 159.832 354.106,159.378 354.141,160.000 354.344 M167.000 355.796 C 168.100 356.086,169.450 356.329,170.000 356.336 C 171.740 356.359,169.710 355.747,167.200 355.492 L 165.000 355.268 167.000 355.796 M173.067 356.994 C 175.784 357.658,179.064 358.139,178.758 357.829 C 178.507 357.573,172.101 356.368,171.400 356.445 C 171.180 356.469,171.930 356.716,173.067 356.994 M180.008 358.349 C 181.466 358.830,185.187 359.271,184.200 358.846 C 183.760 358.656,182.410 358.392,181.200 358.259 C 179.811 358.106,179.372 358.139,180.008 358.349 " stroke="none" fill="#ffffff" fill-rule="evenodd"></path><path id="path2" d="" stroke="none" fill="#ff0000" fill-rule="evenodd"></path><path id="path3" d="" stroke="none" fill="#ff5500" fill-rule="evenodd"></path><path id="path4" d="M-0.003 0.900 C -0.012 3.905,0.914 16.335,1.197 17.000 C 1.384 17.440,1.752 21.670,2.017 26.400 C 2.281 31.130,2.633 35.360,2.799 35.800 C 2.966 36.240,3.234 39.345,3.396 42.700 C 3.558 46.055,3.828 48.800,3.997 48.800 C 4.165 48.800,4.434 51.635,4.594 55.100 C 4.753 58.565,5.019 61.580,5.184 61.800 C 5.350 62.020,5.714 66.250,5.994 71.200 C 6.275 76.150,6.644 80.380,6.815 80.600 C 6.986 80.820,7.256 83.835,7.416 87.300 C 7.576 90.765,7.831 93.600,7.982 93.600 C 8.134 93.600,8.492 97.695,8.779 102.700 C 9.065 107.705,9.437 111.980,9.606 112.200 C 9.774 112.420,10.042 115.390,10.201 118.800 C 10.360 122.210,10.605 125.180,10.745 125.400 C 11.009 125.814,11.483 131.119,12.693 147.200 C 13.082 152.370,13.517 156.780,13.659 157.000 C 13.802 157.220,14.050 160.145,14.210 163.500 C 14.371 166.855,14.623 169.600,14.771 169.600 C 14.919 169.600,15.271 173.559,15.555 178.397 C 16.121 188.067,16.118 188.028,16.466 188.600 C 16.600 188.820,16.841 191.747,17.000 195.105 C 17.160 198.462,17.430 201.295,17.600 201.400 C 17.770 201.505,18.040 204.473,18.200 207.995 C 18.360 211.518,18.622 214.400,18.783 214.400 C 18.943 214.400,19.305 218.495,19.587 223.500 C 19.869 228.505,20.237 232.780,20.404 233.000 C 20.571 233.220,20.837 236.100,20.996 239.400 C 21.154 242.700,21.421 245.580,21.589 245.800 C 21.757 246.020,22.118 250.157,22.392 254.993 C 22.666 259.829,23.029 264.151,23.199 264.597 C 23.368 265.043,23.640 268.064,23.802 271.311 C 23.965 274.557,24.235 277.298,24.403 277.402 C 24.571 277.506,24.840 280.473,25.000 283.995 C 25.160 287.518,25.451 290.400,25.646 290.400 C 25.841 290.400,26.011 291.615,26.025 293.100 C 26.049 295.744,26.621 302.999,27.815 315.800 C 28.418 322.264,29.421 334.914,29.623 338.600 C 29.683 339.700,29.838 340.780,29.966 341.000 C 30.194 341.390,30.707 347.208,31.659 360.200 C 31.917 363.720,32.255 366.690,32.409 366.800 C 32.564 366.910,32.918 371.140,33.195 376.200 C 33.473 381.260,33.838 385.580,34.008 385.800 C 34.178 386.020,34.447 388.858,34.607 392.106 C 34.767 395.355,35.055 398.111,35.249 398.230 C 35.442 398.350,35.618 399.742,35.640 401.324 C 35.661 402.906,35.796 405.189,35.940 406.397 L 36.200 408.595 38.200 408.954 C 39.300 409.151,40.290 409.441,40.400 409.598 C 40.510 409.755,41.860 410.113,43.400 410.394 C 44.940 410.675,46.389 411.054,46.620 411.235 C 46.851 411.417,47.800 411.686,48.729 411.835 C 49.658 411.984,50.511 412.256,50.625 412.441 C 50.739 412.626,51.725 412.895,52.816 413.040 C 53.907 413.185,54.800 413.447,54.800 413.622 C 54.800 413.798,56.150 414.160,57.800 414.426 C 59.450 414.692,60.800 415.048,60.800 415.217 C 60.800 415.387,61.700 415.649,62.800 415.800 C 63.899 415.951,64.890 416.222,65.001 416.401 C 65.112 416.581,66.462 416.953,68.001 417.228 C 69.541 417.503,70.800 417.859,70.800 418.018 C 70.800 418.177,71.790 418.432,73.000 418.583 C 74.210 418.734,75.200 419.008,75.200 419.191 C 75.200 419.375,76.100 419.649,77.200 419.800 C 78.299 419.951,79.287 420.217,79.395 420.391 C 79.502 420.565,80.807 420.932,82.295 421.206 C 83.783 421.481,85.189 421.854,85.420 422.035 C 85.651 422.217,86.600 422.486,87.529 422.635 C 88.458 422.784,89.307 423.050,89.417 423.228 C 89.527 423.405,90.963 423.777,92.608 424.053 C 94.254 424.330,95.600 424.684,95.600 424.840 C 95.600 424.997,96.500 425.249,97.600 425.400 C 98.700 425.551,99.600 425.821,99.600 426.000 C 99.600 426.179,100.500 426.449,101.600 426.600 C 102.699 426.751,103.690 427.022,103.801 427.201 C 103.912 427.381,105.262 427.753,106.801 428.028 C 108.341 428.303,109.600 428.659,109.600 428.819 C 109.600 428.978,110.455 429.236,111.500 429.392 C 112.545 429.548,113.580 429.817,113.800 429.991 C 114.020 430.165,115.505 430.537,117.100 430.818 C 118.695 431.098,120.000 431.462,120.000 431.627 C 120.000 431.791,120.900 432.049,122.000 432.200 C 123.099 432.351,124.090 432.622,124.202 432.803 C 124.313 432.983,125.150 433.256,126.061 433.410 C 126.973 433.564,128.277 433.918,128.959 434.196 C 129.642 434.474,131.055 434.825,132.100 434.975 C 133.145 435.126,134.000 435.397,134.000 435.578 C 134.000 435.760,134.987 436.031,136.194 436.182 C 137.400 436.333,138.481 436.607,138.595 436.792 C 138.709 436.977,140.062 437.353,141.601 437.628 C 143.141 437.903,144.400 438.262,144.400 438.427 C 144.400 438.591,145.300 438.849,146.400 439.000 C 147.499 439.151,148.490 439.422,148.602 439.603 C 148.713 439.783,149.561 440.058,150.487 440.215 C 151.412 440.371,152.446 440.657,152.785 440.851 C 153.123 441.044,154.570 441.459,156.000 441.773 C 160.288 442.714,162.588 443.341,162.800 443.628 C 162.910 443.777,164.305 444.130,165.900 444.413 C 167.495 444.697,168.800 445.066,168.800 445.235 C 168.800 445.404,169.790 445.666,171.000 445.817 C 172.210 445.968,173.200 446.235,173.200 446.409 C 173.200 446.583,174.100 446.849,175.200 447.000 C 176.300 447.151,177.200 447.413,177.200 447.581 C 177.200 447.749,178.550 448.118,180.200 448.400 C 181.850 448.682,183.200 449.051,183.200 449.219 C 183.200 449.387,184.100 449.649,185.200 449.800 C 186.299 449.951,187.285 450.213,187.389 450.382 C 187.493 450.551,188.934 450.930,190.589 451.224 C 192.245 451.518,193.600 451.887,193.600 452.043 C 193.600 453.271,204.597 453.286,206.150 452.060 C 206.397 451.864,207.815 451.468,209.300 451.179 C 210.785 450.890,212.000 450.529,212.000 450.378 C 212.000 450.227,212.941 449.978,214.090 449.826 C 215.240 449.673,216.365 449.400,216.590 449.218 C 216.816 449.036,218.080 448.668,219.400 448.400 C 220.720 448.132,221.980 447.776,222.200 447.607 C 222.420 447.439,223.451 447.178,224.491 447.027 C 225.531 446.877,226.476 446.600,226.593 446.412 C 226.709 446.224,227.561 445.942,228.487 445.785 C 229.412 445.629,230.446 445.343,230.785 445.149 C 231.123 444.956,232.570 444.545,234.000 444.235 C 237.475 443.483,240.026 442.808,241.000 442.382 C 241.440 442.189,242.925 441.821,244.300 441.564 C 245.675 441.306,246.800 440.960,246.800 440.794 C 246.800 440.628,247.790 440.368,249.000 440.217 C 250.210 440.066,251.200 439.796,251.200 439.617 C 251.200 439.437,252.055 439.163,253.100 439.006 C 254.145 438.850,255.090 438.594,255.200 438.439 C 255.310 438.283,256.660 437.864,258.200 437.506 C 263.159 436.355,264.996 435.849,265.200 435.577 C 265.310 435.431,266.300 435.179,267.400 435.017 C 268.500 434.856,269.978 434.483,270.685 434.189 C 271.391 433.894,272.786 433.531,273.785 433.381 C 274.783 433.232,275.600 432.973,275.600 432.806 C 275.600 432.639,276.486 432.385,277.570 432.242 C 278.653 432.098,279.598 431.841,279.670 431.671 C 279.787 431.393,281.668 430.895,287.800 429.519 C 288.900 429.272,289.890 428.948,290.000 428.799 C 290.110 428.650,291.370 428.303,292.800 428.027 C 294.230 427.751,295.580 427.384,295.800 427.213 C 296.020 427.041,297.055 426.777,298.100 426.626 C 299.145 426.475,300.000 426.202,300.000 426.021 C 300.000 425.839,300.855 425.563,301.900 425.406 C 302.945 425.250,303.980 425.005,304.200 424.861 C 304.420 424.717,305.860 424.301,307.400 423.937 C 312.065 422.831,313.768 422.362,314.466 421.990 C 314.833 421.795,316.319 421.429,317.768 421.176 C 319.218 420.924,320.500 420.561,320.618 420.370 C 320.736 420.179,321.725 419.905,322.816 419.760 C 323.907 419.615,324.800 419.357,324.800 419.186 C 324.800 419.015,325.700 418.751,326.800 418.600 C 327.900 418.449,328.800 418.198,328.800 418.042 C 328.800 417.887,330.155 417.518,331.811 417.224 C 333.466 416.930,334.907 416.550,335.013 416.379 C 335.118 416.209,335.968 415.943,336.902 415.789 C 337.836 415.634,338.780 415.394,339.000 415.256 C 339.425 414.988,343.676 413.850,347.000 413.113 C 348.100 412.869,349.090 412.544,349.200 412.390 C 349.310 412.237,350.255 411.985,351.300 411.831 C 352.345 411.677,353.200 411.418,353.200 411.255 C 353.200 411.092,354.555 410.718,356.211 410.424 C 357.866 410.130,359.307 409.751,359.411 409.582 C 359.515 409.413,360.487 409.153,361.570 409.004 C 363.951 408.677,363.926 408.733,364.227 403.083 C 364.359 400.617,364.578 398.330,364.715 398.000 C 364.954 397.423,365.456 392.052,366.508 378.800 C 366.779 375.390,367.114 372.420,367.253 372.200 C 367.393 371.980,367.736 367.750,368.017 362.800 C 368.298 357.850,368.655 353.710,368.810 353.600 C 368.965 353.490,369.293 350.610,369.539 347.200 C 369.784 343.790,370.290 336.770,370.662 331.600 C 371.035 326.430,371.467 322.110,371.622 322.000 C 371.778 321.890,372.036 319.010,372.197 315.600 C 372.357 312.190,372.628 309.220,372.798 309.000 C 372.968 308.780,373.238 305.900,373.397 302.600 C 373.556 299.300,373.797 296.420,373.932 296.200 C 374.273 295.644,374.249 295.923,374.807 286.384 C 375.084 281.663,375.445 277.620,375.609 277.400 C 375.773 277.180,376.038 274.300,376.197 271.000 C 376.357 267.700,376.626 264.730,376.797 264.400 C 376.967 264.070,377.339 259.750,377.624 254.800 C 377.908 249.850,378.262 245.710,378.411 245.600 C 378.559 245.490,378.882 242.610,379.129 239.200 C 379.793 230.040,380.691 219.919,380.927 218.956 C 381.040 218.491,381.363 214.306,381.644 209.656 C 381.925 205.005,382.280 201.200,382.432 201.200 C 382.585 201.200,382.840 198.455,382.999 195.100 C 383.158 191.745,383.426 188.820,383.594 188.600 C 383.762 188.380,384.127 184.060,384.406 179.000 C 384.684 173.940,385.047 169.620,385.214 169.400 C 385.380 169.180,385.647 166.342,385.807 163.094 C 385.967 159.845,386.236 157.101,386.406 156.996 C 386.576 156.891,386.845 153.969,387.004 150.502 C 387.162 147.036,387.431 144.020,387.600 143.800 C 387.770 143.580,388.135 139.350,388.411 134.400 C 388.688 129.450,389.050 125.220,389.215 125.000 C 389.381 124.780,389.646 121.900,389.804 118.600 C 389.963 115.300,390.230 112.420,390.398 112.200 C 390.566 111.980,390.936 107.615,391.220 102.500 C 391.504 97.385,391.865 93.200,392.023 93.200 C 392.180 93.200,392.440 90.455,392.599 87.100 C 392.758 83.745,393.029 80.820,393.200 80.600 C 393.371 80.380,393.634 77.590,393.783 74.400 C 393.932 71.210,394.211 68.060,394.403 67.400 C 394.595 66.740,394.957 62.510,395.208 58.000 C 395.459 53.490,395.776 49.530,395.912 49.200 C 396.185 48.543,396.815 41.299,397.861 26.800 C 398.234 21.630,398.659 17.310,398.805 17.200 C 399.020 17.038,400.023 3.250,400.005 0.700 C 400.000 0.034,390.208 0.000,200.000 0.000 L 0.000 0.000 -0.003 0.900 M186.301 79.930 C 186.700 80.184,186.781 108.427,186.701 219.824 L 186.600 359.400 185.200 359.269 C 183.934 359.151,145.742 351.680,139.000 350.232 C 137.460 349.902,134.310 349.265,132.000 348.818 C 129.690 348.370,121.500 346.763,113.800 345.246 C 106.100 343.730,99.350 342.401,98.800 342.294 C 91.532 340.876,84.681 339.499,83.400 339.198 C 82.520 338.992,77.453 337.985,72.141 336.960 C 66.829 335.936,62.264 334.963,61.998 334.799 C 61.510 334.497,61.432 333.813,60.239 319.400 C 59.893 315.220,59.505 311.025,59.377 310.077 C 59.146 308.371,58.556 301.719,57.401 287.812 C 57.072 283.859,56.712 280.079,56.599 279.412 C 56.356 277.965,55.211 264.450,54.913 259.500 L 54.702 256.000 79.727 256.000 C 93.649 256.000,104.849 256.156,104.970 256.351 C 105.089 256.544,105.459 260.099,105.791 264.251 C 106.124 268.403,106.492 272.520,106.610 273.400 C 106.846 275.169,107.898 287.123,108.274 292.312 C 108.576 296.479,106.818 295.783,122.600 297.982 C 125.548 298.392,132.287 299.392,134.900 299.806 L 136.000 299.980 136.000 214.990 L 136.000 130.000 107.787 130.000 C 85.573 130.000,79.540 129.894,79.409 129.500 C 79.255 129.034,79.021 126.685,78.004 115.400 C 77.786 112.980,77.339 108.210,77.010 104.800 C 76.682 101.390,76.225 96.530,75.995 94.000 C 75.765 91.470,75.384 87.352,75.148 84.848 C 74.796 81.112,74.816 80.236,75.260 79.955 C 75.941 79.523,185.621 79.499,186.301 79.930 M345.593 80.300 C 345.589 80.465,345.404 82.310,345.182 84.400 C 344.959 86.490,344.516 91.260,344.197 95.000 C 343.001 109.007,342.392 115.910,342.025 119.600 C 341.817 121.690,341.531 124.795,341.390 126.500 L 341.132 129.600 303.809 129.600 C 270.144 129.600,266.462 129.662,266.243 130.233 C 265.926 131.059,265.926 179.741,266.243 180.567 C 266.462 181.138,269.940 181.200,301.497 181.200 L 336.509 181.200 336.234 185.500 C 336.083 187.865,335.790 191.345,335.583 193.233 C 335.377 195.121,334.932 199.801,334.595 203.633 C 333.349 217.824,332.796 224.018,331.994 232.800 C 330.467 249.503,329.980 254.975,329.391 262.000 C 329.068 265.850,328.708 269.720,328.590 270.600 C 328.473 271.480,328.108 275.350,327.780 279.200 C 327.047 287.800,325.839 301.220,324.612 314.400 C 324.294 317.810,323.931 321.950,323.805 323.600 C 323.412 328.733,322.660 334.800,322.417 334.800 C 322.290 334.800,320.209 335.254,317.793 335.810 C 315.377 336.365,312.230 337.078,310.800 337.393 C 309.370 337.709,304.960 338.711,301.000 339.620 C 297.040 340.529,292.720 341.516,291.400 341.812 C 290.080 342.109,286.210 342.995,282.800 343.781 C 279.390 344.568,273.720 345.861,270.200 346.654 C 266.680 347.448,262.810 348.324,261.600 348.600 C 260.390 348.876,256.430 349.776,252.800 350.600 C 249.170 351.424,245.210 352.324,244.000 352.600 C 242.790 352.876,238.920 353.754,235.400 354.551 C 231.880 355.347,226.210 356.635,222.800 357.412 C 219.390 358.190,216.014 358.934,215.297 359.066 L 213.994 359.306 214.097 333.364 L 214.200 307.422 215.800 307.133 C 216.680 306.974,220.910 306.192,225.200 305.396 C 229.490 304.599,234.440 303.694,236.200 303.384 C 239.441 302.813,242.092 302.332,250.400 300.803 C 252.930 300.337,257.070 299.587,259.600 299.135 C 262.130 298.683,265.550 298.070,267.200 297.774 C 268.850 297.477,271.510 297.013,273.111 296.744 C 275.526 296.337,276.049 296.113,276.185 295.427 C 276.362 294.532,276.534 292.790,277.411 283.000 C 277.726 279.480,278.355 272.640,278.809 267.800 C 281.096 243.397,281.987 233.418,281.995 232.102 L 282.000 231.205 248.100 231.102 L 214.200 231.000 214.099 155.500 L 213.998 80.000 279.799 80.000 C 315.990 80.000,345.597 80.135,345.593 80.300 " stroke="none" fill="#d4b830" fill-rule="evenodd"></path></g></svg>