<svg id="svg" version="1.1" width="150" height="150" viewBox="0 0 400 390.00000000000006" xmlns="http://www.w3.org/2000/svg" xmlns:xlink="http://www.w3.org/1999/xlink" ><g id="svgg"><path id="path0" d="M16.800 195.000 L 16.800 373.200 200.000 373.200 L 383.200 373.200 383.200 195.000 L 383.200 16.800 200.000 16.800 L 16.800 16.800 16.800 195.000 M154.000 88.881 C 189.066 92.550,207.489 112.362,207.485 146.400 C 207.480 186.125,179.984 208.654,133.761 206.808 C 130.977 206.696,128.138 206.604,127.450 206.603 L 126.200 206.600 126.200 239.078 C 126.200 270.755,126.191 271.567,125.818 272.028 L 125.435 272.500 111.769 272.554 C 97.318 272.611,97.250 272.607,96.826 271.677 C 96.659 271.311,96.600 247.600,96.600 181.008 L 96.600 90.836 97.213 90.319 C 98.304 89.402,99.429 89.239,106.400 88.992 C 124.322 88.355,148.430 88.299,154.000 88.881 M136.000 115.218 C 132.755 115.288,129.268 115.412,128.250 115.494 L 126.400 115.642 126.400 147.692 L 126.400 179.741 128.050 179.869 C 131.310 180.123,144.168 180.010,147.070 179.702 C 166.030 177.690,175.893 168.263,177.412 150.700 C 178.853 134.042,171.844 122.003,158.021 117.393 C 152.216 115.457,147.325 114.974,136.000 115.218 M281.868 135.477 C 292.670 136.706,299.774 138.813,300.824 141.100 C 301.195 141.908,301.430 165.969,301.076 166.891 C 300.682 167.916,299.185 167.956,297.604 166.984 C 288.314 161.267,270.571 158.432,261.491 161.214 C 254.432 163.376,250.684 169.450,252.594 175.633 C 254.041 180.318,259.939 184.831,274.100 192.087 C 298.540 204.610,307.015 215.449,306.996 234.160 C 306.967 263.734,282.017 279.734,244.600 274.174 C 237.363 273.098,230.471 271.058,226.092 268.693 C 223.422 267.251,223.708 269.037,223.646 253.450 C 223.581 237.183,223.414 237.979,226.483 239.875 C 234.682 244.940,243.251 247.858,253.000 248.906 C 268.483 250.569,277.649 245.961,277.675 236.500 C 277.695 229.332,272.477 224.373,255.989 215.892 C 233.990 204.576,225.702 195.276,223.902 179.886 C 221.076 155.722,237.044 137.852,263.900 135.124 C 265.943 134.917,279.238 135.178,281.868 135.477 " stroke="none" fill="#001721" fill-rule="evenodd"></path><path id="path1" d="M140.850 115.138 C 141.042 115.188,141.358 115.188,141.550 115.138 C 141.743 115.088,141.585 115.046,141.200 115.046 C 140.815 115.046,140.657 115.088,140.850 115.138 " stroke="none" fill="#002431" fill-rule="evenodd"></path><path id="path2" d="M139.650 115.138 C 139.843 115.188,140.157 115.188,140.350 115.138 C 140.542 115.088,140.385 115.046,140.000 115.046 C 139.615 115.046,139.458 115.088,139.650 115.138 M137.850 206.946 C 138.263 206.989,138.938 206.989,139.350 206.946 C 139.763 206.903,139.425 206.867,138.600 206.867 C 137.775 206.867,137.438 206.903,137.850 206.946 " stroke="none" fill="#003141" fill-rule="evenodd"></path><path id="path3" d="M130.952 88.541 C 131.201 88.589,131.561 88.587,131.752 88.537 C 131.944 88.487,131.740 88.448,131.300 88.450 C 130.860 88.453,130.704 88.494,130.952 88.541 M138.352 115.141 C 138.601 115.189,138.961 115.187,139.152 115.137 C 139.344 115.087,139.140 115.048,138.700 115.050 C 138.260 115.053,138.104 115.094,138.352 115.141 M136.359 180.149 C 137.272 180.186,138.712 180.186,139.559 180.148 C 140.407 180.111,139.660 180.081,137.900 180.081 C 136.140 180.081,135.447 180.112,136.359 180.149 " stroke="none" fill="#003d50" fill-rule="evenodd"></path><path id="path4" d="M132.453 88.544 C 132.757 88.589,133.207 88.588,133.453 88.541 C 133.699 88.493,133.450 88.456,132.900 88.457 C 132.350 88.459,132.149 88.498,132.453 88.544 M133.752 180.141 C 134.001 180.189,134.361 180.187,134.552 180.137 C 134.744 180.087,134.540 180.048,134.100 180.050 C 133.660 180.053,133.504 180.094,133.752 180.141 " stroke="none" fill="#004960" fill-rule="evenodd"></path><path id="path5" d="M134.253 88.544 C 134.557 88.589,135.007 88.588,135.253 88.541 C 135.499 88.493,135.250 88.456,134.700 88.457 C 134.150 88.459,133.949 88.498,134.253 88.544 M132.450 180.138 C 132.643 180.188,132.958 180.188,133.150 180.138 C 133.343 180.088,133.185 180.046,132.800 180.046 C 132.415 180.046,132.258 180.088,132.450 180.138 " stroke="none" fill="#00566f" fill-rule="evenodd"></path><path id="path6" d="M136.154 88.545 C 136.513 88.589,137.053 88.589,137.354 88.543 C 137.654 88.497,137.360 88.461,136.700 88.462 C 136.040 88.463,135.794 88.500,136.154 88.545 " stroke="none" fill="#005f7a" fill-rule="evenodd"></path><path id="path7" d="M16.693 16.850 C 16.641 16.987,16.621 97.245,16.649 195.200 L 16.700 373.300 200.000 373.300 L 383.300 373.300 383.300 195.000 L 383.300 16.700 200.044 16.650 C 53.543 16.610,16.769 16.650,16.693 16.850 M383.200 195.000 L 383.200 373.200 200.000 373.200 L 16.800 373.200 16.800 195.000 L 16.800 16.800 200.000 16.800 L 383.200 16.800 383.200 195.000 " stroke="none" fill="#006683" fill-rule="evenodd"></path><path id="path8" d="M139.550 88.549 C 140.567 88.585,142.233 88.585,143.250 88.549 C 144.268 88.513,143.435 88.483,141.400 88.483 C 139.365 88.483,138.532 88.513,139.550 88.549 " stroke="none" fill="#006d8b" fill-rule="evenodd"></path><path id="path9" d="" stroke="none" fill="#007191" fill-rule="evenodd"></path><path id="path10" d="M105.164 272.550 C 108.720 272.581,114.480 272.581,117.964 272.550 C 121.449 272.519,118.540 272.494,111.500 272.494 C 104.460 272.494,101.609 272.519,105.164 272.550 " stroke="none" fill="#007a9b" fill-rule="evenodd"></path><path id="path11" d="" stroke="none" fill="#0085a9" fill-rule="evenodd"></path><path id="path12" d="M96.699 180.900 C 96.699 230.290,96.722 250.465,96.750 225.734 C 96.778 201.002,96.778 160.592,96.750 135.934 C 96.722 111.275,96.699 131.510,96.699 180.900 M126.298 147.700 C 126.298 165.410,126.321 172.625,126.350 163.734 C 126.379 154.843,126.379 140.353,126.350 131.534 C 126.321 122.715,126.298 129.990,126.298 147.700 M223.694 253.300 C 223.694 260.230,223.719 263.036,223.750 259.536 C 223.781 256.035,223.781 250.365,223.750 246.936 C 223.719 243.506,223.694 246.370,223.694 253.300 " stroke="none" fill="#0090b8" fill-rule="evenodd"></path><path id="path13" d="" stroke="none" fill="#009cc6" fill-rule="evenodd"></path><path id="path14" d="M258.653 275.144 C 258.957 275.189,259.407 275.188,259.653 275.141 C 259.899 275.093,259.650 275.056,259.100 275.057 C 258.550 275.059,258.349 275.098,258.653 275.144 " stroke="none" fill="#00a5d2" fill-rule="evenodd"></path><path id="path15" d="M301.094 154.400 C 301.094 160.725,301.119 163.313,301.150 160.150 C 301.181 156.987,301.181 151.812,301.150 148.650 C 301.119 145.488,301.094 148.075,301.094 154.400 M126.098 238.600 C 126.098 256.255,126.121 263.478,126.150 254.650 C 126.179 245.823,126.179 231.378,126.150 222.550 C 126.121 213.723,126.098 220.945,126.098 238.600 " stroke="none" fill="#00acdb" fill-rule="evenodd"></path><path id="path16" d="" stroke="none" fill="#00b7e9" fill-rule="evenodd"></path><path id="path17" d="M270.752 135.141 C 271.001 135.189,271.361 135.187,271.552 135.137 C 271.744 135.087,271.540 135.048,271.100 135.050 C 270.660 135.053,270.504 135.094,270.752 135.141 " stroke="none" fill="#00bef2" fill-rule="evenodd"></path><path id="path18" d="" stroke="none" fill="#00c2f7" fill-rule="evenodd"></path><path id="path19" d="M0.000 195.000 L 0.000 390.000 200.000 390.000 L 400.000 390.000 400.000 195.000 L 400.000 0.000 200.000 0.000 L 0.000 0.000 0.000 195.000 M383.400 195.000 L 383.400 373.400 200.000 373.400 L 16.600 373.400 16.600 195.000 L 16.600 16.600 200.000 16.600 L 383.400 16.600 383.400 195.000 M120.200 88.814 C 101.911 89.157,98.499 89.406,97.334 90.486 L 96.800 90.981 96.800 181.200 L 96.800 271.418 97.291 271.909 L 97.782 272.400 111.364 272.400 C 124.802 272.400,124.952 272.396,125.473 271.985 L 126.000 271.571 126.000 238.985 L 126.000 206.400 127.002 206.400 C 127.553 206.400,130.490 206.499,133.528 206.619 C 179.743 208.452,207.398 185.907,207.398 146.400 C 207.398 115.890,191.641 96.047,162.942 90.415 C 153.827 88.626,145.953 88.331,120.200 88.814 M150.900 115.481 C 169.846 118.630,179.216 130.948,177.615 150.600 C 175.779 173.138,160.544 182.214,128.150 180.069 L 126.200 179.940 126.200 147.670 L 126.200 115.400 126.950 115.377 C 127.363 115.365,128.870 115.286,130.300 115.202 C 135.074 114.921,148.640 115.105,150.900 115.481 M266.400 135.213 C 237.455 136.507,219.396 157.292,224.621 183.300 C 227.297 196.621,235.743 205.314,256.100 215.700 C 274.891 225.287,280.450 231.907,277.157 240.778 C 272.865 252.338,246.929 252.355,227.618 240.811 C 223.369 238.271,223.799 236.877,223.803 253.181 C 223.806 268.736,223.524 267.101,226.465 268.614 C 239.172 275.155,262.026 276.984,277.199 272.676 C 296.198 267.282,306.822 253.444,306.815 234.100 C 306.808 215.331,298.400 204.763,273.200 191.855 C 263.175 186.720,257.165 182.740,254.505 179.474 C 249.513 173.346,252.109 164.481,259.739 161.598 C 268.903 158.136,286.470 160.406,297.023 166.418 C 299.259 167.691,299.813 167.805,300.487 167.131 L 301.000 166.618 301.000 154.303 C 301.000 140.918,301.024 141.221,299.875 140.180 C 297.492 138.022,285.448 135.586,275.700 135.290 C 273.940 135.236,271.825 135.166,271.000 135.133 C 270.175 135.101,268.105 135.136,266.400 135.213 " stroke="none" fill="#00c9ff" fill-rule="evenodd"></path></g></svg>